{"glyphs":{"0":{"ha":946,"x_min":0,"x_max":0,"o":"m 346 -501 b 50 10 175 -501 50 -310 b 60 181 50 64 53 121 b 490 936 126 768 457 922 b 424 950 481 942 451 950 l 401 949 b 360 989 379 949 361 965 b 394 1029 360 1007 376 1028 l 424 1032 b 653 911 499 1032 583 988 b 826 379 731 824 826 642 b 769 -6 826 258 807 129 b 346 -501 683 -315 514 -501 m 346 -419 b 690 15 460 -419 607 -292 b 744 379 729 156 744 276 b 571 879 744 689 619 838 l 561 876 b 379 757 560 876 475 853 b 142 172 290 664 178 490 b 132 6 135 113 132 57 b 346 -419 132 -282 231 -419 "},"1":{"ha":444,"x_min":0,"x_max":0,"o":"m 86 -708 b 50 -665 65 -704 50 -685 l 313 1288 b 354 1324 317 1307 336 1324 b 394 1281 376 1322 394 1301 l 131 -672 b 90 -708 129 -693 108 -708 "},"2":{"ha":1122,"x_min":0,"x_max":0,"o":"m 90 -487 b 50 -446 69 -487 50 -468 b 63 -417 50 -436 51 -428 b 561 231 94 -379 338 -85 b 957 974 894 703 957 894 b 950 1010 957 993 954 1003 b 850 1068 922 1050 892 1068 b 797 1058 833 1068 817 1065 b 494 804 656 1018 510 846 b 504 775 497 801 504 788 b 464 735 504 754 485 735 b 408 788 431 735 411 757 b 508 956 408 843 479 925 b 847 1149 621 1074 746 1149 b 1017 1054 915 1149 976 1115 b 1039 974 1032 1033 1039 1006 b 626 185 1039 838 897 564 b 226 -346 464 -44 293 -264 b 771 -233 328 -307 576 -233 b 1072 -422 988 -233 1065 -337 b 1035 -464 1072 -442 1057 -462 b 992 -429 1017 -464 996 -450 b 769 -315 981 -347 899 -315 b 119 -476 517 -315 156 -454 b 90 -487 113 -483 101 -487 "},"3":{"ha":1001,"x_min":0,"x_max":0,"o":"m 321 -704 b 63 -589 228 -704 139 -665 b 50 -560 54 -582 50 -569 b 92 -519 50 -540 71 -519 b 119 -532 100 -519 113 -524 b 321 -624 189 -600 256 -624 b 469 -583 376 -624 426 -606 b 782 -61 649 -489 782 -260 b 775 8 782 -37 779 -14 b 446 200 746 172 571 200 b 325 192 378 200 328 192 l 319 192 b 279 229 296 192 283 207 b 296 264 279 243 286 257 b 869 924 301 268 869 665 b 744 1056 869 999 822 1056 b 349 815 581 1056 350 817 b 319 801 342 807 329 801 b 279 843 299 801 279 824 b 289 871 279 853 283 864 b 744 1136 300 882 546 1136 b 951 925 861 1135 951 1043 b 456 282 951 692 608 397 b 553 275 486 282 519 279 b 863 -62 772 242 863 114 b 782 -367 863 -160 835 -267 b 321 -704 671 -576 488 -704 "},"4":{"ha":1013,"x_min":0,"x_max":0,"o":"m 554 -787 b 526 -778 544 -787 535 -783 b 504 -699 518 -771 504 -757 b 668 215 504 -604 536 -375 b 804 800 725 468 785 718 b 397 181 724 651 535 340 b 164 21 306 75 228 21 b 50 181 92 26 50 74 b 283 947 50 421 256 886 b 321 971 289 961 306 971 b 361 928 344 965 361 953 l 358 914 b 131 182 286 756 131 364 b 165 101 131 122 138 104 b 583 586 206 101 318 157 b 882 1115 744 844 881 1113 b 922 1146 889 1129 899 1146 b 963 1106 944 1144 963 1126 l 961 1096 b 753 222 960 1090 853 663 b 585 -696 610 -412 585 -625 b 594 -747 585 -719 594 -715 b 554 -787 594 -765 578 -787 "},"5":{"ha":1000,"x_min":0,"x_max":0,"o":"m 236 -662 b 53 -510 176 -662 97 -632 b 50 -496 50 -506 50 -500 b 89 -456 50 -472 67 -458 b 128 -483 106 -456 122 -467 b 236 -581 154 -550 188 -581 b 581 -281 331 -581 472 -464 b 722 165 672 -129 722 28 b 657 331 722 247 708 303 b 578 346 635 342 608 346 b 156 203 438 346 236 249 b 135 197 149 200 142 197 b 94 240 115 197 94 218 l 239 819 l 215 813 b 203 810 211 810 206 810 b 163 851 182 810 163 831 b 189 888 163 865 174 883 b 261 913 194 890 224 901 l 289 1024 b 331 1054 294 1042 314 1054 b 369 1013 354 1053 369 1035 l 369 1004 l 353 942 b 906 1085 501 989 778 1072 l 910 1085 b 950 1044 931 1085 949 1067 b 914 1004 950 1026 933 1006 b 331 849 788 990 486 899 l 196 317 b 576 426 261 349 435 426 b 800 238 697 426 783 365 b 804 168 803 215 804 192 b 651 -324 804 15 749 -161 b 286 -657 544 -500 404 -628 b 236 -662 274 -660 256 -662 "},"6":{"ha":878,"x_min":0,"x_max":0,"o":"m 294 -443 b 50 -151 144 -431 50 -324 b 353 707 50 103 232 482 b 547 1035 417 825 486 942 b 685 1189 646 1181 671 1186 l 690 1189 b 731 1149 714 1189 729 1171 b 707 1111 731 1133 721 1115 b 351 528 678 1090 508 844 b 156 31 244 310 175 126 b 561 268 215 99 386 267 b 774 157 644 268 725 232 b 828 -7 807 108 828 47 b 781 -175 828 -62 811 -119 b 319 -443 690 -326 486 -443 m 321 -362 b 710 -132 461 -362 633 -262 b 747 -8 731 -99 747 -56 b 714 104 747 28 739 65 b 563 188 669 161 621 188 b 133 -126 360 185 133 -126 l 132 -150 b 321 -362 132 -300 196 -357 "},"7":{"ha":913,"x_min":0,"x_max":0,"o":"m 175 -642 b 136 -600 153 -637 136 -624 l 136 -593 b 432 250 194 -343 318 -28 b 111 197 338 243 208 219 b 63 235 89 197 65 204 b 94 278 63 253 76 272 b 371 325 96 278 226 308 l 467 333 b 728 965 601 654 651 763 b 782 1151 775 1092 782 1136 b 785 1147 782 1147 785 1147 l 776 1147 b 433 1040 744 1147 658 1132 b 110 893 268 971 111 894 b 90 888 103 889 96 888 b 50 928 69 888 50 908 b 71 963 50 942 58 957 b 417 1119 72 964 242 1049 b 776 1228 613 1200 718 1228 b 863 1153 835 1228 863 1201 b 556 336 863 1053 757 817 b 757 278 644 336 719 317 b 767 250 763 269 767 258 b 726 208 767 229 747 208 b 697 222 717 208 704 214 b 542 254 675 244 618 254 l 521 254 b 217 -610 400 -37 275 -361 b 175 -642 211 -626 193 -642 "},"8":{"ha":1121,"x_min":0,"x_max":0,"o":"m 290 -512 b 50 -346 151 -512 50 -456 l 51 -324 b 503 208 69 -147 415 139 b 235 490 376 310 258 403 b 226 557 229 511 226 535 b 329 799 226 635 263 721 b 879 1051 460 951 681 1051 b 939 1049 899 1051 919 1050 b 1072 914 1046 1036 1072 969 b 863 500 1072 822 1003 683 b 622 215 765 369 663 256 b 888 -158 751 108 888 -22 b 635 -433 882 -267 803 -358 b 290 -512 531 -481 400 -512 m 293 -432 b 600 -361 383 -432 497 -407 b 806 -160 736 -300 803 -232 b 567 156 806 -58 688 54 b 131 -346 422 40 139 -206 b 293 -432 131 -408 194 -432 m 560 265 b 990 913 667 376 990 757 b 986 936 990 922 989 929 b 929 967 983 944 978 963 b 876 969 913 969 894 969 b 390 746 700 969 508 883 b 307 556 336 681 307 617 b 314 510 307 540 310 525 b 560 265 331 447 440 364 "},"9":{"ha":767,"x_min":0,"x_max":0,"o":"m 481 -733 b 444 -711 468 -733 451 -725 b 424 -565 438 -699 424 -672 b 506 238 424 -443 442 -211 b 603 853 540 475 578 707 l 617 846 b 500 658 588 796 544 726 b 161 317 314 375 217 317 b 132 321 150 317 140 318 b 50 485 89 335 54 375 b 310 1081 50 675 182 1017 b 390 1100 338 1094 365 1100 b 599 981 485 1100 564 1021 b 639 1054 621 1019 639 1053 b 678 1079 647 1071 663 1079 b 717 1038 700 1076 717 1061 l 717 1031 b 588 228 715 1026 646 635 b 506 -565 522 -222 506 -450 b 521 -693 506 -662 521 -667 b 481 -733 521 -714 499 -733 m 160 397 b 431 703 181 397 249 424 b 556 904 479 776 524 851 b 390 1019 508 961 451 1019 b 346 1008 376 1019 361 1015 b 131 485 256 963 131 657 b 160 397 133 435 135 401 "}," ":{"ha":706,"x_min":0,"x_max":0,"o":""},"!":{"ha":628,"x_min":0,"x_max":0,"o":"m 210 -86 b 167 -43 188 -86 167 -68 b 281 796 167 50 253 621 b 417 1583 300 921 399 1551 b 453 1603 425 1594 440 1603 b 493 1560 472 1603 493 1582 l 490 1547 b 249 -39 468 1481 249 104 l 249 -44 b 210 -86 249 -64 231 -86 m 190 -375 b 149 -333 169 -375 149 -354 b 190 -290 149 -311 169 -290 b 233 -333 213 -290 233 -311 b 190 -375 233 -354 213 -375 "},"\"":{"ha":346,"x_min":0,"x_max":0,"o":"m 89 1046 b 50 1088 68 1047 49 1067 l 56 1239 b 99 1278 57 1258 78 1278 b 138 1235 118 1276 138 1256 l 131 1085 b 90 1046 131 1065 111 1046 m 250 1046 b 208 1088 229 1046 208 1065 l 215 1238 b 257 1278 215 1258 238 1278 b 296 1239 276 1276 296 1258 l 290 1085 b 250 1046 290 1065 271 1046 "},"#":{"ha":1229,"x_min":0,"x_max":0,"o":"m 619 -610 b 583 -568 601 -610 583 -587 l 650 269 l 401 206 l 360 -214 b 315 -250 357 -237 335 -250 b 278 -208 290 -247 276 -224 l 318 183 l 232 163 b 221 160 228 160 224 160 b 181 199 200 160 182 175 b 211 240 181 215 193 235 l 328 269 l 356 551 b 163 488 297 532 225 508 b 147 483 158 486 151 483 b 107 525 126 483 107 507 b 136 564 107 540 119 557 b 365 640 138 564 236 599 l 407 1054 b 446 1090 408 1074 428 1090 b 488 1049 467 1089 488 1075 l 449 667 b 688 736 546 697 571 704 l 738 1358 b 778 1397 738 1378 757 1397 b 818 1356 799 1396 818 1378 l 771 758 b 1086 811 936 800 1033 811 b 1156 800 1129 811 1146 804 b 1179 761 1169 793 1179 776 b 1136 722 1175 740 1160 717 b 1083 732 1115 728 1110 732 b 763 672 1017 732 896 707 l 740 376 l 838 400 b 879 360 864 407 879 383 b 849 319 879 343 867 325 l 733 290 l 665 -574 b 622 -611 664 -592 644 -611 m 657 354 l 681 650 b 440 578 611 631 521 604 l 411 292 "},"$":{"ha":975,"x_min":0,"x_max":0,"o":"m 386 -617 b 347 -592 369 -617 353 -606 b 332 -412 342 -581 332 -556 b 342 -94 332 -340 335 -233 l 346 -94 b 340 -97 346 -96 343 -96 b 285 -100 321 -100 301 -100 b 51 61 171 -100 81 -40 l 50 71 b 90 113 50 96 69 108 b 131 85 107 113 125 99 b 286 -19 156 -4 228 -19 l 299 -19 b 344 -14 308 -19 317 -19 b 386 599 354 156 365 328 b 182 897 285 688 182 788 b 383 1142 188 992 243 1065 b 431 1164 403 1151 419 1160 l 465 1567 b 506 1604 467 1588 488 1604 b 547 1564 529 1603 547 1585 l 547 1560 b 514 1192 536 1439 524 1308 b 565 1196 522 1193 546 1196 b 689 1156 621 1196 661 1176 b 783 922 757 1101 783 1003 b 772 831 783 889 779 857 b 732 801 767 815 749 801 b 692 843 710 804 692 819 b 701 921 696 871 701 888 b 638 1092 701 985 683 1056 b 565 1115 617 1108 593 1115 b 507 1106 543 1115 522 1111 b 469 632 494 954 481 789 l 469 633 b 713 290 590 526 713 418 b 424 -76 713 114 567 -26 b 413 -421 417 -211 413 -332 b 425 -575 413 -532 418 -546 b 400 -614 425 -592 414 -607 l 386 -617 m 428 14 b 631 289 528 53 631 158 b 463 531 631 375 551 451 b 428 14 449 354 436 161 m 393 701 b 424 1072 403 824 414 967 l 431 1075 l 424 1069 b 264 897 310 1010 267 958 b 393 701 264 831 331 758 "},"%":{"ha":1081,"x_min":0,"x_max":0,"o":"m 93 -696 b 51 -657 72 -696 51 -681 l 50 -626 b 888 1389 50 -97 721 1099 l 283 1092 b 371 881 308 1058 371 965 b 219 718 371 774 292 721 b 83 875 146 718 89 769 b 186 1128 83 968 132 1089 b 200 1142 189 1132 194 1138 l 972 1521 b 990 1525 978 1524 985 1525 b 1031 1485 1011 1525 1031 1504 b 1025 1464 1031 1478 1028 1469 b 132 -626 1017 1449 132 -50 l 132 -657 b 93 -696 132 -676 113 -696 m 224 799 b 289 881 257 801 289 828 b 217 1046 289 938 242 1014 b 165 882 200 1028 165 950 b 221 799 169 817 186 799 l 224 799 m 561 -279 b 393 -108 474 -279 393 -196 b 585 119 393 11 518 119 l 597 118 l 604 119 b 624 114 611 119 618 117 b 761 -75 710 71 761 1 b 561 -279 753 -197 657 -279 m 561 -199 b 681 -75 631 -199 676 -136 b 604 32 681 -33 654 3 l 601 32 b 578 39 593 32 582 35 b 504 -26 572 39 536 19 b 475 -108 493 -43 475 -74 b 561 -199 475 -162 525 -199 "},"&":{"ha":1264,"x_min":0,"x_max":0,"o":"m 394 -690 b 350 -579 353 -690 350 -640 b 371 -278 350 -503 358 -389 b 272 -293 349 -286 308 -293 b 50 -62 146 -293 50 -203 b 113 164 50 4 71 82 b 478 533 201 340 350 460 b 476 536 476 531 476 532 b 481 560 479 549 481 560 b 267 718 346 568 267 628 b 564 1085 267 842 424 1001 b 590 1246 572 1136 581 1192 b 676 1594 649 1581 660 1586 b 694 1599 682 1597 689 1599 b 735 1557 717 1599 735 1576 b 729 1538 735 1550 732 1542 b 654 1129 721 1514 690 1347 b 751 1151 683 1142 706 1151 b 832 1125 782 1151 811 1143 b 879 1000 871 1092 879 1036 b 875 957 879 978 876 961 b 835 925 871 939 853 925 b 794 965 813 926 794 943 b 797 1000 794 978 797 983 b 778 1063 797 1025 793 1050 b 751 1071 771 1068 764 1071 b 636 1032 714 1071 672 1051 l 575 638 b 774 660 615 639 686 646 l 779 660 b 821 618 806 660 818 640 b 789 579 821 601 807 585 b 550 481 786 579 676 551 b 467 -140 514 233 485 13 b 485 -125 458 -144 472 -136 b 1028 517 725 60 1025 513 b 1061 535 1035 528 1050 535 b 1101 494 1082 535 1101 514 b 1096 472 1101 488 1100 479 b 535 -190 1083 453 788 4 b 456 -242 507 -211 478 -231 b 431 -581 439 -392 431 -510 b 436 -650 431 -621 433 -629 b 394 -690 436 -669 414 -690 m 546 975 b 347 719 451 911 347 794 l 350 703 b 492 639 354 682 379 646 m 271 -212 b 381 -187 307 -212 344 -203 b 461 426 403 15 436 258 b 185 128 371 371 256 268 b 132 -61 149 57 132 -7 b 271 -212 132 -160 186 -212 "},"'":{"ha":188,"x_min":0,"x_max":0,"o":"m 89 1046 b 50 1088 68 1047 49 1067 l 56 1239 b 99 1278 57 1258 78 1278 b 138 1235 118 1276 138 1256 l 131 1085 b 90 1046 131 1065 111 1046 "},"(":{"ha":992,"x_min":0,"x_max":0,"o":"m 589 -812 b 554 -793 575 -812 563 -803 b 190 428 308 -367 190 39 b 349 1163 190 683 244 931 b 878 1853 549 1608 864 1843 b 901 1861 883 1858 894 1861 b 942 1821 924 1861 942 1840 b 926 1789 942 1810 935 1794 b 421 1126 924 1786 613 1554 b 274 425 340 944 274 710 b 625 -751 274 94 363 -299 b 629 -771 628 -757 629 -765 b 589 -812 629 -793 608 -812 "},")":{"ha":933,"x_min":0,"x_max":0,"o":"m 90 -714 b 50 -674 74 -714 50 -696 b 60 -647 50 -665 54 -654 b 663 835 540 -97 663 432 b 650 1050 663 911 657 983 b 411 1793 599 1496 413 1792 b 406 1815 407 1800 406 1808 b 446 1856 406 1835 425 1856 b 481 1838 457 1856 472 1849 b 731 1058 488 1825 678 1524 b 743 828 739 982 743 904 b 122 -700 743 300 538 -222 b 90 -714 114 -710 100 -714 "},"*":{"ha":543,"x_min":0,"x_max":0,"o":"m 258 1119 b 218 1160 236 1119 218 1139 l 225 1282 l 136 1203 b 108 1193 128 1197 118 1193 b 68 1235 90 1193 68 1213 b 82 1265 68 1244 74 1257 l 204 1374 l 68 1465 b 50 1499 57 1472 50 1486 b 90 1539 50 1518 71 1539 b 113 1531 97 1539 107 1536 l 236 1450 l 244 1597 b 285 1635 246 1618 267 1635 b 326 1593 307 1633 326 1617 l 318 1472 l 408 1553 b 435 1563 415 1558 426 1563 b 476 1521 457 1563 476 1540 b 463 1490 476 1511 471 1499 l 339 1382 l 475 1292 b 493 1257 486 1285 493 1269 b 453 1217 493 1236 474 1217 b 431 1224 446 1217 436 1219 l 308 1306 l 299 1157 b 258 1119 297 1139 278 1119 "},"+":{"ha":1168,"x_min":0,"x_max":0,"o":"m 517 -12 b 476 29 494 -12 476 7 l 511 461 b 199 401 411 447 293 424 b 150 442 169 401 154 413 b 183 482 150 458 164 476 b 521 544 185 482 344 521 l 518 544 l 543 864 b 583 900 544 883 565 900 b 624 860 606 899 624 882 l 600 553 b 763 563 653 560 711 563 b 979 510 868 563 942 546 b 993 481 988 503 993 490 b 951 440 993 461 972 440 b 924 450 943 440 932 444 b 767 482 900 472 844 482 b 593 471 711 482 649 476 l 557 25 b 517 -12 556 6 535 -12 "},",":{"ha":440,"x_min":0,"x_max":0,"o":"m 90 -385 b 50 -344 68 -385 50 -362 b 71 -308 50 -331 58 -315 b 211 -90 179 -249 211 -92 b 251 -56 214 -72 233 -56 b 292 -97 274 -60 292 -72 l 292 -103 b 111 -379 290 -112 253 -301 b 90 -385 106 -382 97 -385 "},"-":{"ha":1022,"x_min":0,"x_max":0,"o":"m 217 422 b 176 463 196 422 176 442 b 217 503 176 483 196 503 l 749 503 b 789 463 769 503 789 483 b 749 422 789 442 769 422 "},".":{"ha":593,"x_min":0,"x_max":0,"o":"m 260 -22 b 218 21 239 -22 218 -1 b 260 63 218 42 239 63 b 303 21 282 63 303 42 b 260 -22 303 -1 282 -22 "},"/":{"ha":1000,"x_min":0,"x_max":0,"o":"m 88 -757 b 50 -715 67 -756 50 -733 l 50 -711 b 861 1386 97 -332 718 1065 b 1025 1725 1007 1711 1019 1719 b 1051 1733 1033 1731 1043 1733 b 1092 1692 1071 1733 1092 1713 b 1082 1667 1092 1683 1088 1672 b 610 607 1060 1632 842 1157 b 131 -721 322 -76 153 -547 b 90 -757 129 -742 108 -757 "},":":{"ha":371,"x_min":0,"x_max":0,"o":"m 92 -75 b 50 -33 71 -75 50 -54 b 92 10 50 -11 71 10 b 135 -33 114 10 135 -11 b 92 -75 135 -54 114 -75 m 153 326 b 110 369 131 326 110 347 b 153 411 110 390 131 411 b 194 369 174 411 194 390 b 153 326 194 347 174 326 "},";":{"ha":524,"x_min":0,"x_max":0,"o":"m 90 -318 b 50 -278 69 -318 50 -297 b 69 -242 50 -264 58 -250 b 211 -24 179 -182 211 -25 b 253 10 215 -4 235 10 b 292 -32 275 8 292 -10 l 292 -37 b 111 -314 290 -46 253 -235 b 90 -318 104 -318 96 -318 m 303 332 b 261 375 282 332 261 353 b 303 417 261 396 282 417 b 346 375 325 417 346 396 b 303 332 346 353 325 332 "},"<":{"ha":997,"x_min":0,"x_max":0,"o":"m 615 35 b 589 44 606 35 594 39 l 190 396 b 176 428 181 404 176 418 b 190 458 176 439 183 451 b 735 910 239 501 672 876 b 754 914 740 913 749 914 b 793 874 775 914 793 893 b 772 838 793 861 786 846 b 279 426 733 817 458 583 l 642 106 b 656 75 650 99 656 86 b 615 35 656 56 636 35 "},"=":{"ha":1035,"x_min":0,"x_max":0,"o":"m 175 544 b 135 583 156 544 135 564 b 175 625 135 604 154 625 l 817 638 b 858 597 838 638 857 618 b 818 556 858 576 839 557 l 175 544 m 213 331 b 171 369 192 331 172 349 b 211 411 171 390 190 411 l 743 424 b 785 383 764 424 785 404 b 744 342 785 363 765 343 l 213 331 "},">":{"ha":842,"x_min":0,"x_max":0,"o":"m 90 17 b 50 57 72 17 50 36 b 64 88 50 68 56 81 l 590 553 l 172 888 b 158 919 164 896 158 908 b 199 960 158 940 178 960 b 225 951 207 960 217 957 l 679 585 b 693 554 686 579 693 565 b 679 522 693 544 689 531 l 118 26 b 90 17 110 21 100 17 "},"?":{"ha":908,"x_min":0,"x_max":0,"o":"m 215 -104 b 174 -60 199 -101 174 -99 b 761 1121 174 504 599 840 b 832 1342 808 1200 832 1278 b 681 1497 832 1439 781 1497 b 619 1490 661 1497 642 1494 b 242 1029 432 1454 242 1160 b 254 975 242 1008 254 996 b 213 935 254 954 232 935 b 160 1029 174 935 160 989 b 603 1571 160 1193 376 1525 b 679 1579 629 1576 656 1579 b 914 1342 822 1579 914 1481 b 832 1078 914 1263 885 1171 b 261 68 667 803 294 494 l 279 99 b 314 118 286 110 301 118 b 356 76 333 118 356 99 b 350 56 356 71 353 63 b 215 -104 283 -49 257 -104 m 192 -412 b 150 -369 171 -412 150 -392 b 192 -328 150 -349 171 -328 b 235 -369 214 -328 235 -349 b 192 -412 235 -392 214 -412 "},"@":{"ha":1688,"x_min":0,"x_max":0,"o":"m 622 -517 b 164 39 372 -517 164 -301 b 463 872 164 303 283 629 b 1086 1264 642 1118 864 1258 b 1539 738 1389 1264 1539 1054 b 1004 -251 1539 315 1261 -251 b 849 -44 911 -251 849 -183 b 931 375 849 101 906 303 l 888 317 b 532 -25 679 29 586 -25 l 517 -24 b 446 101 485 -17 446 15 b 681 657 446 261 560 569 b 796 697 719 686 760 697 b 971 578 892 697 960 619 b 1054 706 1013 642 1053 706 b 1088 724 1060 717 1075 724 b 1128 682 1107 724 1128 704 l 1125 668 b 929 -46 1063 521 929 157 b 944 -137 929 -83 933 -115 b 1003 -171 957 -164 975 -171 b 1182 -54 1056 -171 1117 -132 b 1457 739 1336 129 1457 463 b 1088 1183 1457 1014 1343 1183 b 526 825 892 1176 693 1051 b 244 40 361 597 244 288 b 622 -435 244 -260 413 -435 b 803 -383 685 -435 746 -418 b 822 -379 808 -381 817 -379 b 864 -419 844 -379 864 -400 b 844 -454 864 -432 856 -447 b 622 -517 776 -494 699 -517 m 533 57 b 824 364 549 57 614 81 b 896 468 849 399 874 433 b 904 503 904 476 904 488 b 861 590 904 533 889 567 b 796 617 849 601 826 617 b 728 592 775 617 754 611 b 526 103 629 519 526 238 b 533 57 526 79 532 57 "},"A":{"ha":1390,"x_min":0,"x_max":0,"o":"m 949 -744 b 919 -731 939 -744 926 -737 b 853 -450 874 -683 853 -593 b 949 375 853 -244 899 56 b 357 274 743 347 540 315 b 110 -318 275 64 190 -149 b -208 -722 -12 -575 -112 -701 b -236 -725 -217 -724 -226 -725 b -336 -679 -264 -725 -301 -714 b -349 -650 -344 -672 -349 -660 b -307 -610 -349 -631 -328 -610 b -279 -622 -299 -610 -286 -614 b -236 -644 -260 -640 -249 -644 b 260 250 -92 -629 79 -215 b -3 171 183 231 89 203 b -18 167 -6 169 -11 167 b -58 206 -40 167 -54 182 b -31 246 -58 222 -47 240 b 296 343 76 285 188 317 b 350 482 314 385 332 433 b 988 1621 631 1217 800 1621 b 1140 1292 1094 1617 1140 1494 b 1046 468 1140 1075 1093 771 b 1296 499 1115 478 1204 488 l 1300 499 b 1340 458 1321 499 1339 481 b 1304 417 1340 440 1324 421 b 1033 385 1207 406 1114 396 b 935 -456 986 89 935 -239 b 979 -675 935 -565 947 -642 b 989 -703 985 -682 989 -693 b 949 -744 989 -724 968 -744 m 392 364 b 961 458 556 401 756 432 b 1060 1299 1008 754 1060 1081 b 983 1539 1060 1460 1038 1538 b 740 1221 942 1539 869 1485 b 425 454 640 1013 531 729 l 392 364 "},"B":{"ha":1349,"x_min":0,"x_max":0,"o":"m 424 -735 b 285 -682 360 -735 313 -708 b 188 -389 214 -615 188 -500 b 219 -165 188 -308 200 -226 b 258 -137 225 -150 243 -137 b 300 -179 282 -142 300 -154 l 299 -189 b 268 -386 279 -250 268 -318 b 424 -654 268 -543 315 -654 b 860 -283 542 -654 708 -535 b 1054 346 972 -94 1054 135 b 832 778 1054 497 1013 675 b 674 818 783 807 731 818 b 610 814 651 818 628 817 b 257 467 531 688 374 467 b 163 565 206 467 163 513 b 561 888 163 672 347 843 b 803 1464 696 1111 785 1321 b 806 1507 804 1478 806 1492 b 779 1585 806 1543 800 1572 b 751 1593 768 1590 761 1593 b 201 663 669 1593 499 1431 l 185 619 b 50 -271 131 272 75 -64 b 54 -276 50 -274 50 -275 b 90 -318 75 -281 90 -300 b 68 -458 90 -322 89 -343 b 4 -635 40 -597 19 -622 b -24 -643 -6 -642 -15 -643 b -68 -583 -56 -643 -68 -622 b 239 1472 -68 -404 236 1460 b 279 1504 243 1490 261 1504 b 319 1464 301 1503 319 1486 l 319 1458 b 242 976 290 1279 257 1078 b 751 1674 418 1407 601 1674 b 888 1507 822 1674 888 1618 b 663 900 888 1343 769 1079 b 874 849 739 900 806 889 b 1136 343 1046 750 1136 572 b 929 -326 1136 138 1057 -114 b 550 -707 815 -517 676 -657 b 424 -735 503 -726 460 -735 m 256 547 b 493 782 319 558 401 649 b 244 564 400 753 244 632 b 256 547 244 553 247 547 "},"C":{"ha":1296,"x_min":0,"x_max":0,"o":"m 325 -581 b -108 -37 71 -581 -108 -390 b 181 979 -108 242 1 633 b 638 1501 338 1288 510 1486 l 664 1503 b 793 1446 714 1503 758 1483 b 886 1057 864 1369 886 1217 b 824 489 886 796 826 508 b 783 457 818 472 801 457 b 743 499 763 460 743 474 l 743 504 b 804 1060 768 622 804 856 b 661 1422 804 1269 771 1422 b -26 -37 438 1410 -26 556 b 232 -486 -26 -229 25 -432 b 325 -499 264 -494 294 -499 b 1289 504 818 -499 1283 492 b 1325 526 1296 518 1311 526 b 1367 485 1344 526 1367 508 l 1364 472 b 1018 -100 1361 467 1224 171 b 325 -581 769 -428 539 -581 "},"D":{"ha":1243,"x_min":0,"x_max":0,"o":"m 332 -583 b 229 -547 289 -583 253 -567 b 139 -292 157 -494 139 -386 b 158 -104 139 -196 157 -111 b 199 -72 164 -86 182 -72 b 239 -115 219 -75 239 -89 l 239 -121 b 219 -294 231 -158 219 -226 b 276 -483 219 -374 233 -450 b 331 -501 294 -496 311 -501 b 926 457 490 -501 747 -103 b 1074 1236 1024 756 1074 1029 b 876 1601 1074 1465 1017 1601 l 851 1600 b 367 901 732 1588 561 1342 b 83 121 214 554 94 183 b 81 108 83 118 81 111 b 31 -261 60 -37 42 -169 b 61 -301 40 -261 61 -278 b 1 -553 57 -400 35 -526 b -28 -562 -7 -558 -19 -562 b -74 -503 -58 -562 -74 -546 b 174 1315 -74 -317 171 1307 b 214 1349 175 1332 196 1349 b 254 1307 236 1347 254 1332 l 254 1303 b 146 574 214 1046 169 739 b 293 935 154 596 219 767 b 843 1681 501 1410 688 1664 l 876 1682 b 1156 1235 1056 1682 1156 1525 b 1006 431 1156 1021 1104 739 b 485 -521 861 -14 657 -387 b 332 -583 425 -567 372 -583 "},"E":{"ha":1269,"x_min":0,"x_max":0,"o":"m 104 -711 b -176 -449 -67 -711 -174 -590 b 561 560 -176 -106 407 426 b -64 836 446 579 103 654 b -114 971 -97 872 -114 919 b 286 1503 -114 1125 38 1329 b 969 1789 496 1650 739 1751 b 1072 1799 1006 1794 1040 1799 b 1293 1706 1172 1799 1249 1767 b 1342 1535 1328 1658 1342 1597 b 1240 1158 1342 1363 1246 1168 b 1201 1135 1233 1144 1218 1135 b 1164 1176 1181 1140 1164 1150 b 1168 1194 1164 1182 1165 1189 b 1261 1533 1169 1197 1261 1383 b 1072 1717 1261 1646 1215 1717 b 981 1708 1044 1717 1015 1714 b -33 971 439 1621 -33 1200 b -3 890 -33 939 -24 913 b 661 626 185 686 656 628 b 696 589 681 624 693 608 b 681 556 696 576 689 563 b -94 -447 672 549 -94 -90 b 104 -629 -93 -549 -28 -629 b 343 -564 171 -629 250 -608 b 989 -12 656 -414 974 -74 b 986 6 989 -11 986 -1 b 1026 46 986 26 1008 46 b 1072 -8 1050 46 1072 19 b 844 -303 1068 -89 882 -268 b 104 -711 582 -550 299 -711 "},"F":{"ha":1233,"x_min":0,"x_max":0,"o":"m 404 -854 b 354 -721 358 -854 357 -811 b 372 254 354 -565 358 -267 b 378 417 375 314 376 374 b 157 346 260 381 158 347 b 142 343 151 343 144 343 b 101 383 121 343 101 364 b 128 421 101 399 113 415 b 381 501 139 425 247 464 b 408 1294 393 899 407 1258 b -39 1019 94 1203 -39 1100 b 172 908 -39 938 172 983 b 131 868 172 886 151 868 b -94 947 111 868 -35 869 b -119 1019 -111 968 -119 993 b 797 1471 -119 1190 169 1351 b 1613 1586 1206 1550 1608 1586 b 1656 1546 1633 1586 1654 1571 b 1617 1504 1656 1525 1638 1506 b 493 1318 1611 1504 911 1435 b 493 1318 493 1318 493 1318 b 490 1315 492 1318 490 1317 b 461 525 481 1071 471 786 b 917 603 601 563 783 603 b 1057 549 972 603 1057 601 b 1017 510 1054 528 1040 510 b 915 522 983 515 963 522 b 460 439 790 522 607 481 b 436 -532 447 53 438 -326 b 426 -546 428 -540 426 -544 b 431 -549 426 -549 429 -549 b 471 -587 450 -549 471 -567 l 472 -643 b 404 -854 472 -758 458 -854 "},"G":{"ha":1624,"x_min":0,"x_max":0,"o":"m 603 -1157 b 454 -950 525 -1157 454 -1085 b 560 -564 454 -857 485 -729 b 989 18 667 -329 833 -132 b 1015 376 1006 183 1014 329 b 171 -560 882 175 429 -490 b 82 -572 140 -568 110 -572 b -139 -251 -71 -572 -139 -436 b 36 506 -139 0 -28 338 b 399 1263 136 778 268 1053 b 788 1644 503 1425 654 1628 l 813 1646 b 933 1597 857 1646 899 1629 b 1083 964 1068 1472 1083 1121 l 1082 886 b 1042 847 1081 867 1063 847 b 1000 889 1019 849 1000 865 b 1001 968 1000 890 1001 921 b 811 1565 1001 1164 971 1565 b 111 478 642 1554 333 1072 b -57 -251 1 178 -57 -78 b 82 -490 -57 -414 -14 -490 b 151 -481 103 -490 125 -487 b 1026 543 426 -406 1019 533 b 1060 561 1033 553 1047 561 b 1100 521 1082 557 1100 546 b 1079 101 1100 503 1099 315 b 1607 467 1342 333 1597 461 b 1625 471 1613 469 1619 471 b 1665 431 1646 471 1665 450 b 1644 394 1665 417 1657 401 b 1069 -19 1640 392 1349 244 b 803 -1015 1035 -350 961 -767 b 603 -1157 747 -1103 671 -1157 m 601 -1075 b 733 -971 642 -1075 693 -1037 b 975 -111 871 -756 943 -392 b 633 -599 858 -229 725 -401 b 536 -953 564 -753 536 -871 b 601 -1075 536 -1040 563 -1075 "},"H":{"ha":1319,"x_min":0,"x_max":0,"o":"m 854 -935 b 828 -924 844 -935 833 -931 b 811 -861 821 -918 811 -910 b 933 386 811 -758 847 -368 b 274 253 740 349 494 299 b 244 -268 260 60 244 -267 b 279 -308 264 -272 279 -290 l 279 -312 b 254 -472 279 -317 269 -386 b 203 -532 249 -499 240 -532 b 160 -468 161 -531 161 -486 b 190 235 160 -293 171 -76 l -87 175 b -99 174 -92 174 -96 174 b -139 214 -119 174 -137 192 b -107 254 -139 231 -125 250 b 196 318 -49 267 64 292 b 293 1535 235 889 293 1525 b 333 1572 294 1554 315 1572 b 375 1532 357 1572 375 1551 b 279 336 375 1519 321 953 b 942 472 471 378 728 431 b 1085 1700 1011 1082 1083 1694 b 1125 1735 1086 1717 1107 1735 b 1165 1693 1149 1735 1165 1711 l 1165 1689 b 1025 488 1121 1321 1069 881 b 1450 553 1219 524 1392 553 b 1499 511 1476 551 1499 542 b 1457 471 1497 486 1476 471 b 1015 401 1399 471 1283 453 b 892 -864 947 -206 892 -746 l 892 -876 l 894 -892 b 854 -935 894 -911 874 -935 "},"I":{"ha":760,"x_min":0,"x_max":0,"o":"m 319 -704 b 279 -664 299 -704 279 -685 b 531 1069 285 -362 474 499 b 546 1332 542 1181 546 1267 b 506 1543 546 1503 521 1536 b 492 1546 501 1546 497 1546 b 396 1482 458 1546 418 1508 b 131 706 271 1344 131 1000 b 200 411 131 594 151 492 b 206 390 203 406 206 397 b 164 350 206 369 185 350 b 129 368 153 350 138 357 b 50 707 69 469 50 593 b 85 994 50 818 68 922 b 333 1536 133 1210 231 1422 b 490 1626 396 1606 450 1626 b 628 1329 596 1626 628 1506 b 471 118 628 1071 561 650 b 361 -664 415 -208 364 -518 b 321 -704 361 -685 342 -704 "},"J":{"ha":1113,"x_min":0,"x_max":0,"o":"m 219 -1128 b 97 -1037 185 -1128 135 -1110 b 50 -794 67 -979 50 -892 b 229 -222 50 -656 85 -437 b 738 257 343 -50 554 126 b 860 1183 817 654 860 924 b 754 1518 860 1415 824 1515 b 315 993 647 1518 485 1326 b 163 632 218 803 167 657 l 163 628 b 122 586 163 608 143 586 b 90 603 111 586 96 593 b 81 629 86 607 81 614 b 146 821 81 651 94 700 b 321 1174 175 889 236 1026 b 754 1600 482 1454 629 1600 b 940 1183 883 1592 940 1469 b 833 326 940 943 896 621 b 1129 507 1013 450 1110 507 b 1169 465 1151 507 1169 483 b 1149 431 1169 453 1161 438 b 810 210 1146 429 989 338 b 426 -954 707 -260 556 -731 b 222 -1128 361 -1068 290 -1128 m 221 -1047 b 710 136 350 -1047 558 -528 b 296 -268 569 31 394 -121 b 131 -797 176 -447 131 -643 b 169 -1001 131 -885 146 -956 b 221 -1047 182 -1024 199 -1046 "},"K":{"ha":1163,"x_min":0,"x_max":0,"o":"m 142 -808 b 97 -746 99 -808 97 -767 l 97 -715 b 147 189 97 -522 119 -171 b -62 267 71 236 -3 267 b -103 306 -87 267 -100 286 b -85 340 -103 319 -94 333 b 171 503 7 403 61 435 b 264 1536 215 1033 263 1526 b 304 1572 265 1556 286 1572 b 344 1532 326 1571 344 1553 b 257 557 344 1519 304 1126 b 1090 1543 590 769 1019 1088 b 1131 1578 1092 1561 1113 1578 b 1171 1536 1153 1576 1171 1561 l 1171 1532 b 250 457 1090 1026 613 686 b 232 233 243 383 238 304 b 1086 -424 543 32 968 -424 b 1125 -404 1093 -424 1097 -404 b 1165 -444 1147 -404 1165 -425 b 1086 -506 1165 -479 1125 -506 b 631 -190 997 -506 857 -387 b 225 140 497 -74 346 60 b 182 -546 206 -111 189 -369 b 217 -589 196 -546 217 -560 l 190 -749 b 142 -808 185 -772 176 -808 m 164 403 b 46 329 128 381 74 347 b 154 279 67 324 118 300 "},"L":{"ha":765,"x_min":0,"x_max":0,"o":"m 306 -671 b 132 -614 244 -671 183 -654 b 50 -235 97 -587 50 -515 b 114 606 54 10 65 194 b 272 1668 179 1140 271 1663 b 314 1700 276 1686 296 1700 b 353 1660 336 1699 353 1682 l 353 1653 b 194 596 351 1647 260 1129 b 132 -226 147 204 132 -54 b 183 -551 132 -475 163 -536 b 307 -590 218 -579 260 -590 b 906 -257 554 -590 901 -261 b 935 -244 913 -249 925 -244 b 975 -285 956 -244 975 -267 b 961 -314 975 -296 969 -307 b 306 -671 944 -332 589 -671 "},"M":{"ha":1951,"x_min":0,"x_max":0,"o":"m 369 629 b 408 783 379 661 388 692 b 768 1665 583 1532 694 1649 l 786 1668 b 1000 435 951 1668 981 1214 b 1018 -29 1006 260 1010 94 b 1039 -221 1026 -175 1038 -221 b 1113 -24 1039 -221 1067 -179 b 1238 461 1154 108 1196 289 b 1536 1249 1365 997 1433 1243 b 1586 1229 1554 1249 1572 1242 b 1650 742 1638 1179 1650 1008 l 1646 211 b 1650 -31 1646 125 1646 43 b 1693 -292 1661 -265 1689 -292 b 1735 -333 1717 -292 1733 -311 b 1692 -372 1735 -360 1714 -372 b 1565 217 1588 -372 1565 -186 l 1569 735 b 1565 957 1569 815 1568 890 b 1536 1165 1556 1138 1536 1165 b 1449 953 1536 1164 1507 1143 b 1318 443 1406 814 1361 625 b 1028 -314 1193 -76 1128 -314 b 919 433 947 -314 935 -153 b 886 1174 913 678 906 953 b 788 1588 854 1539 803 1588 b 613 1235 765 1583 713 1550 b 421 463 553 1047 489 786 b 221 -644 310 -71 228 -603 b 181 -682 221 -665 199 -682 b 140 -642 158 -682 140 -662 b 271 481 143 -593 219 -158 b 299 1071 292 725 299 919 b 175 1622 299 1586 219 1622 b 74 1563 138 1622 101 1592 b -129 1064 -43 1439 -129 1197 b -119 999 -129 1033 -124 1024 b -161 957 -119 976 -142 957 b -210 1063 -203 957 -210 1015 b 14 1617 -210 1224 -110 1486 b 176 1703 76 1683 133 1703 b 381 1068 335 1703 381 1458 b 369 629 381 861 372 665 "},"N":{"ha":1367,"x_min":0,"x_max":0,"o":"m 128 -682 b 88 -642 103 -682 88 -664 l 88 -637 b 232 465 88 -631 174 -92 b 286 1300 272 849 286 1115 b 203 1704 286 1642 253 1704 b -58 1028 119 1704 -58 1540 b -51 849 -58 968 -54 914 b -92 808 -51 826 -69 810 b -132 846 -110 808 -131 825 b -139 1028 -136 911 -139 971 b 204 1786 -139 1551 57 1786 b 286 1753 235 1786 265 1775 b 368 1294 322 1717 368 1629 b 304 375 367 986 332 624 l 317 421 l 346 529 b 936 1693 554 1307 746 1693 b 1107 1124 1065 1688 1107 1515 b 1067 -90 1107 781 1067 250 b 1110 -429 1068 -400 1104 -429 b 1151 -468 1132 -429 1150 -447 b 1108 -510 1151 -494 1131 -510 b 985 -86 1015 -510 985 -362 b 1025 1117 985 225 1025 743 b 1022 1272 1025 1171 1024 1224 b 936 1613 1010 1586 965 1611 b 425 510 853 1613 681 1465 b 168 -647 274 -61 168 -642 b 128 -682 164 -667 144 -682 "},"O":{"ha":1335,"x_min":0,"x_max":0,"o":"m 357 -603 b 194 -557 303 -603 246 -586 b -54 79 10 -451 -54 -196 b 44 739 -54 307 -11 550 b 339 1188 75 843 190 1188 b 383 1144 363 1188 383 1171 b 340 1106 382 1124 361 1106 l 338 1106 b 124 714 290 1106 200 975 b 26 83 63 510 26 286 b 233 -486 26 -182 88 -403 b 358 -521 275 -510 315 -521 b 1015 454 599 -521 863 -125 b 1110 1103 1078 690 1110 915 b 883 1579 1110 1413 1029 1579 b 624 1374 801 1579 714 1510 b 218 -44 383 1008 218 299 b 239 -196 218 -112 225 -164 l 242 -210 b 201 -251 242 -231 222 -251 b 164 -226 186 -251 169 -242 b 138 -39 146 -185 138 -119 b 556 1418 138 335 319 1058 b 883 1660 660 1576 772 1660 b 1140 1449 963 1660 1078 1622 b 1190 1104 1174 1360 1190 1240 b 1094 433 1190 908 1157 674 b 357 -603 929 -192 639 -603 "},"P":{"ha":1146,"x_min":0,"x_max":0,"o":"m -58 -964 b -103 -901 -101 -964 -103 -922 l -103 -876 b -46 -131 -103 -721 -81 -439 l -81 -133 b -121 -93 -100 -133 -119 -114 b -36 -49 -121 -44 -57 -53 b 325 1725 42 606 185 1610 b 369 1742 342 1738 357 1742 b 415 1701 393 1739 415 1729 b 374 1660 413 1679 399 1660 b 263 1322 369 1657 331 1622 b 118 524 214 1115 150 760 b 761 1656 215 814 485 1522 b 860 1679 794 1671 828 1679 b 1124 1290 1013 1679 1124 1518 b 728 318 1124 1000 972 610 b 38 -119 582 144 347 -64 b -15 -701 13 -343 -7 -557 b 17 -744 -4 -701 17 -715 l -10 -904 b -58 -964 -15 -928 -24 -964 m 47 -35 b 1042 1286 672 86 1042 872 b 858 1597 1042 1472 965 1597 b 797 1582 839 1597 819 1593 b 60 68 442 1411 64 79 l 60 67 b 47 -35 54 26 50 -12 "},"Q":{"ha":1396,"x_min":0,"x_max":0,"o":"m 1017 -706 b 644 -540 889 -706 778 -636 b 443 -604 583 -581 513 -604 b 132 -399 324 -604 192 -532 b -25 -600 86 -433 29 -503 b -61 -619 -33 -611 -47 -619 b -101 -579 -81 -619 -101 -600 b -96 -557 -101 -572 -99 -564 b 103 -318 -31 -447 39 -364 b 71 -58 81 -247 72 -169 b 169 553 71 118 106 333 b 597 1256 274 901 451 1256 b 640 1214 619 1256 640 1238 b 601 1174 639 1194 622 1174 l 597 1174 b 249 529 524 1174 363 915 b 151 -57 185 317 151 111 b 176 -276 153 -143 156 -206 b 289 -253 201 -264 244 -253 b 488 -325 354 -253 422 -276 l 611 -415 b 644 -439 625 -426 639 -436 b 1082 374 808 -310 974 -6 b 1188 1068 1151 619 1188 864 b 960 1579 1188 1363 1114 1558 b 903 1583 940 1582 922 1583 b 274 1147 693 1583 463 1426 b 44 542 132 936 44 697 b 68 431 44 494 51 458 b 72 411 71 425 72 417 b 32 369 72 392 54 369 b -3 390 19 369 4 378 b -36 543 -25 429 -36 482 b 544 1543 -36 844 226 1329 b 899 1665 663 1624 782 1665 b 969 1660 922 1665 946 1663 b 1269 1065 1174 1632 1269 1394 b 1160 353 1269 856 1232 606 b 713 -487 1050 -32 879 -349 b 1017 -625 825 -571 917 -625 b 1068 -621 1036 -625 1047 -622 b 1108 -661 1090 -621 1107 -639 b 1074 -701 1108 -679 1092 -699 b 1017 -706 1054 -704 1035 -706 m 444 -522 b 574 -487 492 -522 540 -508 b 289 -335 478 -419 392 -335 b 201 -354 257 -335 224 -342 b 315 -486 224 -404 260 -454 b 444 -522 358 -511 400 -522 "},"R":{"ha":1389,"x_min":0,"x_max":0,"o":"m 58 -819 b 14 -756 15 -819 15 -774 b 49 -226 14 -622 25 -457 l -79 -279 b -121 -239 -100 -283 -121 -257 b -53 -181 -121 -204 -76 -192 l 60 -122 b 263 1133 107 322 188 819 b 408 1494 338 1438 392 1481 b 456 1513 425 1508 443 1513 b 501 1469 479 1510 501 1500 b 461 1431 500 1449 483 1431 l 458 1432 b 356 1164 458 1431 421 1413 b 229 535 307 978 261 750 b 974 1508 347 821 657 1365 b 1143 1550 1040 1539 1097 1550 b 1331 1464 1240 1550 1300 1500 b 1404 1225 1379 1404 1404 1318 b 1247 778 1404 1085 1350 918 b 278 -92 935 339 489 36 l 318 -93 b 1128 -492 743 -93 968 -492 l 1157 -489 b 1199 -529 1182 -489 1196 -506 b 1167 -569 1199 -546 1185 -564 b 1129 -572 1154 -571 1140 -572 b 315 -174 908 -572 719 -174 b 132 -199 257 -174 193 -182 b 101 -556 118 -332 107 -462 b 133 -596 113 -556 133 -571 l 131 -628 b 107 -760 131 -628 117 -717 b 58 -819 103 -783 93 -819 m 146 -72 b 1322 1224 500 128 1322 706 b 1144 1469 1322 1381 1256 1469 b 1008 1435 1104 1469 1060 1458 b 172 138 638 1267 246 451 l 146 -72 "},"S":{"ha":1238,"x_min":0,"x_max":0,"o":"m 217 -935 b -8 -869 126 -935 43 -914 b -62 -744 -35 -846 -62 -804 b 581 43 -62 -533 254 -210 b 111 506 440 183 250 347 b -11 794 31 594 -11 693 b 15 936 -11 840 -3 889 b 865 1572 133 1275 639 1535 b 946 1579 893 1576 921 1579 b 1132 1508 1025 1579 1089 1554 b 1188 1329 1175 1457 1188 1389 b 1167 1182 1188 1253 1168 1188 b 1126 1153 1161 1165 1143 1153 b 1088 1193 1104 1156 1088 1171 b 1089 1206 1088 1197 1088 1203 b 1107 1329 1089 1206 1107 1265 b 1069 1454 1107 1375 1099 1422 b 949 1499 1044 1485 1006 1499 b 71 796 700 1499 71 1154 b 172 560 71 713 104 635 b 646 93 319 393 508 233 b 1222 481 926 304 1200 468 b 1244 486 1229 483 1238 486 b 1285 446 1265 486 1285 465 b 1265 410 1285 432 1276 418 b 703 33 1258 407 983 244 b 958 -443 844 -115 958 -276 b 597 -850 956 -604 833 -749 b 217 -935 481 -901 338 -935 m 217 -854 b 564 -776 318 -854 443 -828 b 878 -444 767 -689 876 -569 b 639 -17 878 -303 775 -160 b 19 -744 368 -225 19 -554 b 217 -854 19 -821 93 -854 "},"T":{"ha":732,"x_min":0,"x_max":0,"o":"m 207 -903 b 168 -850 185 -901 169 -879 l 167 -776 b 269 583 167 -510 208 36 b 378 1365 313 958 343 1160 b -560 1167 74 1303 -271 1229 b -608 1206 -583 1167 -606 1175 b -576 1247 -608 1224 -594 1242 b 393 1451 -483 1267 -46 1361 b 499 1718 443 1697 479 1710 b 567 1674 528 1731 568 1701 b 525 1633 567 1653 547 1635 b 481 1469 515 1617 499 1556 b 1460 1638 906 1554 1349 1638 b 1514 1597 1486 1636 1514 1632 b 1471 1556 1511 1575 1497 1556 l 1453 1557 b 464 1382 1361 1557 939 1479 b 251 -643 382 950 260 -172 b 260 -667 251 -657 254 -667 b 300 -719 288 -671 300 -686 b 281 -796 299 -736 290 -757 b 218 -903 261 -868 246 -900 "},"U":{"ha":1439,"x_min":0,"x_max":0,"o":"m 1129 -911 b 1081 -893 1111 -911 1093 -904 b 1015 -553 1049 -865 1015 -799 b 1192 1172 1015 -175 1114 668 b 1003 633 1178 1128 1096 879 b 249 -508 714 -135 465 -503 b 50 -1 103 -508 50 -294 b 99 615 50 233 81 490 b 169 1017 119 763 144 906 b 257 1221 214 1206 240 1214 b 317 1178 286 1231 321 1206 b 288 1138 317 1161 306 1138 b 163 475 265 1086 203 821 b 132 3 142 296 132 138 b 185 -374 132 -174 149 -303 b 251 -428 213 -426 239 -428 b 1281 1754 614 -428 1135 1210 b 1322 1785 1286 1772 1306 1785 b 1361 1744 1344 1783 1361 1765 l 1361 1739 b 1182 499 1360 1731 1258 1121 b 1096 -547 1121 1 1096 -335 b 1131 -829 1096 -789 1119 -824 l 1140 -828 b 1182 -867 1164 -828 1179 -844 b 1129 -911 1182 -894 1153 -911 "},"V":{"ha":1314,"x_min":0,"x_max":0,"o":"m 478 -643 b 282 408 325 -643 306 -256 b 236 1206 272 690 263 981 b 88 1593 193 1568 138 1593 b -25 1550 49 1593 7 1571 b -324 1118 -162 1458 -312 1242 b -364 1081 -325 1100 -343 1081 b -404 1121 -386 1082 -404 1100 l -404 1125 b 88 1674 -386 1336 -101 1674 b 140 1665 106 1674 124 1671 b 364 411 310 1610 339 1126 b 403 -287 372 147 382 -101 b 478 -562 432 -546 468 -562 b 708 -168 506 -562 572 -514 b 1281 1525 897 314 1108 1082 b 1518 1883 1375 1772 1447 1883 b 1565 1842 1543 1883 1565 1872 b 1524 1803 1564 1819 1546 1803 l 1517 1803 b 1354 1496 1510 1803 1468 1788 b 1090 707 1274 1286 1186 1006 b 478 -643 825 -128 649 -643 "},"W":{"ha":1753,"x_min":0,"x_max":0,"o":"m 192 -667 b 158 -658 179 -667 165 -662 b 58 -375 125 -646 76 -597 b 50 -133 53 -306 50 -225 b 226 1381 50 331 124 985 b 446 1750 292 1628 361 1750 b 492 1708 471 1749 492 1733 b 451 1668 490 1686 472 1668 l 446 1668 b 306 1360 435 1668 382 1653 b 132 -143 199 956 132 267 b 193 -585 132 -504 168 -581 l 199 -582 b 750 886 346 -511 608 333 b 790 917 754 903 772 917 b 831 876 811 915 831 899 b 808 368 831 868 808 701 b 924 -318 808 93 831 -208 b 990 -353 947 -347 961 -351 b 1172 -200 1060 -353 1126 -274 b 1565 1343 1396 143 1565 918 b 1528 1588 1565 1456 1553 1540 b 1499 1613 1515 1611 1507 1613 b 1458 1653 1478 1613 1458 1632 b 1499 1694 1458 1675 1478 1694 b 1600 1625 1526 1694 1569 1682 b 1646 1342 1633 1565 1646 1461 b 1583 757 1646 1167 1618 949 b 986 -435 1449 57 1217 -435 b 861 -371 936 -433 897 -412 b 726 379 751 -242 726 92 l 726 493 b 624 157 721 472 675 315 b 192 -667 428 -449 294 -667 "},"X":{"ha":1728,"x_min":0,"x_max":0,"o":"m -231 -961 b -271 -919 -254 -961 -271 -942 l -271 -914 b 426 468 -192 -560 44 -94 b 294 1063 374 711 343 876 b 43 1488 200 1419 111 1482 b -233 1213 -62 1488 -176 1306 b -274 1185 -243 1199 -251 1185 b -314 1226 -294 1185 -314 1206 b -307 1247 -314 1233 -311 1242 b 43 1568 -233 1360 -118 1568 b 374 1082 186 1558 285 1418 b 492 557 411 943 450 756 l 493 547 l 489 557 b 1524 1878 922 1192 1519 1872 b 1554 1892 1531 1886 1543 1892 b 1596 1851 1574 1892 1596 1874 b 1585 1825 1596 1843 1592 1832 b 781 826 1581 1819 1192 1382 b 514 450 683 696 593 568 b 669 -210 561 228 614 -15 b 851 -599 754 -510 815 -585 b 872 -601 858 -600 864 -601 b 1363 -114 939 -601 1079 -524 b 1713 454 1551 161 1711 451 b 1747 476 1719 467 1735 476 b 1789 436 1767 476 1789 457 b 1783 417 1789 429 1786 422 b 1428 -160 1782 414 1621 118 b 871 -683 1188 -508 1004 -683 b 451 357 693 -683 590 -300 b -190 -929 108 -156 -117 -603 b -231 -961 -194 -947 -212 -961 "},"Y":{"ha":1550,"x_min":0,"x_max":0,"o":"m 581 -1021 b 542 -1012 565 -1021 551 -1018 b 429 -761 471 -987 429 -890 b 1010 176 429 -469 604 -128 b 1225 1407 1114 672 1197 1211 b 944 863 1188 1328 1074 1093 b 272 97 657 350 436 97 b 50 532 128 97 53 258 b 189 1342 50 785 115 1144 b 283 1468 231 1457 257 1465 b 338 1417 301 1468 338 1449 b 297 1376 338 1396 315 1376 l 289 1376 l 290 1375 b 176 971 269 1344 218 1193 b 132 540 146 813 132 664 b 274 179 132 303 174 189 b 872 900 353 179 528 285 b 1267 1689 1089 1288 1265 1685 b 1306 1714 1272 1704 1290 1714 b 1344 1672 1328 1713 1344 1694 l 1344 1668 b 1107 247 1338 1619 1242 894 b 1544 493 1324 399 1542 492 b 1560 496 1550 496 1556 496 b 1601 456 1581 496 1601 475 b 1574 417 1601 440 1590 425 b 1115 154 1572 417 1353 324 b 1083 128 1104 146 1085 129 b 771 -871 993 -296 885 -683 b 581 -1021 697 -990 628 -1021 m 581 -939 b 701 -828 614 -939 657 -901 b 982 51 804 -660 903 -306 b 519 -657 796 -97 565 -347 b 511 -764 514 -696 511 -732 b 581 -939 511 -876 542 -939 "},"Z":{"ha":1193,"x_min":0,"x_max":0,"o":"m 104 -722 b 13 -604 78 -719 13 -699 b 731 208 17 -326 415 -3 l 731 217 b 518 421 731 372 646 421 b 204 350 372 421 207 353 l 190 347 b 147 389 167 347 147 369 b 164 421 147 400 154 414 b 1210 1592 176 429 1185 1194 b 990 1746 1210 1692 1110 1746 b 272 1458 817 1746 556 1644 b -128 1117 47 1313 -103 1174 b -164 1093 -135 1103 -150 1093 b -203 1150 -187 1088 -221 1122 b 992 1826 -121 1324 576 1826 b 1292 1592 1144 1826 1292 1742 l 1289 1557 b 379 489 1250 1228 610 675 b 517 501 382 489 450 501 b 810 261 672 501 806 428 b 1200 486 1036 408 1175 486 b 1239 444 1221 486 1239 464 b 1219 410 1239 432 1231 417 b 810 163 1215 407 1026 306 b 485 -487 789 -35 671 -285 b 118 -722 351 -632 210 -722 m 119 -642 b 717 100 249 -642 629 -310 l 719 113 l 718 100 b 94 -604 438 -92 97 -374 b 113 -642 94 -639 103 -640 l 119 -642 "},"[":{"ha":675,"x_min":0,"x_max":0,"o":"m 92 -786 b 50 -744 74 -786 50 -769 l 311 1699 b 351 1735 313 1719 333 1735 l 585 1732 b 625 1692 606 1732 625 1713 b 585 1651 625 1671 606 1651 l 388 1654 l 136 -699 l 304 -678 b 347 -718 325 -678 346 -696 b 311 -758 347 -736 331 -757 l 92 -786 "},"\\":{"ha":717,"x_min":0,"x_max":0,"o":"m 617 -849 b 582 -807 597 -844 582 -825 b 586 -753 583 -789 586 -776 b -131 1690 586 -292 -124 1669 b -133 1704 -133 1694 -133 1700 b -92 1744 -133 1728 -111 1744 b -56 1718 -78 1744 -61 1733 b 667 -758 -25 1635 667 -278 b 622 -849 667 -799 665 -849 "},"]":{"ha":701,"x_min":0,"x_max":0,"o":"m 90 -765 b 50 -724 68 -765 50 -743 b 92 -683 50 -703 72 -683 l 257 -689 l 565 1667 l 360 1671 b 319 1713 339 1671 319 1693 b 360 1753 319 1733 339 1753 l 613 1746 b 651 1706 631 1746 651 1726 l 333 -735 b 293 -771 332 -756 311 -771 "},"^":{"ha":603,"x_min":0,"x_max":0,"o":"m 90 1139 b 50 1181 69 1139 50 1163 b 58 1206 50 1189 53 1199 l 303 1514 b 338 1529 310 1522 324 1529 b 369 1510 349 1528 361 1521 b 550 1213 375 1500 526 1261 l 553 1199 b 514 1156 553 1172 538 1161 b 475 1179 497 1156 482 1165 b 331 1418 460 1211 372 1351 l 122 1154 b 90 1139 115 1146 101 1139 "},"_":{"ha":1188,"x_min":0,"x_max":0,"o":"m 90 -60 b 50 -18 68 -60 50 -37 b 90 21 50 3 71 21 l 985 -10 b 1024 -49 1004 -10 1024 -28 b 983 -90 1022 -68 1008 -90 "},"`":{"ha":325,"x_min":0,"x_max":0,"o":"m 235 1450 b 204 1464 224 1450 211 1456 l 60 1619 b 50 1646 54 1626 50 1638 b 92 1688 50 1667 71 1688 b 121 1674 101 1688 114 1682 l 265 1518 b 275 1490 271 1511 275 1500 b 235 1450 275 1474 258 1450 "},"a":{"ha":928,"x_min":0,"x_max":0,"o":"m 460 -160 b 335 29 386 -160 335 -97 b 419 485 335 182 394 406 b 361 406 419 485 392 449 b 4 64 150 117 57 64 l -10 65 b -82 189 -36 69 -82 99 b 153 746 -82 347 33 657 b 268 786 192 775 232 786 b 443 667 361 786 431 713 b 524 792 486 731 521 788 b 581 803 542 814 564 813 b 599 760 611 788 599 760 b 415 29 539 604 415 226 b 431 -61 415 -10 419 -40 b 449 -78 438 -75 443 -76 l 461 -79 b 919 499 578 -79 801 268 b 957 521 926 513 943 521 b 996 482 976 521 996 503 b 993 465 996 476 994 468 b 801 143 993 463 908 297 b 460 -160 665 -58 551 -160 m 6 146 b 296 453 21 146 88 169 b 368 557 321 488 346 522 b 376 593 374 567 376 579 b 335 679 376 624 363 656 b 269 706 322 690 300 706 b 200 681 249 706 226 700 b -1 193 103 608 -1 331 b 6 146 -1 174 3 146 "},"b":{"ha":942,"x_min":0,"x_max":0,"o":"m 64 -361 b 10 -340 40 -361 21 -353 b -14 -283 0 -332 -14 -312 b 29 -167 -14 -257 -3 -218 b 474 229 113 -36 296 108 b 499 399 489 286 499 344 b 364 617 499 504 464 617 b 293 592 342 617 319 608 b 17 125 143 496 24 163 l -37 -231 b -83 -265 -40 -254 -62 -265 b -118 -224 -103 -261 -118 -242 l -118 -219 b 86 1046 -64 135 7 613 b 200 1572 128 1269 167 1447 b 339 1838 261 1799 300 1838 b 381 1796 361 1838 381 1817 b 356 1760 381 1782 369 1764 b 275 1539 353 1757 326 1733 b 164 1017 243 1414 206 1238 b 67 450 126 808 89 583 b 364 697 114 542 233 697 b 579 401 489 697 579 579 b 571 293 579 358 574 311 b 960 519 753 413 944 511 b 978 524 965 522 972 524 b 1019 483 997 524 1019 504 b 996 447 1019 469 1011 454 b 542 176 993 446 768 326 b 210 -296 489 8 376 -172 b 64 -361 144 -344 97 -361 m 68 -281 l 64 -281 b 163 -231 75 -281 104 -274 b 425 96 292 -135 386 0 b 99 -211 306 13 165 -106 b 68 -282 72 -250 68 -272 "},"c":{"ha":911,"x_min":0,"x_max":0,"o":"m 150 -165 b -89 133 8 -165 -89 -51 b 136 767 -89 314 0 574 b 389 961 185 839 286 961 b 522 738 481 957 522 879 b 492 464 522 646 508 561 b 453 426 488 443 476 428 b 411 467 425 426 410 440 b 442 739 411 490 442 617 b 388 881 442 828 429 879 b 22 331 282 881 96 606 b -8 131 10 283 -8 207 b 150 -83 -8 13 36 -83 b 904 501 379 -83 763 325 b 936 515 913 510 925 515 b 976 475 956 515 976 496 b 967 449 976 467 972 457 b 639 104 965 447 821 267 b 150 -165 442 -74 276 -165 "},"d":{"ha":933,"x_min":0,"x_max":0,"o":"m 706 -939 b 656 -925 688 -939 668 -933 b 511 -189 557 -868 511 -599 b 603 975 511 211 554 697 b 403 483 603 975 564 865 b 10 -44 194 19 79 -44 b -89 39 -17 -44 -68 -29 b -100 128 -96 65 -100 96 b -47 403 -100 214 -75 319 b 269 776 33 632 154 776 b 403 692 335 776 390 729 b 731 1586 522 983 599 1183 b 804 1811 754 1669 778 1746 b 842 1836 810 1826 826 1836 b 882 1797 863 1836 882 1817 b 881 1783 882 1792 882 1786 b 874 1764 881 1783 879 1775 l 808 1560 b 592 -196 674 1074 592 319 b 706 -858 592 -607 643 -858 b 771 -810 725 -858 750 -835 b 803 -794 778 -801 792 -794 b 843 -836 824 -794 843 -817 b 833 -862 843 -844 839 -854 b 706 -939 783 -919 740 -939 m 11 38 b 340 543 44 38 139 90 b 346 585 343 557 346 571 b 268 694 346 647 313 694 b 208 671 251 694 231 688 b -19 126 93 586 -19 297 b -11 64 -19 101 -17 81 b 10 38 -3 38 4 38 l 11 38 "},"e":{"ha":810,"x_min":0,"x_max":0,"o":"m 135 -140 b -83 133 3 -140 -83 -40 b -64 304 -83 183 -76 240 b 301 832 14 668 174 832 b 426 706 376 829 424 781 b 386 601 426 668 413 631 b 72 485 304 510 121 489 b -1 132 33 386 -1 232 b 135 -60 -1 -42 82 -60 b 178 -54 153 -60 168 -57 b 801 501 424 3 797 497 b 833 517 808 511 822 517 b 874 476 853 517 874 496 b 865 453 874 468 871 458 b 135 -140 851 432 426 -140 m 110 572 b 325 656 164 578 278 601 b 346 707 339 672 346 688 b 307 750 346 735 333 749 b 110 572 256 750 178 711 "},"f":{"ha":456,"x_min":0,"x_max":0,"o":"m 29 -1022 b 3 -1012 19 -1022 10 -1018 b -72 -504 -57 -962 -72 -725 b -67 -253 -72 -414 -69 -325 b 50 868 -53 131 -10 544 l -160 868 b -200 908 -181 868 -200 888 b -160 950 -200 931 -181 950 l 65 950 b 458 1800 165 1465 296 1753 b 499 1806 472 1804 486 1806 b 571 1779 531 1806 556 1790 b 640 1514 625 1731 640 1621 b 615 1233 640 1386 619 1257 b 575 1200 613 1217 593 1200 b 535 1240 553 1201 535 1218 l 535 1246 b 558 1514 547 1321 558 1422 b 517 1717 558 1610 547 1690 b 499 1725 511 1722 508 1725 b 482 1721 494 1725 489 1724 b 156 988 363 1688 247 1429 l 147 950 l 464 950 b 504 908 485 950 504 931 b 464 868 504 888 485 868 l 132 868 b 10 -494 51 431 10 -112 b 56 -950 10 -800 36 -933 b 69 -982 64 -957 69 -971 b 29 -1022 69 -1000 49 -1022 "},"g":{"ha":1079,"x_min":0,"x_max":0,"o":"m 53 -1721 b -86 -1492 -33 -1721 -86 -1635 b -31 -1174 -86 -1404 -68 -1294 b 651 4 99 -756 403 -326 b 697 494 682 200 697 369 b 668 694 697 593 688 663 b 656 708 660 708 658 708 l 654 708 b 556 613 650 708 625 700 b 376 350 500 543 442 450 b -10 -81 204 86 90 -81 b -97 -1 -33 -81 -79 -68 b -106 79 -103 21 -106 49 b -47 397 -106 164 -85 279 b 165 756 -21 481 56 683 b 292 794 204 781 250 794 b 485 656 386 794 474 721 b 657 789 540 731 603 789 b 739 738 681 788 710 783 b 779 489 768 686 779 594 b 751 129 779 367 764 219 b 1075 504 918 339 1074 501 b 1106 518 1083 514 1096 518 b 1147 478 1126 518 1147 497 b 1135 450 1147 468 1143 457 b 729 -31 1131 446 947 249 b 424 -1251 643 -542 539 -969 b 53 -1721 303 -1549 165 -1721 m 50 -1639 b 349 -1221 106 -1639 219 -1537 b 626 -151 443 -987 556 -557 l 629 -140 l 626 -164 b 47 -1199 415 -444 157 -843 b -6 -1490 10 -1321 -6 -1417 b 50 -1639 -6 -1587 17 -1639 m -10 1 b 406 544 69 1 282 361 b 411 589 408 556 411 572 b 290 713 411 663 361 713 b 210 686 265 713 239 706 b -25 82 93 613 -25 264 b -10 1 -25 38 -21 1 "},"h":{"ha":1178,"x_min":0,"x_max":0,"o":"m -72 -522 b -114 -483 -96 -519 -110 -507 b 76 928 -114 -167 -62 240 b 236 1611 132 1190 185 1418 b 299 1818 264 1711 285 1781 b 335 1910 313 1857 325 1888 b 368 1957 346 1932 357 1947 b 397 1967 376 1964 388 1967 b 413 1965 403 1967 407 1967 b 440 1924 429 1960 438 1946 b 414 1886 440 1904 432 1892 l 401 1860 b 367 1767 393 1842 382 1811 b 313 1581 353 1722 335 1660 b 154 901 260 1386 207 1161 b -12 -106 58 431 3 94 b 153 313 21 7 75 146 b 474 686 272 561 379 686 b 497 683 482 686 489 685 b 581 604 535 674 563 647 b 625 454 597 561 613 511 b 671 293 636 396 653 342 b 750 201 690 244 717 214 b 775 199 758 200 767 199 b 893 242 810 199 850 213 b 1054 371 950 276 1003 319 b 1169 499 1104 421 1143 464 b 1201 513 1179 508 1190 513 b 1228 504 1210 513 1218 510 b 1242 474 1238 494 1242 483 b 1233 447 1242 465 1239 457 b 1208 418 1231 446 1224 436 b 1150 351 1194 400 1175 378 b 1064 268 1124 325 1096 297 b 775 117 951 167 854 117 b 728 122 758 117 743 118 b 604 244 671 143 629 183 b 544 435 579 304 558 368 b 515 549 536 476 525 515 b 481 604 504 582 493 600 l 474 606 b 388 543 454 606 425 585 b 226 276 342 494 288 406 b -32 -483 118 46 32 -207 b -72 -522 -33 -506 -47 -518 "},"i":{"ha":649,"x_min":0,"x_max":0,"o":"m 99 -150 b -61 118 -19 -150 -61 -24 b 35 665 -61 347 31 649 b 76 694 42 682 60 694 b 115 653 97 692 115 678 l 114 643 b 19 114 81 535 19 289 b 100 -69 19 1 42 -69 b 644 504 214 -69 492 278 b 678 522 651 515 667 522 b 718 481 700 522 718 500 b 711 457 718 474 717 465 b 481 151 710 456 606 303 b 99 -150 313 -49 186 -150 m 135 946 b 93 989 114 946 93 967 b 135 1031 93 1010 114 1031 b 178 989 157 1031 178 1010 b 135 946 178 967 157 946 "},"j":{"ha":428,"x_min":0,"x_max":0,"o":"m -594 -1792 b -742 -1554 -686 -1792 -742 -1690 b -706 -1310 -742 -1485 -729 -1400 b -50 -61 -578 -837 -278 -369 b -7 542 -19 214 -7 442 b -8 593 -7 571 -8 581 b 32 633 -8 618 11 632 b 75 540 68 633 75 604 b 44 65 75 443 64 250 b 422 504 238 315 421 501 b 451 517 429 513 442 517 b 492 475 471 517 492 496 b 482 449 492 467 488 456 b 29 -90 478 446 267 228 b -251 -1385 -18 -506 -94 -1003 b -594 -1792 -353 -1639 -483 -1792 m -596 -1710 b -325 -1356 -542 -1710 -435 -1624 b -69 -226 -196 -1035 -112 -574 b -626 -1331 -256 -489 -514 -910 b -661 -1557 -650 -1421 -661 -1496 b -610 -1707 -661 -1649 -639 -1697 l -596 -1710 m 11 981 b -31 1022 -11 981 -31 1001 b 11 1065 -31 1044 -11 1065 b 53 1022 33 1065 53 1044 b 11 981 53 1001 33 981 "},"k":{"ha":983,"x_min":0,"x_max":0,"o":"m -103 -860 b -137 -814 -108 -858 -137 -850 b 164 1581 -124 -226 58 1036 b 275 1956 232 1925 261 1946 b 304 1965 282 1961 293 1965 b 344 1922 326 1965 344 1946 b 322 1889 342 1906 335 1893 b 114 778 293 1839 211 1446 b 74 492 97 668 81 550 b 453 819 153 632 319 819 b 579 679 526 819 579 761 b 546 553 579 640 568 596 b 65 139 393 244 147 157 b 308 24 97 99 168 31 b 971 489 496 24 722 181 b 1003 503 979 497 992 503 b 1043 463 1024 503 1043 483 b 1035 436 1043 454 1040 444 b 308 -58 769 110 525 -58 b 18 67 146 -53 60 19 b -46 -608 -8 -167 -33 -418 b -46 -657 -47 -624 -46 -657 b -7 -699 -22 -658 -7 -678 l -8 -711 b -96 -861 -12 -715 -44 -861 m 118 410 b 39 217 57 306 39 217 b 474 589 104 231 335 304 b 497 678 492 625 497 654 b 451 739 497 722 481 739 b 118 410 361 739 213 571 "},"l":{"ha":775,"x_min":0,"x_max":0,"o":"m 40 -851 b -69 -758 8 -851 -42 -835 b -107 -458 -96 -690 -107 -583 b 19 663 -107 -104 -25 410 b 324 1854 113 1197 253 1790 b 360 1871 333 1864 347 1871 b 403 1829 381 1871 403 1851 b 374 1790 403 1811 386 1792 b 99 644 335 1739 211 1279 b -25 -458 17 179 -25 -206 b 40 -771 -25 -657 0 -771 b 465 -144 64 -771 167 -728 b 769 501 628 175 768 497 b 807 526 775 515 792 526 b 846 485 828 526 846 511 b 843 471 846 481 846 475 b 538 -181 842 467 701 140 b 40 -851 232 -779 106 -851 "},"m":{"ha":1467,"x_min":0,"x_max":0,"o":"m -29 -225 b -71 -178 -61 -225 -69 -204 b -28 318 -71 -90 -28 315 b 13 654 -18 414 -3 549 b 38 794 22 724 31 767 b 88 850 38 794 49 849 b 129 810 108 851 129 829 b 117 779 129 794 122 786 b 39 176 96 718 53 317 b 149 485 46 200 96 360 b 361 715 217 639 286 715 b 453 669 396 714 424 704 b 560 261 522 586 556 379 l 564 271 b 596 340 571 286 583 314 b 879 653 693 547 788 653 b 1038 415 988 653 1014 526 b 1132 219 1061 300 1076 226 b 1458 489 1203 219 1361 372 b 1490 503 1467 497 1479 503 b 1531 463 1510 503 1531 483 b 1521 436 1531 454 1526 444 b 1374 279 1518 433 1454 356 b 1131 139 1274 186 1193 139 b 881 571 924 139 985 568 b 556 18 774 571 626 243 b 515 -10 550 3 532 -10 b 475 31 493 -8 475 10 b 481 154 476 69 481 106 b 361 635 481 383 429 632 b 222 451 335 635 289 604 b 11 -194 136 249 68 -26 b -29 -225 1 -222 -25 -225 "},"n":{"ha":1068,"x_min":0,"x_max":0,"o":"m -33 -169 b -74 -122 -65 -169 -72 -144 b -24 369 -74 -37 -24 365 b 54 843 14 672 38 793 b 97 886 54 843 64 885 l 99 886 b 139 844 119 886 139 865 b 125 815 139 832 133 819 b 43 242 110 765 81 561 b 106 396 43 242 81 335 b 413 785 211 654 313 785 l 424 785 b 633 108 636 764 468 128 b 1056 489 728 108 939 336 b 1089 506 1063 500 1076 506 b 1129 465 1108 506 1129 485 b 1121 440 1129 458 1126 449 b 933 225 1117 436 1036 329 b 631 26 806 93 706 26 b 414 704 376 26 521 700 b 15 -117 374 704 238 643 l 8 -139 b -33 -169 -1 -167 -28 -169 "},"o":{"ha":890,"x_min":0,"x_max":0,"o":"m 94 -118 b -79 156 -19 -118 -79 -3 b 101 664 -79 338 -4 565 l 101 661 b 208 756 113 721 151 751 b 301 701 236 756 272 743 b 365 407 346 642 365 528 l 365 390 b 517 357 407 369 460 357 b 889 504 708 357 886 501 b 915 514 897 510 907 514 b 956 474 935 514 956 493 b 942 442 956 463 950 450 b 515 275 933 435 738 275 b 360 304 458 275 397 288 b 97 -118 342 79 246 -115 m 96 -36 b 283 344 201 -36 269 150 b 114 553 193 401 128 497 b 3 153 53 472 3 296 b 92 -36 3 39 31 -36 l 96 -36 m 285 443 b 236 656 283 522 267 611 b 208 674 224 671 217 674 l 204 674 b 181 633 196 672 181 669 b 285 443 181 574 225 489 "},"p":{"ha":838,"x_min":0,"x_max":0,"o":"m -122 -1237 b -158 -1249 -131 -1246 -147 -1250 b -194 -1203 -164 -1249 -194 -1240 b -64 115 -186 -850 -119 -283 l -87 114 b -129 154 -110 114 -129 133 b -89 196 -129 176 -110 196 l -53 197 b 74 950 -4 513 28 721 b 178 1281 135 1250 165 1271 b 207 1290 186 1288 197 1290 b 249 1249 229 1288 249 1275 b 225 1213 246 1231 239 1218 b 69 458 199 1172 132 869 b 593 1088 161 679 381 1088 b 788 835 704 1088 788 985 b 547 344 788 672 700 482 b 25 122 408 219 225 143 b 14 82 22 119 17 99 b -106 -1036 -37 -287 -89 -732 l -106 -1046 b -64 -1087 -82 -1050 -64 -1062 b -87 -1161 -67 -1103 -76 -1128 b -122 -1237 -99 -1194 -108 -1222 m 56 207 b 493 406 217 229 372 296 b 706 836 629 529 706 693 b 594 1007 706 944 657 1007 b 56 207 404 1007 150 468 "},"q":{"ha":908,"x_min":0,"x_max":0,"o":"m 247 -1400 b 211 -1383 235 -1400 219 -1392 b 194 -1304 206 -1375 194 -1362 b 338 -256 194 -1203 222 -944 b 485 579 397 99 461 451 b 363 406 476 567 421 486 b 6 64 151 117 58 64 l -8 65 b -81 189 -35 69 -81 99 b 154 746 -81 347 35 657 b 269 786 193 775 233 786 b 444 667 363 786 432 713 b 525 792 488 731 525 790 b 563 814 533 806 549 814 b 601 774 576 814 604 801 b 422 -246 601 763 556 556 b 279 -1211 311 -904 281 -1171 b 896 465 363 -1028 683 -142 b 935 493 901 482 915 496 b 974 453 958 490 976 475 b 414 -1090 972 435 646 -496 b 247 -1400 321 -1324 290 -1400 m 7 146 b 297 453 22 146 89 169 b 369 557 322 488 347 522 b 378 593 375 567 378 579 b 336 679 378 624 364 656 b 271 706 324 690 301 706 b 201 681 250 706 228 700 b 0 193 104 608 0 331 b 4 156 0 179 1 167 b 7 146 4 150 6 146 "},"r":{"ha":843,"x_min":0,"x_max":0,"o":"m 226 -456 b 113 -283 146 -456 113 -379 b 303 456 113 -62 256 331 b 60 424 222 436 133 424 b -204 613 -112 424 -204 500 b 76 926 -204 736 -67 926 b 154 885 119 926 143 903 b 171 813 165 865 171 839 b 82 506 171 711 108 561 b 358 554 132 506 226 518 l 367 556 b 410 514 388 556 410 536 l 407 500 b 193 -283 340 332 193 -85 b 206 -360 193 -317 197 -342 b 226 -375 213 -372 211 -372 b 575 25 254 -375 346 -336 b 833 476 714 244 832 474 b 869 499 840 490 856 499 b 910 457 889 499 910 479 b 904 438 910 451 908 444 b 644 -18 903 436 785 206 b 226 -456 410 -387 293 -456 m -6 510 b 90 813 38 603 88 742 b 76 844 92 843 76 844 b -103 692 18 847 -64 775 b -124 611 -112 671 -124 642 b -6 510 -124 569 -111 525 "},"s":{"ha":753,"x_min":0,"x_max":0,"o":"m 233 -319 b 158 -289 204 -319 176 -308 b 131 -217 147 -278 131 -253 b 208 -43 131 -176 149 -119 b 347 115 242 0 294 58 b 181 243 313 161 246 201 b -14 472 67 315 -7 363 b 406 850 -14 649 269 850 b 492 819 438 850 468 839 b 563 607 553 767 563 663 l 561 571 b 521 533 560 550 539 533 b 479 575 499 535 479 553 l 481 611 b 404 768 481 681 467 768 b 375 764 396 768 386 767 b 67 474 247 728 67 588 l 68 460 b 404 174 82 360 303 300 b 757 521 556 329 746 510 b 785 533 764 529 775 533 b 826 492 804 533 826 513 b 813 463 826 482 821 469 b 451 104 810 460 608 268 b 479 -10 465 76 479 35 b 233 -319 479 -168 331 -319 m 233 -237 b 278 -222 246 -237 261 -233 b 397 -11 314 -196 397 -111 b 389 40 397 17 393 29 b 271 -94 349 -3 301 -56 b 213 -215 228 -149 213 -189 b 233 -237 213 -233 215 -237 "},"t":{"ha":465,"x_min":0,"x_max":0,"o":"m -161 -1250 b -171 -1249 -164 -1250 -168 -1250 b -206 -1200 -175 -1249 -206 -1240 b 135 1350 -192 -729 -3 592 b -590 1250 -340 1293 -578 1250 b -631 1290 -612 1250 -629 1268 b -596 1331 -631 1308 -614 1329 b 149 1433 -567 1336 -232 1389 l 213 1776 b 347 2260 303 2228 332 2249 b 374 2268 354 2265 365 2268 b 415 2226 397 2267 415 2251 b 396 2193 413 2210 406 2199 b 233 1443 372 2154 313 1885 b 1092 1506 518 1475 844 1506 b 1440 1463 1247 1506 1374 1493 b 1464 1425 1453 1457 1464 1442 b 1422 1385 1458 1403 1450 1385 l 1408 1388 b 1094 1425 1350 1414 1239 1425 b 219 1360 850 1425 515 1394 b -115 -1040 103 715 -81 -500 l -115 -1046 b -75 -1087 -93 -1049 -75 -1061 l -76 -1096 b -99 -1161 -76 -1097 -86 -1131 b -161 -1250 -115 -1214 -129 -1250 "},"u":{"ha":1143,"x_min":0,"x_max":0,"o":"m 592 -392 b 453 -53 499 -383 453 -304 b 497 485 453 119 479 372 l 453 386 b 79 -104 310 60 185 -104 b -62 135 -21 -94 -62 -11 b 31 644 -62 336 18 604 b 71 672 38 667 54 674 b 108 621 121 668 108 621 b 18 129 76 519 18 289 b 81 -22 18 38 33 -19 b 379 419 115 -22 206 26 b 567 910 485 658 565 908 b 606 935 571 924 590 935 b 644 893 628 933 644 917 l 644 888 b 535 -57 606 685 535 235 b 572 -299 535 -174 546 -261 b 586 -310 579 -308 583 -308 b 1138 508 735 -310 986 149 b 1175 533 1143 524 1160 533 b 1215 494 1194 533 1215 515 b 1213 479 1215 489 1214 482 b 997 40 1213 478 1118 254 b 592 -392 836 -246 703 -392 "},"v":{"ha":972,"x_min":0,"x_max":0,"o":"m 107 -147 b 43 -87 65 -147 49 -100 b -10 500 6 10 -10 272 b 6 871 -10 649 -4 760 b 92 1082 26 1050 61 1082 b 132 1042 111 1082 132 1063 b 118 1010 132 1031 126 1018 b 72 490 97 992 74 844 b 114 -53 72 204 97 -18 b 314 339 121 -44 176 32 b 479 732 401 533 478 731 b 517 756 483 744 501 756 b 557 719 536 754 554 739 b 760 340 571 608 638 340 b 964 490 829 340 907 417 b 996 504 972 499 985 504 b 1038 464 1017 504 1038 485 b 1028 438 1038 456 1033 446 b 761 258 933 319 843 258 b 503 575 608 258 526 471 b 379 289 485 531 433 410 b 110 -147 232 -44 161 -144 "},"w":{"ha":1531,"x_min":0,"x_max":0,"o":"m 43 -267 b -64 -21 -14 -267 -64 -218 b 7 588 -64 119 -37 347 b 78 833 39 749 61 810 b 111 851 86 846 99 851 b 151 807 132 851 151 833 b 135 774 151 792 143 776 b 17 -21 108 700 17 246 b 43 -206 17 -126 38 -190 b 106 -114 51 -200 68 -186 b 315 563 181 31 269 343 b 356 594 319 579 339 594 b 396 563 374 594 392 579 b 649 35 425 414 531 35 b 974 788 756 35 899 471 b 1014 819 978 806 997 819 b 1053 785 1033 818 1051 801 b 1247 400 1054 781 1090 463 b 1303 390 1265 393 1283 390 b 1522 494 1365 390 1438 424 b 1549 504 1531 500 1540 504 b 1590 464 1568 504 1590 485 b 1575 432 1590 453 1583 439 b 1303 308 1478 350 1385 308 b 1010 603 1129 308 1036 500 b 946 393 1003 579 976 486 b 649 -47 839 79 747 -47 b 575 -26 624 -47 599 -40 b 357 379 464 42 383 281 b 92 -253 319 221 210 -182 b 43 -267 74 -262 57 -267 "},"x":{"ha":999,"x_min":0,"x_max":0,"o":"m -125 -394 b -165 -354 -144 -394 -165 -374 b -161 -336 -165 -349 -164 -342 b 92 117 -94 -187 -1 -25 b -31 665 6 350 -29 644 b 10 707 -31 685 -12 706 b 50 669 28 707 49 690 b 149 204 50 667 82 403 b 515 703 267 385 410 575 b 646 828 617 828 631 828 b 686 788 667 828 686 808 b 664 751 686 772 675 757 b 182 107 631 724 393 432 b 376 -121 236 -31 301 -121 b 999 515 626 -103 993 510 b 1032 535 1004 526 1019 535 b 1072 494 1051 535 1072 515 b 1067 472 1072 488 1071 479 b 400 -200 1051 447 678 -164 b 376 -201 392 -201 383 -201 b 129 25 271 -201 186 -106 b -87 -371 53 -96 -29 -239 b -125 -394 -94 -383 -110 -394 "},"y":{"ha":1115,"x_min":0,"x_max":0,"o":"m 133 -1596 b -12 -1360 51 -1596 -12 -1507 b 24 -1114 -12 -1289 0 -1206 b 651 28 147 -656 431 -242 b 749 953 704 431 739 819 b 81 -15 558 535 276 -15 b -44 210 -7 -15 -44 83 b -3 529 -44 335 -14 476 b 167 903 10 582 78 856 b 186 907 172 906 181 907 b 225 867 207 907 225 886 b 204 832 225 854 217 839 b 78 511 176 817 121 693 b 38 207 51 396 38 289 b 78 65 38 104 57 65 b 714 1071 276 99 593 807 l 753 1156 b 806 1210 767 1185 779 1210 b 846 1168 824 1207 846 1197 b 749 142 844 1128 813 654 b 1140 539 947 372 1139 538 b 1167 549 1149 544 1158 549 b 1208 507 1188 549 1208 528 b 1193 475 1208 497 1203 483 b 736 4 1190 474 976 293 b 729 -7 733 0 731 -6 b 478 -1189 671 -451 588 -924 b 133 -1596 375 -1443 246 -1596 m 133 -1514 b 403 -1160 186 -1514 293 -1428 b 631 -129 501 -917 579 -500 b 103 -1135 451 -357 211 -729 b 68 -1360 78 -1225 68 -1300 b 133 -1514 68 -1475 90 -1507 "},"z":{"ha":1225,"x_min":0,"x_max":0,"o":"m 119 -1289 b 7 -1128 47 -1289 7 -1228 b 64 -844 7 -1056 26 -960 b 793 172 210 -415 528 -64 b 571 350 769 325 660 350 b 396 335 506 350 443 335 b 306 397 356 335 306 353 b 429 536 307 438 336 463 b 654 786 522 608 644 706 l 656 806 b 557 906 656 871 621 906 b 438 872 522 906 482 894 b 92 514 303 807 165 617 l 58 468 b 26 451 53 458 38 451 b -14 492 7 451 -14 472 b -6 517 -14 500 -11 510 l 26 560 b 401 946 104 668 249 871 b 557 986 457 972 511 986 b 736 807 658 986 736 915 l 735 778 b 407 415 718 614 456 472 l 389 417 b 569 431 433 417 500 431 b 839 290 663 431 768 406 b 864 236 851 268 863 243 b 1225 511 1057 403 1224 510 b 1249 518 1233 515 1242 518 b 1289 478 1268 518 1289 497 b 1271 443 1289 465 1282 451 b 878 140 1267 442 1089 328 l 878 119 b 776 -340 878 -22 828 -199 b 414 -1047 688 -583 550 -854 b 119 -1289 308 -1201 200 -1289 m 119 -1207 b 349 -1001 158 -1207 239 -1158 b 796 67 582 -667 788 -167 b 143 -871 576 -136 274 -479 b 88 -1128 101 -992 88 -1074 b 119 -1207 88 -1190 99 -1207 "},"{":{"ha":972,"x_min":0,"x_max":0,"o":"m 501 -832 b 249 -471 318 -793 249 -658 b 403 404 249 -182 403 194 b 315 525 403 486 385 525 b 246 517 294 525 276 519 b 204 554 222 517 208 532 b 226 593 204 569 213 586 b 490 1196 472 721 482 958 b 883 1776 500 1431 513 1743 b 922 1736 908 1776 921 1756 b 888 1696 922 1718 906 1699 b 624 1531 749 1678 668 1628 b 381 599 511 1289 668 831 b 485 401 442 590 485 507 b 329 -471 485 175 329 -201 b 517 -751 329 -625 376 -724 b 549 -793 535 -756 549 -775 b 508 -832 547 -814 529 -832 "},"|":{"ha":615,"x_min":0,"x_max":0,"o":"m 201 -844 b 161 -811 183 -844 165 -829 b 149 -593 153 -758 149 -683 b 333 1432 149 -36 292 1124 b 394 1803 379 1783 389 1796 b 426 1819 401 1814 415 1819 b 467 1781 447 1819 467 1800 b 464 1764 467 1775 465 1768 b 318 613 453 1724 381 1207 b 231 -594 260 71 231 -344 b 242 -803 231 -699 238 -753 b 207 -844 242 -821 226 -840 "},"}":{"ha":767,"x_min":0,"x_max":0,"o":"m 90 -837 b 50 -797 69 -837 51 -821 b 86 -757 50 -779 67 -758 b 329 -424 276 -736 329 -614 b 258 267 329 -217 258 58 b 468 628 258 456 317 592 b 442 747 454 642 442 694 b 636 1543 442 964 636 1326 b 465 1697 636 1649 594 1697 l 415 1696 b 375 1738 394 1696 376 1714 b 411 1778 375 1756 392 1776 l 463 1781 b 717 1542 644 1781 717 1682 b 522 747 717 1306 522 943 b 585 643 522 690 536 656 b 615 603 603 638 615 619 b 576 563 614 582 597 563 b 340 268 392 554 340 453 b 410 -422 340 68 410 -200 b 94 -837 410 -649 326 -812 "},"~":{"ha":963,"x_min":0,"x_max":0,"o":"m 260 375 b 219 418 233 375 219 400 l 222 432 b 358 576 240 468 274 576 b 585 461 435 572 540 461 b 650 561 608 463 636 517 b 690 589 656 576 674 589 b 729 549 714 585 729 569 b 728 535 729 544 729 539 b 588 379 718 508 676 388 b 357 494 510 379 401 492 b 300 408 349 494 331 486 b 260 375 294 390 282 375 "},"":{"ha":628,"x_min":0,"x_max":0,"o":"m 189 -375 b 149 -332 169 -375 149 -354 l 151 -319 b 393 1265 174 -254 393 1115 l 393 1272 b 433 1314 393 1294 411 1314 b 475 1269 458 1314 475 1293 b 361 432 475 1169 388 606 b 225 -356 342 307 243 -324 b 189 -375 217 -367 201 -375 m 451 1518 b 408 1560 429 1518 408 1539 b 451 1603 408 1582 429 1603 b 493 1560 472 1603 493 1582 b 451 1518 493 1539 472 1518 "},"":{"ha":1149,"x_min":0,"x_max":0,"o":"m 479 -408 b 433 -376 458 -408 439 -397 b 428 -271 429 -354 428 -317 b 439 29 428 -187 433 -72 b 389 25 433 28 411 25 b 178 247 281 25 178 86 b 508 840 178 438 319 749 b 553 1178 524 1004 542 1153 b 589 1201 560 1190 575 1201 b 631 1160 608 1201 631 1183 b 592 871 624 1131 613 1078 b 622 872 593 871 601 871 b 707 836 665 872 692 851 b 738 738 731 808 738 769 b 726 661 738 700 728 667 b 688 631 724 644 704 631 b 646 672 665 635 646 649 b 656 739 649 692 656 710 b 644 782 656 758 653 774 b 621 790 642 786 638 790 b 582 783 603 790 596 788 b 528 139 564 592 542 339 b 863 360 647 183 793 296 b 890 369 869 365 881 369 b 931 329 911 369 931 347 b 917 299 931 318 925 306 b 522 50 904 288 708 110 b 508 -269 514 -74 508 -189 b 514 -367 508 -321 513 -344 b 479 -408 514 -385 499 -404 m 390 107 b 444 113 411 107 432 110 b 497 739 461 372 481 568 b 260 246 364 650 260 400 b 390 107 260 132 318 107 "},"":{"ha":1114,"x_min":0,"x_max":0,"o":"m 142 -211 b 79 -185 110 -211 88 -194 b 50 -107 60 -165 50 -136 b 78 -11 50 -76 60 -42 b 271 90 94 14 151 90 l 292 89 b 386 542 332 218 357 374 b 178 497 329 535 256 518 l 168 496 b 126 536 144 496 129 513 b 157 576 126 553 139 571 b 400 625 243 600 328 618 b 572 1194 439 839 488 1057 b 749 1331 629 1282 689 1331 b 903 1107 833 1329 903 1228 b 846 997 903 1064 888 997 b 806 1039 826 997 806 1019 b 821 1107 806 1060 821 1078 b 797 1207 821 1138 814 1175 b 750 1250 788 1224 771 1249 b 642 1151 732 1250 699 1239 b 485 632 564 1029 521 828 l 518 633 b 847 575 625 633 732 617 b 874 538 863 569 874 553 b 832 496 874 517 856 496 l 821 497 b 526 551 717 536 622 551 l 469 549 b 371 75 436 382 415 214 b 788 6 525 33 656 6 b 990 60 892 6 964 24 b 1022 76 997 71 1011 76 b 1064 35 1044 76 1064 56 b 1056 11 1064 28 1061 17 b 788 -76 1010 -51 907 -76 b 344 -1 658 -76 489 -50 b 213 -189 315 -83 271 -156 b 142 -211 186 -204 160 -211 m 142 -131 b 171 -118 151 -131 164 -124 b 263 10 211 -96 242 -46 b 147 -54 199 10 164 -28 b 132 -106 135 -74 132 -90 b 142 -131 132 -126 133 -131 "},"":{"ha":375,"x_min":0,"x_max":0,"o":"m 92 1508 b 50 1550 71 1508 50 1529 b 92 1593 50 1572 71 1593 b 135 1550 114 1593 135 1572 b 92 1508 135 1529 114 1508 m 283 1510 b 242 1551 261 1510 242 1531 b 283 1594 242 1574 261 1594 b 325 1551 306 1594 325 1574 b 283 1510 325 1531 306 1510 "},"":{"ha":1186,"x_min":0,"x_max":0,"o":"m 433 756 b 50 1157 224 756 50 925 b 536 1933 56 1504 399 1933 b 592 1888 563 1933 592 1915 b 553 1847 592 1868 574 1847 b 533 1851 539 1847 535 1851 b 396 1739 521 1851 474 1826 b 194 1419 315 1649 242 1532 b 132 1154 164 1349 132 1251 b 285 878 132 1049 168 947 b 435 838 332 849 382 838 b 792 981 560 838 690 901 b 1054 1415 929 1088 1054 1258 b 1043 1492 1054 1442 1051 1467 b 711 1768 990 1667 846 1768 b 615 1743 674 1768 642 1761 b 593 1738 608 1739 600 1738 b 553 1778 572 1738 553 1758 b 571 1813 553 1790 560 1804 b 711 1850 611 1838 660 1850 b 1121 1517 879 1850 1058 1724 b 1136 1414 1131 1483 1136 1449 b 843 917 1136 1231 997 1039 b 433 756 731 829 578 756 m 500 1093 b 381 1217 440 1093 381 1129 b 606 1524 381 1324 476 1518 b 681 1440 674 1524 681 1468 b 675 1396 681 1421 678 1404 b 636 1369 669 1378 653 1369 b 596 1413 617 1369 596 1389 b 599 1443 597 1428 599 1435 l 599 1447 b 603 1443 600 1447 601 1446 b 463 1215 529 1443 463 1283 b 500 1175 463 1176 478 1175 b 701 1285 564 1175 664 1250 b 728 1294 708 1290 719 1294 b 769 1254 749 1294 769 1274 b 756 1224 769 1243 764 1231 b 500 1093 739 1207 608 1093 "},"":{"ha":1186,"x_min":0,"x_max":0,"o":"m 433 756 b 50 1157 224 756 50 925 b 451 1922 56 1517 396 1915 b 483 1914 475 1918 483 1915 l 465 1914 b 394 1897 436 1914 418 1897 b 354 1939 375 1897 354 1918 b 464 1996 354 1982 418 1996 b 1136 1414 683 1996 1136 1721 b 843 917 1136 1231 997 1039 b 433 756 731 829 578 756 m 435 838 b 792 981 560 838 690 901 b 1054 1415 929 1088 1054 1258 b 600 1885 1054 1617 807 1810 b 590 1890 596 1888 590 1889 l 614 1886 b 593 1900 603 1896 596 1900 b 592 1894 592 1900 592 1897 l 592 1886 b 553 1847 592 1868 574 1847 b 535 1851 539 1847 535 1851 b 396 1739 522 1851 475 1826 b 194 1419 315 1649 242 1532 b 132 1154 164 1349 132 1251 b 285 878 132 1049 168 947 b 435 838 332 849 382 838 m 428 1010 b 389 1056 422 1010 389 1014 b 392 1133 389 1085 390 1113 b 357 1172 392 1133 357 1135 b 401 1221 357 1208 383 1213 b 417 1344 404 1257 411 1301 b 490 1597 453 1567 479 1589 b 522 1610 497 1604 510 1610 b 563 1567 544 1607 563 1592 b 542 1532 561 1550 553 1538 b 535 1518 539 1529 536 1518 l 539 1538 b 628 1606 540 1538 582 1585 b 679 1618 647 1614 665 1618 b 747 1586 715 1618 739 1596 b 771 1513 763 1567 771 1540 b 567 1229 771 1390 638 1279 b 667 1163 608 1219 653 1163 b 715 1122 696 1163 711 1151 b 667 1081 715 1093 692 1083 b 493 1160 600 1081 568 1160 l 475 1160 l 471 1115 b 478 1092 474 1113 478 1103 b 431 1010 478 1092 474 1011 m 486 1272 b 689 1511 543 1308 689 1426 b 679 1536 689 1532 688 1536 b 661 1532 674 1536 669 1535 b 486 1272 586 1497 486 1293 "},"":{"ha":401,"x_min":0,"x_max":0,"o":"m 196 1392 b 50 1538 118 1392 50 1456 b 211 1704 50 1638 114 1697 b 303 1672 244 1704 278 1692 b 351 1565 339 1644 349 1613 b 196 1392 351 1489 294 1392 m 206 1475 b 269 1567 258 1483 269 1531 b 211 1624 268 1604 250 1624 l 201 1622 b 131 1538 178 1619 131 1606 b 194 1474 131 1499 158 1474 "},"":{"ha":325,"x_min":0,"x_max":0,"o":"m 90 1450 b 50 1490 67 1450 50 1474 b 60 1518 50 1500 54 1511 l 204 1674 b 233 1688 211 1682 224 1688 b 275 1646 254 1688 275 1667 b 265 1619 275 1638 271 1626 l 121 1464 b 90 1450 114 1456 101 1450 "},"":{"ha":563,"x_min":0,"x_max":0,"o":"m 158 -1406 b 86 -1403 119 -1406 92 -1403 b 50 -1361 67 -1399 50 -1379 b 90 -1321 51 -1339 69 -1321 l 93 -1321 b 160 -1324 94 -1321 122 -1324 b 429 -1203 254 -1324 414 -1308 b 431 -1183 431 -1196 431 -1189 b 306 -1114 431 -1128 376 -1114 b 206 -1124 260 -1114 231 -1122 b 163 -1083 185 -1124 163 -1106 l 164 -1074 b 235 -821 192 -967 229 -835 b 271 -799 242 -807 257 -799 b 313 -840 290 -799 313 -819 b 258 -1035 307 -864 289 -924 b 307 -1032 258 -1033 282 -1032 b 469 -1081 361 -1032 428 -1042 b 513 -1183 497 -1106 513 -1142 l 510 -1214 b 158 -1406 486 -1382 269 -1406 "},"":{"ha":1038,"x_min":0,"x_max":0,"o":"m 229 -412 b -4 -174 88 -412 -4 -314 b 78 89 -4 -96 24 -4 b 647 1097 235 358 615 664 l 631 1068 b 594 1049 622 1057 607 1049 b 554 1089 575 1049 554 1069 b 560 1111 554 1096 557 1104 b 694 1271 626 1215 653 1271 b 736 1226 713 1268 736 1261 b 149 47 736 668 311 321 b 78 -174 101 -33 78 -110 b 231 -331 78 -271 126 -331 b 290 -324 250 -331 269 -328 b 668 138 479 -287 668 6 b 656 192 668 158 656 171 b 694 232 656 211 674 232 b 749 136 735 232 749 176 b 307 -404 749 -28 532 -358 b 229 -412 279 -410 254 -412 m 717 1494 b 675 1536 696 1494 675 1515 b 717 1579 675 1558 696 1579 b 760 1536 739 1579 760 1558 b 717 1494 760 1515 739 1494 "},"":{"ha":1390,"x_min":0,"x_max":0,"o":"m 949 -744 b 919 -731 939 -744 926 -737 b 853 -450 874 -683 853 -593 b 949 375 853 -244 899 56 b 357 274 743 347 540 315 b 110 -318 275 64 190 -149 b -208 -722 -12 -575 -112 -701 b -236 -725 -217 -724 -226 -725 b -336 -679 -264 -725 -301 -714 b -349 -650 -344 -672 -349 -660 b -307 -610 -349 -631 -328 -610 b -279 -622 -299 -610 -286 -614 b -236 -644 -260 -640 -249 -644 b 260 250 -92 -629 79 -215 b -3 171 183 231 89 203 b -18 167 -6 169 -11 167 b -58 206 -40 167 -54 182 b -31 246 -58 222 -47 240 b 296 343 76 285 188 317 b 350 482 314 385 332 433 b 988 1621 631 1217 800 1621 b 1140 1292 1094 1617 1140 1494 b 1046 468 1140 1075 1093 771 b 1296 499 1115 478 1204 488 l 1300 499 b 1340 458 1321 499 1339 481 b 1304 417 1340 440 1324 421 b 1033 385 1207 406 1114 396 b 935 -456 986 89 935 -239 b 979 -675 935 -565 947 -642 b 989 -703 985 -682 989 -693 b 949 -744 989 -724 968 -744 m 392 364 b 961 458 556 401 756 432 b 1060 1299 1008 754 1060 1081 b 983 1539 1060 1460 1038 1538 b 740 1221 942 1539 869 1485 b 425 454 640 1013 531 729 l 392 364 m 1015 1778 b 985 1792 1004 1778 992 1783 l 840 1947 b 831 1974 835 1954 831 1965 b 872 2015 831 1994 851 2015 b 901 2001 882 2015 894 2010 l 1046 1846 b 1056 1818 1051 1839 1056 1828 b 1015 1778 1056 1801 1039 1778 "},"":{"ha":1390,"x_min":0,"x_max":0,"o":"m 949 -744 b 919 -731 939 -744 926 -737 b 853 -450 874 -683 853 -593 b 949 375 853 -244 899 56 b 357 274 743 347 540 315 b 110 -318 275 64 190 -149 b -208 -722 -12 -575 -112 -701 b -236 -725 -217 -724 -226 -725 b -336 -679 -264 -725 -301 -714 b -349 -650 -344 -672 -349 -660 b -307 -610 -349 -631 -328 -610 b -279 -622 -299 -610 -286 -614 b -236 -644 -260 -640 -249 -644 b 260 250 -92 -629 79 -215 b -3 171 183 231 89 203 b -18 167 -6 169 -11 167 b -58 206 -40 167 -54 182 b -31 246 -58 222 -47 240 b 296 343 76 285 188 317 b 350 482 314 385 332 433 b 988 1621 631 1217 800 1621 b 1140 1292 1094 1617 1140 1494 b 1046 468 1140 1075 1093 771 b 1296 499 1115 478 1204 488 l 1300 499 b 1340 458 1321 499 1339 481 b 1304 417 1340 440 1324 421 b 1033 385 1207 406 1114 396 b 935 -456 986 89 935 -239 b 979 -675 935 -565 947 -642 b 989 -703 985 -682 989 -693 b 949 -744 989 -724 968 -744 m 392 364 b 961 458 556 401 756 432 b 1060 1299 1008 754 1060 1081 b 983 1539 1060 1460 1038 1538 b 740 1221 942 1539 869 1485 b 425 454 640 1013 531 729 l 392 364 m 1017 1768 b 976 1808 993 1768 976 1792 b 986 1836 976 1818 981 1829 l 1131 1992 b 1160 2006 1138 2000 1150 2006 b 1201 1964 1181 2006 1201 1985 b 1192 1938 1201 1956 1197 1944 l 1047 1782 b 1017 1768 1040 1774 1028 1768 "},"":{"ha":1390,"x_min":0,"x_max":0,"o":"m 949 -744 b 919 -731 939 -744 926 -737 b 853 -450 874 -683 853 -593 b 949 375 853 -244 899 56 b 357 274 743 347 540 315 b 110 -318 275 64 190 -149 b -208 -722 -12 -575 -112 -701 b -236 -725 -217 -724 -226 -725 b -336 -679 -264 -725 -301 -714 b -349 -650 -344 -672 -349 -660 b -307 -610 -349 -631 -328 -610 b -279 -622 -299 -610 -286 -614 b -236 -644 -260 -640 -249 -644 b 260 250 -92 -629 79 -215 b -3 171 183 231 89 203 b -18 167 -6 169 -11 167 b -58 206 -40 167 -54 182 b -31 246 -58 222 -47 240 b 296 343 76 285 188 317 b 350 482 314 385 332 433 b 988 1621 631 1217 800 1621 b 1140 1292 1094 1617 1140 1494 b 1046 468 1140 1075 1093 771 b 1296 499 1115 478 1204 488 l 1300 499 b 1340 458 1321 499 1339 481 b 1304 417 1340 440 1324 421 b 1033 385 1207 406 1114 396 b 935 -456 986 89 935 -239 b 979 -675 935 -565 947 -642 b 989 -703 985 -682 989 -693 b 949 -744 989 -724 968 -744 m 392 364 b 961 458 556 401 756 432 b 1060 1299 1008 754 1060 1081 b 983 1539 1060 1460 1038 1538 b 740 1221 942 1539 869 1485 b 425 454 640 1013 531 729 l 392 364 m 850 1782 b 810 1824 831 1782 810 1804 b 818 1849 810 1832 813 1842 l 1004 2082 b 1039 2097 1011 2090 1026 2097 b 1071 2076 1051 2096 1065 2089 l 1206 1867 b 1211 1844 1208 1860 1211 1851 b 1169 1804 1211 1825 1190 1804 b 1135 1822 1158 1804 1143 1811 l 1032 1986 l 882 1797 b 850 1782 875 1789 861 1782 "},"":{"ha":1390,"x_min":0,"x_max":0,"o":"m 949 -744 b 919 -731 939 -744 926 -737 b 853 -450 874 -683 853 -593 b 949 375 853 -244 899 56 b 357 274 743 347 540 315 b 110 -318 275 64 190 -149 b -208 -722 -12 -575 -112 -701 b -236 -725 -217 -724 -226 -725 b -336 -679 -264 -725 -301 -714 b -349 -650 -344 -672 -349 -660 b -307 -610 -349 -631 -328 -610 b -279 -622 -299 -610 -286 -614 b -236 -644 -260 -640 -249 -644 b 260 250 -92 -629 79 -215 b -3 171 183 231 89 203 b -18 167 -6 169 -11 167 b -58 206 -40 167 -54 182 b -31 246 -58 222 -47 240 b 296 343 76 285 188 317 b 350 482 314 385 332 433 b 988 1621 631 1217 800 1621 b 1140 1292 1094 1617 1140 1494 b 1046 468 1140 1075 1093 771 b 1296 499 1115 478 1204 488 l 1300 499 b 1340 458 1321 499 1339 481 b 1304 417 1340 440 1324 421 b 1033 385 1207 406 1114 396 b 935 -456 986 89 935 -239 b 979 -675 935 -565 947 -642 b 989 -703 985 -682 989 -693 b 949 -744 989 -724 968 -744 m 392 364 b 961 458 556 401 756 432 b 1060 1299 1008 754 1060 1081 b 983 1539 1060 1460 1038 1538 b 740 1221 942 1539 869 1485 b 425 454 640 1013 531 729 l 392 364 m 90 1479 b 50 1519 71 1479 50 1501 b 56 1540 50 1528 51 1535 b 164 1667 65 1574 97 1667 b 272 1608 203 1665 226 1644 b 333 1564 293 1592 326 1564 b 374 1647 342 1567 364 1608 b 414 1678 379 1665 397 1678 b 454 1636 436 1675 454 1660 l 453 1626 b 335 1483 442 1593 404 1483 b 161 1586 272 1483 193 1581 b 132 1514 164 1586 156 1585 b 90 1479 125 1496 114 1479 "},"":{"ha":1390,"x_min":0,"x_max":0,"o":"m 949 -744 b 919 -731 939 -744 926 -737 b 853 -450 874 -683 853 -593 b 949 375 853 -244 899 56 b 357 274 743 347 540 315 b 110 -318 275 64 190 -149 b -208 -722 -12 -575 -112 -701 b -236 -725 -217 -724 -226 -725 b -336 -679 -264 -725 -301 -714 b -349 -650 -344 -672 -349 -660 b -307 -610 -349 -631 -328 -610 b -279 -622 -299 -610 -286 -614 b -236 -644 -260 -640 -249 -644 b 260 250 -92 -629 79 -215 b -3 171 183 231 89 203 b -18 167 -6 169 -11 167 b -58 206 -40 167 -54 182 b -31 246 -58 222 -47 240 b 296 343 76 285 188 317 b 350 482 314 385 332 433 b 988 1621 631 1217 800 1621 b 1140 1292 1094 1617 1140 1494 b 1046 468 1140 1075 1093 771 b 1296 499 1115 478 1204 488 l 1300 499 b 1340 458 1321 499 1339 481 b 1304 417 1340 440 1324 421 b 1033 385 1207 406 1114 396 b 935 -456 986 89 935 -239 b 979 -675 935 -565 947 -642 b 989 -703 985 -682 989 -693 b 949 -744 989 -724 968 -744 m 392 364 b 961 458 556 401 756 432 b 1060 1299 1008 754 1060 1081 b 983 1539 1060 1460 1038 1538 b 740 1221 942 1539 869 1485 b 425 454 640 1013 531 729 l 392 364 m 938 1818 b 896 1860 917 1818 896 1839 b 938 1903 896 1882 917 1903 b 981 1860 960 1903 981 1882 b 938 1818 981 1839 960 1818 m 1129 1819 b 1088 1861 1107 1819 1088 1840 b 1129 1904 1088 1883 1107 1904 b 1171 1861 1151 1904 1171 1883 b 1129 1819 1171 1840 1151 1819 "},"":{"ha":1390,"x_min":0,"x_max":0,"o":"m 949 -744 b 919 -731 939 -744 926 -737 b 853 -450 874 -683 853 -593 b 949 375 853 -244 899 56 b 357 274 743 347 540 315 b 110 -318 275 64 190 -149 b -208 -722 -12 -575 -112 -701 b -236 -725 -217 -724 -226 -725 b -336 -679 -264 -725 -301 -714 b -349 -650 -344 -672 -349 -660 b -307 -610 -349 -631 -328 -610 b -279 -622 -299 -610 -286 -614 b -236 -644 -260 -640 -249 -644 b 260 250 -92 -629 79 -215 b -3 171 183 231 89 203 b -18 167 -6 169 -11 167 b -58 206 -40 167 -54 182 b -31 246 -58 222 -47 240 b 296 343 76 285 188 317 b 350 482 314 385 332 433 b 988 1621 631 1217 800 1621 b 1140 1292 1094 1617 1140 1494 b 1046 468 1140 1075 1093 771 b 1296 499 1115 478 1204 488 l 1300 499 b 1340 458 1321 499 1339 481 b 1304 417 1340 440 1324 421 b 1033 385 1207 406 1114 396 b 935 -456 986 89 935 -239 b 979 -675 935 -565 947 -642 b 989 -703 985 -682 989 -693 b 949 -744 989 -724 968 -744 m 392 364 b 961 458 556 401 756 432 b 1060 1299 1008 754 1060 1081 b 983 1539 1060 1460 1038 1538 b 740 1221 942 1539 869 1485 b 425 454 640 1013 531 729 l 392 364 m 1010 1806 b 864 1951 932 1806 864 1869 b 1025 2118 864 2051 928 2111 b 1117 2086 1058 2118 1092 2106 b 1165 1979 1153 2058 1163 2026 b 1010 1806 1165 1903 1108 1806 m 1019 1889 b 1083 1981 1072 1897 1083 1944 b 1025 2038 1082 2018 1064 2038 l 1015 2036 b 944 1951 992 2033 944 2019 b 1008 1888 944 1913 972 1888 "},"":{"ha":1296,"x_min":0,"x_max":0,"o":"m 325 -581 b -108 -37 71 -581 -108 -390 b 181 979 -108 242 1 633 b 638 1501 338 1288 510 1486 l 664 1503 b 793 1446 714 1503 758 1483 b 886 1057 864 1369 886 1217 b 824 489 886 796 826 508 b 783 457 818 472 801 457 b 743 499 763 460 743 474 l 743 504 b 804 1060 768 622 804 856 b 661 1422 804 1269 771 1422 b -26 -37 438 1410 -26 556 b 232 -486 -26 -229 25 -432 b 325 -499 264 -494 294 -499 b 1289 504 818 -499 1283 492 b 1325 526 1296 518 1311 526 b 1367 485 1344 526 1367 508 l 1364 472 b 1018 -100 1361 467 1224 171 b 325 -581 769 -428 539 -581 m 208 -1118 b 136 -1115 169 -1118 142 -1115 b 100 -1074 117 -1111 100 -1092 b 140 -1033 101 -1051 119 -1033 l 143 -1033 b 210 -1036 144 -1033 172 -1036 b 479 -915 304 -1036 464 -1021 b 481 -896 481 -908 481 -901 b 356 -826 481 -840 426 -826 b 256 -836 310 -826 281 -835 b 213 -796 235 -836 213 -818 l 214 -786 b 285 -533 242 -679 279 -547 b 321 -511 292 -519 307 -511 b 363 -553 340 -511 363 -532 b 308 -747 357 -576 339 -636 b 357 -744 308 -746 332 -744 b 519 -793 411 -744 478 -754 b 563 -896 547 -818 563 -854 l 560 -926 b 208 -1118 536 -1094 319 -1118 "},"":{"ha":1269,"x_min":0,"x_max":0,"o":"m 104 -711 b -176 -449 -67 -711 -174 -590 b 561 560 -176 -106 407 426 b -64 836 446 579 103 654 b -114 971 -97 872 -114 919 b 286 1503 -114 1125 38 1329 b 969 1789 496 1650 739 1751 b 1072 1799 1006 1794 1040 1799 b 1293 1706 1172 1799 1249 1767 b 1342 1535 1328 1658 1342 1597 b 1240 1158 1342 1363 1246 1168 b 1201 1135 1233 1144 1218 1135 b 1164 1176 1181 1140 1164 1150 b 1168 1194 1164 1182 1165 1189 b 1261 1533 1169 1197 1261 1383 b 1072 1717 1261 1646 1215 1717 b 981 1708 1044 1717 1015 1714 b -33 971 439 1621 -33 1200 b -3 890 -33 939 -24 913 b 661 626 185 686 656 628 b 696 589 681 624 693 608 b 681 556 696 576 689 563 b -94 -447 672 549 -94 -90 b 104 -629 -93 -549 -28 -629 b 343 -564 171 -629 250 -608 b 989 -12 656 -414 974 -74 b 986 6 989 -11 986 -1 b 1026 46 986 26 1008 46 b 1072 -8 1050 46 1072 19 b 844 -303 1068 -89 882 -268 b 104 -711 582 -550 299 -711 m 713 1881 b 682 1894 701 1881 689 1886 l 538 2050 b 528 2076 532 2057 528 2068 b 569 2118 528 2097 549 2118 b 599 2104 579 2118 592 2113 l 743 1949 b 753 1921 749 1942 753 1931 b 713 1881 753 1904 736 1881 "},"":{"ha":1269,"x_min":0,"x_max":0,"o":"m 104 -711 b -176 -449 -67 -711 -174 -590 b 561 560 -176 -106 407 426 b -64 836 446 579 103 654 b -114 971 -97 872 -114 919 b 286 1503 -114 1125 38 1329 b 969 1789 496 1650 739 1751 b 1072 1799 1006 1794 1040 1799 b 1293 1706 1172 1799 1249 1767 b 1342 1535 1328 1658 1342 1597 b 1240 1158 1342 1363 1246 1168 b 1201 1135 1233 1144 1218 1135 b 1164 1176 1181 1140 1164 1150 b 1168 1194 1164 1182 1165 1189 b 1261 1533 1169 1197 1261 1383 b 1072 1717 1261 1646 1215 1717 b 981 1708 1044 1717 1015 1714 b -33 971 439 1621 -33 1200 b -3 890 -33 939 -24 913 b 661 626 185 686 656 628 b 696 589 681 624 693 608 b 681 556 696 576 689 563 b -94 -447 672 549 -94 -90 b 104 -629 -93 -549 -28 -629 b 343 -564 171 -629 250 -608 b 989 -12 656 -414 974 -74 b 986 6 989 -11 986 -1 b 1026 46 986 26 1008 46 b 1072 -8 1050 46 1072 19 b 844 -303 1068 -89 882 -268 b 104 -711 582 -550 299 -711 m 714 1871 b 674 1911 690 1871 674 1894 b 683 1939 674 1921 678 1932 l 828 2094 b 857 2108 835 2103 847 2108 b 899 2067 878 2108 899 2088 b 889 2040 899 2058 894 2047 l 744 1885 b 714 1871 738 1876 725 1871 "},"":{"ha":1269,"x_min":0,"x_max":0,"o":"m 104 -711 b -176 -449 -67 -711 -174 -590 b 561 560 -176 -106 407 426 b -64 836 446 579 103 654 b -114 971 -97 872 -114 919 b 286 1503 -114 1125 38 1329 b 969 1789 496 1650 739 1751 b 1072 1799 1006 1794 1040 1799 b 1293 1706 1172 1799 1249 1767 b 1342 1535 1328 1658 1342 1597 b 1240 1158 1342 1363 1246 1168 b 1201 1135 1233 1144 1218 1135 b 1164 1176 1181 1140 1164 1150 b 1168 1194 1164 1182 1165 1189 b 1261 1533 1169 1197 1261 1383 b 1072 1717 1261 1646 1215 1717 b 981 1708 1044 1717 1015 1714 b -33 971 439 1621 -33 1200 b -3 890 -33 939 -24 913 b 661 626 185 686 656 628 b 696 589 681 624 693 608 b 681 556 696 576 689 563 b -94 -447 672 549 -94 -90 b 104 -629 -93 -549 -28 -629 b 343 -564 171 -629 250 -608 b 989 -12 656 -414 974 -74 b 986 6 989 -11 986 -1 b 1026 46 986 26 1008 46 b 1072 -8 1050 46 1072 19 b 844 -303 1068 -89 882 -268 b 104 -711 582 -550 299 -711 m 547 1885 b 507 1926 528 1885 507 1907 b 515 1951 507 1935 510 1944 l 701 2185 b 736 2200 708 2193 724 2200 b 768 2179 749 2199 763 2192 l 903 1969 b 908 1947 906 1963 908 1954 b 867 1907 908 1928 888 1907 b 832 1925 856 1907 840 1914 l 729 2089 l 579 1900 b 547 1885 572 1892 558 1885 "},"":{"ha":1269,"x_min":0,"x_max":0,"o":"m 104 -711 b -176 -449 -67 -711 -174 -590 b 561 560 -176 -106 407 426 b -64 836 446 579 103 654 b -114 971 -97 872 -114 919 b 286 1503 -114 1125 38 1329 b 969 1789 496 1650 739 1751 b 1072 1799 1006 1794 1040 1799 b 1293 1706 1172 1799 1249 1767 b 1342 1535 1328 1658 1342 1597 b 1240 1158 1342 1363 1246 1168 b 1201 1135 1233 1144 1218 1135 b 1164 1176 1181 1140 1164 1150 b 1168 1194 1164 1182 1165 1189 b 1261 1533 1169 1197 1261 1383 b 1072 1717 1261 1646 1215 1717 b 981 1708 1044 1717 1015 1714 b -33 971 439 1621 -33 1200 b -3 890 -33 939 -24 913 b 661 626 185 686 656 628 b 696 589 681 624 693 608 b 681 556 696 576 689 563 b -94 -447 672 549 -94 -90 b 104 -629 -93 -549 -28 -629 b 343 -564 171 -629 250 -608 b 989 -12 656 -414 974 -74 b 986 6 989 -11 986 -1 b 1026 46 986 26 1008 46 b 1072 -8 1050 46 1072 19 b 844 -303 1068 -89 882 -268 b 104 -711 582 -550 299 -711 m 635 1921 b 593 1963 614 1921 593 1942 b 635 2006 593 1985 614 2006 b 678 1963 657 2006 678 1985 b 635 1921 678 1942 657 1921 m 826 1922 b 785 1964 804 1922 785 1943 b 826 2007 785 1986 804 2007 b 868 1964 849 2007 868 1986 b 826 1922 868 1943 849 1922 "},"":{"ha":760,"x_min":0,"x_max":0,"o":"m 319 -704 b 279 -664 299 -704 279 -685 b 531 1069 285 -362 474 499 b 546 1332 542 1181 546 1267 b 506 1543 546 1503 521 1536 b 492 1546 501 1546 497 1546 b 396 1482 458 1546 418 1508 b 131 706 271 1344 131 1000 b 200 411 131 594 151 492 b 206 390 203 406 206 397 b 164 350 206 369 185 350 b 129 368 153 350 138 357 b 50 707 69 469 50 593 b 85 994 50 818 68 922 b 333 1536 133 1210 231 1422 b 490 1626 396 1606 450 1626 b 628 1329 596 1626 628 1506 b 471 118 628 1071 561 650 b 361 -664 415 -208 364 -518 b 321 -704 361 -685 342 -704 m 476 1785 b 446 1799 465 1785 453 1790 l 301 1954 b 292 1981 296 1961 292 1972 b 333 2022 292 2001 313 2022 b 363 2008 343 2022 356 2017 l 507 1853 b 517 1825 513 1846 517 1835 b 476 1785 517 1808 500 1785 "},"":{"ha":760,"x_min":0,"x_max":0,"o":"m 319 -704 b 279 -664 299 -704 279 -685 b 531 1069 285 -362 474 499 b 546 1332 542 1181 546 1267 b 506 1543 546 1503 521 1536 b 492 1546 501 1546 497 1546 b 396 1482 458 1546 418 1508 b 131 706 271 1344 131 1000 b 200 411 131 594 151 492 b 206 390 203 406 206 397 b 164 350 206 369 185 350 b 129 368 153 350 138 357 b 50 707 69 469 50 593 b 85 994 50 818 68 922 b 333 1536 133 1210 231 1422 b 490 1626 396 1606 450 1626 b 628 1329 596 1626 628 1506 b 471 118 628 1071 561 650 b 361 -664 415 -208 364 -518 b 321 -704 361 -685 342 -704 m 478 1775 b 438 1815 454 1775 438 1799 b 447 1843 438 1825 442 1836 l 592 1999 b 621 2013 599 2007 611 2013 b 663 1971 642 2013 663 1992 b 653 1944 663 1963 658 1951 l 508 1789 b 478 1775 501 1781 489 1775 "},"":{"ha":760,"x_min":0,"x_max":0,"o":"m 319 -704 b 279 -664 299 -704 279 -685 b 531 1069 285 -362 474 499 b 546 1332 542 1181 546 1267 b 506 1543 546 1503 521 1536 b 492 1546 501 1546 497 1546 b 396 1482 458 1546 418 1508 b 131 706 271 1344 131 1000 b 200 411 131 594 151 492 b 206 390 203 406 206 397 b 164 350 206 369 185 350 b 129 368 153 350 138 357 b 50 707 69 469 50 593 b 85 994 50 818 68 922 b 333 1536 133 1210 231 1422 b 490 1626 396 1606 450 1626 b 628 1329 596 1626 628 1506 b 471 118 628 1071 561 650 b 361 -664 415 -208 364 -518 b 321 -704 361 -685 342 -704 m 311 1789 b 271 1831 292 1789 271 1811 b 279 1856 271 1839 274 1849 l 465 2089 b 500 2104 472 2097 488 2104 b 532 2083 513 2103 526 2096 l 667 1874 b 672 1851 669 1867 672 1858 b 631 1811 672 1832 651 1811 b 596 1829 619 1811 604 1818 l 493 1993 l 343 1804 b 311 1789 336 1796 322 1789 "},"":{"ha":760,"x_min":0,"x_max":0,"o":"m 319 -704 b 279 -664 299 -704 279 -685 b 531 1069 285 -362 474 499 b 546 1332 542 1181 546 1267 b 506 1543 546 1503 521 1536 b 492 1546 501 1546 497 1546 b 396 1482 458 1546 418 1508 b 131 706 271 1344 131 1000 b 200 411 131 594 151 492 b 206 390 203 406 206 397 b 164 350 206 369 185 350 b 129 368 153 350 138 357 b 50 707 69 469 50 593 b 85 994 50 818 68 922 b 333 1536 133 1210 231 1422 b 490 1626 396 1606 450 1626 b 628 1329 596 1626 628 1506 b 471 118 628 1071 561 650 b 361 -664 415 -208 364 -518 b 321 -704 361 -685 342 -704 m 399 1825 b 357 1867 378 1825 357 1846 b 399 1910 357 1889 378 1910 b 442 1867 421 1910 442 1889 b 399 1825 442 1846 421 1825 m 590 1826 b 549 1868 568 1826 549 1847 b 590 1911 549 1890 568 1911 b 632 1868 613 1911 632 1890 b 590 1826 632 1847 613 1826 "},"":{"ha":1367,"x_min":0,"x_max":0,"o":"m 128 -682 b 88 -642 103 -682 88 -664 l 88 -637 b 232 465 88 -631 174 -92 b 286 1300 272 849 286 1115 b 203 1704 286 1642 253 1704 b -58 1028 119 1704 -58 1540 b -51 849 -58 968 -54 914 b -92 808 -51 826 -69 810 b -132 846 -110 808 -131 825 b -139 1028 -136 911 -139 971 b 204 1786 -139 1551 57 1786 b 286 1753 235 1786 265 1775 b 368 1294 322 1717 368 1629 b 304 375 367 986 332 624 l 317 421 l 346 529 b 936 1693 554 1307 746 1693 b 1107 1124 1065 1688 1107 1515 b 1067 -90 1107 781 1067 250 b 1110 -429 1068 -400 1104 -429 b 1151 -468 1132 -429 1150 -447 b 1108 -510 1151 -494 1131 -510 b 985 -86 1015 -510 985 -362 b 1025 1117 985 225 1025 743 b 1022 1272 1025 1171 1024 1224 b 936 1613 1010 1586 965 1611 b 425 510 853 1613 681 1465 b 168 -647 274 -61 168 -642 b 128 -682 164 -667 144 -682 m 90 1479 b 50 1519 71 1479 50 1501 b 56 1540 50 1528 51 1535 b 164 1667 65 1574 97 1667 b 272 1608 203 1665 226 1644 b 333 1564 293 1592 326 1564 b 374 1647 342 1567 364 1608 b 414 1678 379 1665 397 1678 b 454 1636 436 1675 454 1660 l 453 1626 b 335 1483 442 1593 404 1483 b 161 1586 272 1483 193 1581 b 132 1514 164 1586 156 1585 b 90 1479 125 1496 114 1479 "},"":{"ha":1335,"x_min":0,"x_max":0,"o":"m 357 -603 b 194 -557 303 -603 246 -586 b -54 79 10 -451 -54 -196 b 44 739 -54 307 -11 550 b 339 1188 75 843 190 1188 b 383 1144 363 1188 383 1171 b 340 1106 382 1124 361 1106 l 338 1106 b 124 714 290 1106 200 975 b 26 83 63 510 26 286 b 233 -486 26 -182 88 -403 b 358 -521 275 -510 315 -521 b 1015 454 599 -521 863 -125 b 1110 1103 1078 690 1110 915 b 883 1579 1110 1413 1029 1579 b 624 1374 801 1579 714 1510 b 218 -44 383 1008 218 299 b 239 -196 218 -112 225 -164 l 242 -210 b 201 -251 242 -231 222 -251 b 164 -226 186 -251 169 -242 b 138 -39 146 -185 138 -119 b 556 1418 138 335 319 1058 b 883 1660 660 1576 772 1660 b 1140 1449 963 1660 1078 1622 b 1190 1104 1174 1360 1190 1240 b 1094 433 1190 908 1157 674 b 357 -603 929 -192 639 -603 m 851 1796 b 821 1810 840 1796 828 1801 l 676 1965 b 667 1992 671 1972 667 1983 b 708 2033 667 2013 688 2033 b 738 2019 718 2033 731 2028 l 882 1864 b 892 1836 888 1857 892 1846 b 851 1796 892 1819 875 1796 "},"":{"ha":1335,"x_min":0,"x_max":0,"o":"m 357 -603 b 194 -557 303 -603 246 -586 b -54 79 10 -451 -54 -196 b 44 739 -54 307 -11 550 b 339 1188 75 843 190 1188 b 383 1144 363 1188 383 1171 b 340 1106 382 1124 361 1106 l 338 1106 b 124 714 290 1106 200 975 b 26 83 63 510 26 286 b 233 -486 26 -182 88 -403 b 358 -521 275 -510 315 -521 b 1015 454 599 -521 863 -125 b 1110 1103 1078 690 1110 915 b 883 1579 1110 1413 1029 1579 b 624 1374 801 1579 714 1510 b 218 -44 383 1008 218 299 b 239 -196 218 -112 225 -164 l 242 -210 b 201 -251 242 -231 222 -251 b 164 -226 186 -251 169 -242 b 138 -39 146 -185 138 -119 b 556 1418 138 335 319 1058 b 883 1660 660 1576 772 1660 b 1140 1449 963 1660 1078 1622 b 1190 1104 1174 1360 1190 1240 b 1094 433 1190 908 1157 674 b 357 -603 929 -192 639 -603 m 853 1786 b 813 1826 829 1786 813 1810 b 822 1854 813 1836 817 1847 l 967 2010 b 996 2024 974 2018 986 2024 b 1038 1982 1017 2024 1038 2003 b 1028 1956 1038 1974 1033 1963 l 883 1800 b 853 1786 876 1792 864 1786 "},"":{"ha":1335,"x_min":0,"x_max":0,"o":"m 357 -603 b 194 -557 303 -603 246 -586 b -54 79 10 -451 -54 -196 b 44 739 -54 307 -11 550 b 339 1188 75 843 190 1188 b 383 1144 363 1188 383 1171 b 340 1106 382 1124 361 1106 l 338 1106 b 124 714 290 1106 200 975 b 26 83 63 510 26 286 b 233 -486 26 -182 88 -403 b 358 -521 275 -510 315 -521 b 1015 454 599 -521 863 -125 b 1110 1103 1078 690 1110 915 b 883 1579 1110 1413 1029 1579 b 624 1374 801 1579 714 1510 b 218 -44 383 1008 218 299 b 239 -196 218 -112 225 -164 l 242 -210 b 201 -251 242 -231 222 -251 b 164 -226 186 -251 169 -242 b 138 -39 146 -185 138 -119 b 556 1418 138 335 319 1058 b 883 1660 660 1576 772 1660 b 1140 1449 963 1660 1078 1622 b 1190 1104 1174 1360 1190 1240 b 1094 433 1190 908 1157 674 b 357 -603 929 -192 639 -603 m 686 1800 b 646 1842 667 1800 646 1822 b 654 1867 646 1850 649 1860 l 840 2100 b 875 2115 847 2108 863 2115 b 907 2094 888 2114 901 2107 l 1042 1885 b 1047 1863 1044 1878 1047 1869 b 1006 1822 1047 1843 1026 1822 b 971 1840 994 1822 979 1829 l 868 2004 l 718 1815 b 686 1800 711 1807 697 1800 "},"":{"ha":1335,"x_min":0,"x_max":0,"o":"m 357 -603 b 194 -557 303 -603 246 -586 b -54 79 10 -451 -54 -196 b 44 739 -54 307 -11 550 b 339 1188 75 843 190 1188 b 383 1144 363 1188 383 1171 b 340 1106 382 1124 361 1106 l 338 1106 b 124 714 290 1106 200 975 b 26 83 63 510 26 286 b 233 -486 26 -182 88 -403 b 358 -521 275 -510 315 -521 b 1015 454 599 -521 863 -125 b 1110 1103 1078 690 1110 915 b 883 1579 1110 1413 1029 1579 b 624 1374 801 1579 714 1510 b 218 -44 383 1008 218 299 b 239 -196 218 -112 225 -164 l 242 -210 b 201 -251 242 -231 222 -251 b 164 -226 186 -251 169 -242 b 138 -39 146 -185 138 -119 b 556 1418 138 335 319 1058 b 883 1660 660 1576 772 1660 b 1140 1449 963 1660 1078 1622 b 1190 1104 1174 1360 1190 1240 b 1094 433 1190 908 1157 674 b 357 -603 929 -192 639 -603 m 90 1479 b 50 1519 71 1479 50 1501 b 56 1540 50 1528 51 1535 b 164 1667 65 1574 97 1667 b 272 1608 203 1665 226 1644 b 333 1564 293 1592 326 1564 b 374 1647 342 1567 364 1608 b 414 1678 379 1665 397 1678 b 454 1636 436 1675 454 1660 l 453 1626 b 335 1483 442 1593 404 1483 b 161 1586 272 1483 193 1581 b 132 1514 164 1586 156 1585 b 90 1479 125 1496 114 1479 "},"":{"ha":1335,"x_min":0,"x_max":0,"o":"m 357 -603 b 194 -557 303 -603 246 -586 b -54 79 10 -451 -54 -196 b 44 739 -54 307 -11 550 b 339 1188 75 843 190 1188 b 383 1144 363 1188 383 1171 b 340 1106 382 1124 361 1106 l 338 1106 b 124 714 290 1106 200 975 b 26 83 63 510 26 286 b 233 -486 26 -182 88 -403 b 358 -521 275 -510 315 -521 b 1015 454 599 -521 863 -125 b 1110 1103 1078 690 1110 915 b 883 1579 1110 1413 1029 1579 b 624 1374 801 1579 714 1510 b 218 -44 383 1008 218 299 b 239 -196 218 -112 225 -164 l 242 -210 b 201 -251 242 -231 222 -251 b 164 -226 186 -251 169 -242 b 138 -39 146 -185 138 -119 b 556 1418 138 335 319 1058 b 883 1660 660 1576 772 1660 b 1140 1449 963 1660 1078 1622 b 1190 1104 1174 1360 1190 1240 b 1094 433 1190 908 1157 674 b 357 -603 929 -192 639 -603 m 774 1836 b 732 1878 753 1836 732 1857 b 774 1921 732 1900 753 1921 b 817 1878 796 1921 817 1900 b 774 1836 817 1857 796 1836 m 965 1838 b 924 1879 943 1838 924 1858 b 965 1922 924 1901 943 1922 b 1007 1879 988 1922 1007 1901 b 965 1838 1007 1858 988 1838 "},"":{"ha":854,"x_min":0,"x_max":0,"o":"m 264 303 b 224 344 244 303 224 325 b 238 375 224 354 229 367 l 360 483 l 224 575 b 206 608 213 582 206 597 b 247 649 206 631 228 649 b 268 642 253 649 263 646 l 424 539 l 564 663 b 590 672 571 668 582 672 b 632 631 611 672 632 651 b 618 600 632 621 626 608 l 494 492 l 631 401 b 649 367 642 394 649 379 b 608 326 649 346 629 326 b 585 335 601 326 590 329 l 431 438 l 292 313 b 264 303 283 307 274 303 "},"":{"ha":1335,"x_min":0,"x_max":0,"o":"m 357 -603 b 11 -331 211 -603 74 -497 b -50 -67 -26 -229 -47 -142 l -54 83 b 44 739 -54 307 -10 554 b 346 1188 76 850 182 1185 b 383 1143 369 1183 382 1169 b 340 1106 379 1119 365 1107 l 338 1106 b 124 714 293 1106 204 983 b 39 313 75 553 47 419 b 26 86 31 207 26 131 b 181 -446 26 -182 78 -358 b 751 833 239 -226 429 200 b 957 1244 899 1129 901 1142 l 1058 1436 b 883 1579 1021 1532 963 1579 b 378 815 708 1579 511 1250 b 218 -40 243 379 218 90 b 238 -196 218 -108 225 -160 b 242 -212 240 -201 242 -207 b 201 -251 242 -235 228 -247 b 164 -228 185 -251 172 -243 b 136 -33 146 -179 136 -114 b 556 1418 136 324 303 1022 b 883 1660 664 1579 772 1660 b 1140 1449 967 1660 1076 1625 b 1190 1104 1174 1357 1190 1242 b 1094 433 1190 903 1158 679 b 357 -603 921 -190 649 -603 m 358 -522 b 1015 454 613 -522 864 -96 b 1110 1106 1078 693 1110 910 b 1089 1336 1110 1207 1103 1283 b 813 776 1033 1224 1008 1165 b 249 -494 478 111 290 -312 b 358 -522 282 -512 319 -522 "},"":{"ha":1439,"x_min":0,"x_max":0,"o":"m 1129 -911 b 1081 -893 1111 -911 1093 -904 b 1015 -553 1049 -865 1015 -799 b 1192 1172 1015 -175 1114 668 b 1003 633 1178 1128 1096 879 b 249 -508 714 -135 465 -503 b 50 -1 103 -508 50 -294 b 99 615 50 233 81 490 b 169 1017 119 763 144 906 b 257 1221 214 1206 240 1214 b 317 1178 286 1231 321 1206 b 288 1138 317 1161 306 1138 b 163 475 265 1086 203 821 b 132 3 142 296 132 138 b 185 -374 132 -174 149 -303 b 251 -428 213 -426 239 -428 b 1281 1754 614 -428 1135 1210 b 1322 1785 1286 1772 1306 1785 b 1361 1744 1344 1783 1361 1765 l 1361 1739 b 1182 499 1360 1731 1258 1121 b 1096 -547 1121 1 1096 -335 b 1131 -829 1096 -789 1119 -824 l 1140 -828 b 1182 -867 1164 -828 1179 -844 b 1129 -911 1182 -894 1153 -911 m 725 1579 b 694 1593 714 1579 701 1585 l 550 1749 b 540 1775 544 1756 540 1767 b 582 1817 540 1796 561 1817 b 611 1803 592 1817 604 1811 l 756 1647 b 765 1619 761 1640 765 1629 b 725 1579 765 1603 749 1579 "},"":{"ha":1439,"x_min":0,"x_max":0,"o":"m 1129 -911 b 1081 -893 1111 -911 1093 -904 b 1015 -553 1049 -865 1015 -799 b 1192 1172 1015 -175 1114 668 b 1003 633 1178 1128 1096 879 b 249 -508 714 -135 465 -503 b 50 -1 103 -508 50 -294 b 99 615 50 233 81 490 b 169 1017 119 763 144 906 b 257 1221 214 1206 240 1214 b 317 1178 286 1231 321 1206 b 288 1138 317 1161 306 1138 b 163 475 265 1086 203 821 b 132 3 142 296 132 138 b 185 -374 132 -174 149 -303 b 251 -428 213 -426 239 -428 b 1281 1754 614 -428 1135 1210 b 1322 1785 1286 1772 1306 1785 b 1361 1744 1344 1783 1361 1765 l 1361 1739 b 1182 499 1360 1731 1258 1121 b 1096 -547 1121 1 1096 -335 b 1131 -829 1096 -789 1119 -824 l 1140 -828 b 1182 -867 1164 -828 1179 -844 b 1129 -911 1182 -894 1153 -911 m 726 1569 b 686 1610 703 1569 686 1593 b 696 1638 686 1619 690 1631 l 840 1793 b 869 1807 847 1801 860 1807 b 911 1765 890 1807 911 1786 b 901 1739 911 1757 907 1746 l 757 1583 b 726 1569 750 1575 738 1569 "},"":{"ha":1439,"x_min":0,"x_max":0,"o":"m 1129 -911 b 1081 -893 1111 -911 1093 -904 b 1015 -553 1049 -865 1015 -799 b 1192 1172 1015 -175 1114 668 b 1003 633 1178 1128 1096 879 b 249 -508 714 -135 465 -503 b 50 -1 103 -508 50 -294 b 99 615 50 233 81 490 b 169 1017 119 763 144 906 b 257 1221 214 1206 240 1214 b 317 1178 286 1231 321 1206 b 288 1138 317 1161 306 1138 b 163 475 265 1086 203 821 b 132 3 142 296 132 138 b 185 -374 132 -174 149 -303 b 251 -428 213 -426 239 -428 b 1281 1754 614 -428 1135 1210 b 1322 1785 1286 1772 1306 1785 b 1361 1744 1344 1783 1361 1765 l 1361 1739 b 1182 499 1360 1731 1258 1121 b 1096 -547 1121 1 1096 -335 b 1131 -829 1096 -789 1119 -824 l 1140 -828 b 1182 -867 1164 -828 1179 -844 b 1129 -911 1182 -894 1153 -911 m 560 1583 b 519 1625 540 1583 519 1606 b 528 1650 519 1633 522 1643 l 714 1883 b 749 1899 721 1892 736 1899 b 781 1878 761 1897 775 1890 l 915 1668 b 921 1646 918 1661 921 1653 b 879 1606 921 1626 900 1606 b 844 1624 868 1606 853 1613 l 742 1788 l 592 1599 b 560 1583 585 1590 571 1583 "},"":{"ha":1439,"x_min":0,"x_max":0,"o":"m 1129 -911 b 1081 -893 1111 -911 1093 -904 b 1015 -553 1049 -865 1015 -799 b 1192 1172 1015 -175 1114 668 b 1003 633 1178 1128 1096 879 b 249 -508 714 -135 465 -503 b 50 -1 103 -508 50 -294 b 99 615 50 233 81 490 b 169 1017 119 763 144 906 b 257 1221 214 1206 240 1214 b 317 1178 286 1231 321 1206 b 288 1138 317 1161 306 1138 b 163 475 265 1086 203 821 b 132 3 142 296 132 138 b 185 -374 132 -174 149 -303 b 251 -428 213 -426 239 -428 b 1281 1754 614 -428 1135 1210 b 1322 1785 1286 1772 1306 1785 b 1361 1744 1344 1783 1361 1765 l 1361 1739 b 1182 499 1360 1731 1258 1121 b 1096 -547 1121 1 1096 -335 b 1131 -829 1096 -789 1119 -824 l 1140 -828 b 1182 -867 1164 -828 1179 -844 b 1129 -911 1182 -894 1153 -911 m 647 1619 b 606 1661 626 1619 606 1640 b 647 1704 606 1683 626 1704 b 690 1661 669 1704 690 1683 b 647 1619 690 1640 669 1619 m 839 1621 b 797 1663 817 1621 797 1642 b 839 1706 797 1685 817 1706 b 881 1663 861 1706 881 1685 b 839 1621 881 1642 861 1621 "},"":{"ha":1550,"x_min":0,"x_max":0,"o":"m 581 -1021 b 542 -1012 565 -1021 551 -1018 b 429 -761 471 -987 429 -890 b 1010 176 429 -469 604 -128 b 1225 1407 1114 672 1197 1211 b 944 863 1188 1328 1074 1093 b 272 97 657 350 436 97 b 50 532 128 97 53 258 b 189 1342 50 785 115 1144 b 283 1468 231 1457 257 1465 b 338 1417 301 1468 338 1449 b 297 1376 338 1396 315 1376 l 289 1376 l 290 1375 b 176 971 269 1344 218 1193 b 132 540 146 813 132 664 b 274 179 132 303 174 189 b 872 900 353 179 528 285 b 1267 1689 1089 1288 1265 1685 b 1306 1714 1272 1704 1290 1714 b 1344 1672 1328 1713 1344 1694 l 1344 1668 b 1107 247 1338 1619 1242 894 b 1544 493 1324 399 1542 492 b 1560 496 1550 496 1556 496 b 1601 456 1581 496 1601 475 b 1574 417 1601 440 1590 425 b 1115 154 1572 417 1353 324 b 1083 128 1104 146 1085 129 b 771 -871 993 -296 885 -683 b 581 -1021 697 -990 628 -1021 m 581 -939 b 701 -828 614 -939 657 -901 b 982 51 804 -660 903 -306 b 519 -657 796 -97 565 -347 b 511 -764 514 -696 511 -732 b 581 -939 511 -876 542 -939 m 714 1647 b 674 1688 690 1647 674 1671 b 683 1715 674 1697 678 1708 l 828 1871 b 857 1885 835 1879 847 1885 b 899 1843 878 1885 899 1864 b 889 1817 899 1835 894 1824 l 744 1661 b 714 1647 738 1653 725 1647 "},"":{"ha":928,"x_min":0,"x_max":0,"o":"m 460 -160 b 335 29 386 -160 335 -97 b 419 485 335 182 394 406 b 361 406 419 485 392 449 b 4 64 150 117 57 64 l -10 65 b -82 189 -36 69 -82 99 b 153 746 -82 347 33 657 b 268 786 192 775 232 786 b 443 667 361 786 431 713 b 524 792 486 731 521 788 b 581 803 542 814 564 813 b 599 760 611 788 599 760 b 415 29 539 604 415 226 b 431 -61 415 -10 419 -40 b 449 -78 438 -75 443 -76 l 461 -79 b 919 499 578 -79 801 268 b 957 521 926 513 943 521 b 996 482 976 521 996 503 b 993 465 996 476 994 468 b 801 143 993 463 908 297 b 460 -160 665 -58 551 -160 m 6 146 b 296 453 21 146 88 169 b 368 557 321 488 346 522 b 376 593 374 567 376 579 b 335 679 376 624 363 656 b 269 706 322 690 300 706 b 200 681 249 706 226 700 b -1 193 103 608 -1 331 b 6 146 -1 174 3 146 m 293 947 b 263 961 282 947 269 953 l 118 1117 b 108 1143 113 1124 108 1135 b 150 1185 108 1164 129 1185 b 179 1171 160 1185 172 1179 l 324 1015 b 333 988 329 1008 333 997 b 293 947 333 971 317 947 "},"":{"ha":928,"x_min":0,"x_max":0,"o":"m 460 -160 b 335 29 386 -160 335 -97 b 419 485 335 182 394 406 b 361 406 419 485 392 449 b 4 64 150 117 57 64 l -10 65 b -82 189 -36 69 -82 99 b 153 746 -82 347 33 657 b 268 786 192 775 232 786 b 443 667 361 786 431 713 b 524 792 486 731 521 788 b 581 803 542 814 564 813 b 599 760 611 788 599 760 b 415 29 539 604 415 226 b 431 -61 415 -10 419 -40 b 449 -78 438 -75 443 -76 l 461 -79 b 919 499 578 -79 801 268 b 957 521 926 513 943 521 b 996 482 976 521 996 503 b 993 465 996 476 994 468 b 801 143 993 463 908 297 b 460 -160 665 -58 551 -160 m 6 146 b 296 453 21 146 88 169 b 368 557 321 488 346 522 b 376 593 374 567 376 579 b 335 679 376 624 363 656 b 269 706 322 690 300 706 b 200 681 249 706 226 700 b -1 193 103 608 -1 331 b 6 146 -1 174 3 146 m 294 938 b 254 978 271 938 254 961 b 264 1006 254 988 258 999 l 408 1161 b 438 1175 415 1169 428 1175 b 479 1133 458 1175 479 1154 b 469 1107 479 1125 475 1114 l 325 951 b 294 938 318 943 306 938 "},"":{"ha":928,"x_min":0,"x_max":0,"o":"m 460 -160 b 335 29 386 -160 335 -97 b 419 485 335 182 394 406 b 361 406 419 485 392 449 b 4 64 150 117 57 64 l -10 65 b -82 189 -36 69 -82 99 b 153 746 -82 347 33 657 b 268 786 192 775 232 786 b 443 667 361 786 431 713 b 524 792 486 731 521 788 b 581 803 542 814 564 813 b 599 760 611 788 599 760 b 415 29 539 604 415 226 b 431 -61 415 -10 419 -40 b 449 -78 438 -75 443 -76 l 461 -79 b 919 499 578 -79 801 268 b 957 521 926 513 943 521 b 996 482 976 521 996 503 b 993 465 996 476 994 468 b 801 143 993 463 908 297 b 460 -160 665 -58 551 -160 m 6 146 b 296 453 21 146 88 169 b 368 557 321 488 346 522 b 376 593 374 567 376 579 b 335 679 376 624 363 656 b 269 706 322 690 300 706 b 200 681 249 706 226 700 b -1 193 103 608 -1 331 b 6 146 -1 174 3 146 m 128 951 b 88 993 108 951 88 974 b 96 1018 88 1001 90 1011 l 282 1251 b 317 1267 289 1260 304 1267 b 349 1246 329 1265 343 1258 l 483 1036 b 489 1014 486 1029 489 1021 b 447 974 489 994 468 974 b 413 992 436 974 421 981 l 310 1156 l 160 967 b 128 951 153 958 139 951 "},"":{"ha":928,"x_min":0,"x_max":0,"o":"m 460 -160 b 335 29 386 -160 335 -97 b 419 485 335 182 394 406 b 361 406 419 485 392 449 b 4 64 150 117 57 64 l -10 65 b -82 189 -36 69 -82 99 b 153 746 -82 347 33 657 b 268 786 192 775 232 786 b 443 667 361 786 431 713 b 524 792 486 731 521 788 b 581 803 542 814 564 813 b 599 760 611 788 599 760 b 415 29 539 604 415 226 b 431 -61 415 -10 419 -40 b 449 -78 438 -75 443 -76 l 461 -79 b 919 499 578 -79 801 268 b 957 521 926 513 943 521 b 996 482 976 521 996 503 b 993 465 996 476 994 468 b 801 143 993 463 908 297 b 460 -160 665 -58 551 -160 m 6 146 b 296 453 21 146 88 169 b 368 557 321 488 346 522 b 376 593 374 567 376 579 b 335 679 376 624 363 656 b 269 706 322 690 300 706 b 200 681 249 706 226 700 b -1 193 103 608 -1 331 b 6 146 -1 174 3 146 m 90 1479 b 50 1519 71 1479 50 1501 b 56 1540 50 1528 51 1535 b 164 1667 65 1574 97 1667 b 272 1608 203 1665 226 1644 b 333 1564 293 1592 326 1564 b 374 1647 342 1567 364 1608 b 414 1678 379 1665 397 1678 b 454 1636 436 1675 454 1660 l 453 1626 b 335 1483 442 1593 404 1483 b 161 1586 272 1483 193 1581 b 132 1514 164 1586 156 1585 b 90 1479 125 1496 114 1479 "},"":{"ha":928,"x_min":0,"x_max":0,"o":"m 460 -160 b 335 29 386 -160 335 -97 b 419 485 335 182 394 406 b 361 406 419 485 392 449 b 4 64 150 117 57 64 l -10 65 b -82 189 -36 69 -82 99 b 153 746 -82 347 33 657 b 268 786 192 775 232 786 b 443 667 361 786 431 713 b 524 792 486 731 521 788 b 581 803 542 814 564 813 b 599 760 611 788 599 760 b 415 29 539 604 415 226 b 431 -61 415 -10 419 -40 b 449 -78 438 -75 443 -76 l 461 -79 b 919 499 578 -79 801 268 b 957 521 926 513 943 521 b 996 482 976 521 996 503 b 993 465 996 476 994 468 b 801 143 993 463 908 297 b 460 -160 665 -58 551 -160 m 6 146 b 296 453 21 146 88 169 b 368 557 321 488 346 522 b 376 593 374 567 376 579 b 335 679 376 624 363 656 b 269 706 322 690 300 706 b 200 681 249 706 226 700 b -1 193 103 608 -1 331 b 6 146 -1 174 3 146 m 215 988 b 174 1029 194 988 174 1008 b 215 1072 174 1051 194 1072 b 258 1029 238 1072 258 1051 b 215 988 258 1008 238 988 m 407 989 b 365 1031 385 989 365 1010 b 407 1074 365 1053 385 1074 b 449 1031 429 1074 449 1053 b 407 989 449 1010 429 989 "},"":{"ha":928,"x_min":0,"x_max":0,"o":"m 460 -160 b 335 29 386 -160 335 -97 b 419 485 335 182 394 406 b 361 406 419 485 392 449 b 4 64 150 117 57 64 l -10 65 b -82 189 -36 69 -82 99 b 153 746 -82 347 33 657 b 268 786 192 775 232 786 b 443 667 361 786 431 713 b 524 792 486 731 521 788 b 581 803 542 814 564 813 b 599 760 611 788 599 760 b 415 29 539 604 415 226 b 431 -61 415 -10 419 -40 b 449 -78 438 -75 443 -76 l 461 -79 b 919 499 578 -79 801 268 b 957 521 926 513 943 521 b 996 482 976 521 996 503 b 993 465 996 476 994 468 b 801 143 993 463 908 297 b 460 -160 665 -58 551 -160 m 6 146 b 296 453 21 146 88 169 b 368 557 321 488 346 522 b 376 593 374 567 376 579 b 335 679 376 624 363 656 b 269 706 322 690 300 706 b 200 681 249 706 226 700 b -1 193 103 608 -1 331 b 6 146 -1 174 3 146 m 288 975 b 142 1121 210 975 142 1039 b 303 1288 142 1221 206 1281 b 394 1256 336 1288 369 1275 b 443 1149 431 1228 440 1196 b 288 975 443 1072 386 975 m 297 1058 b 361 1150 350 1067 361 1114 b 303 1207 360 1188 342 1207 l 293 1206 b 222 1121 269 1203 222 1189 b 286 1057 222 1082 250 1057 "},"":{"ha":911,"x_min":0,"x_max":0,"o":"m 150 -165 b -89 133 8 -165 -89 -51 b 136 767 -89 314 0 574 b 389 961 185 839 286 961 b 522 738 481 957 522 879 b 492 464 522 646 508 561 b 453 426 488 443 476 428 b 411 467 425 426 410 440 b 442 739 411 490 442 617 b 388 881 442 828 429 879 b 22 331 282 881 96 606 b -8 131 10 283 -8 207 b 150 -83 -8 13 36 -83 b 904 501 379 -83 763 325 b 936 515 913 510 925 515 b 976 475 956 515 976 496 b 967 449 976 467 972 457 b 639 104 965 447 821 267 b 150 -165 442 -74 276 -165 m 36 -696 b -36 -693 -3 -696 -31 -693 b -72 -651 -56 -689 -72 -669 b -32 -611 -71 -629 -53 -611 l -29 -611 b 38 -614 -28 -611 0 -614 b 307 -493 132 -614 292 -599 b 308 -474 308 -486 308 -479 b 183 -404 308 -418 254 -404 b 83 -414 138 -404 108 -412 b 40 -374 63 -414 40 -396 l 42 -364 b 113 -111 69 -257 107 -125 b 149 -89 119 -97 135 -89 b 190 -131 168 -89 190 -110 b 136 -325 185 -154 167 -214 b 185 -322 136 -324 160 -322 b 347 -371 239 -322 306 -332 b 390 -474 375 -396 390 -432 l 388 -504 b 36 -696 364 -672 147 -696 "},"":{"ha":810,"x_min":0,"x_max":0,"o":"m 135 -140 b -83 133 3 -140 -83 -40 b -64 304 -83 183 -76 240 b 301 832 14 668 174 832 b 426 706 376 829 424 781 b 386 601 426 668 413 631 b 72 485 304 510 121 489 b -1 132 33 386 -1 232 b 135 -60 -1 -42 82 -60 b 178 -54 153 -60 168 -57 b 801 501 424 3 797 497 b 833 517 808 511 822 517 b 874 476 853 517 874 496 b 865 453 874 468 871 458 b 135 -140 851 432 426 -140 m 110 572 b 325 656 164 578 278 601 b 346 707 339 672 346 688 b 307 750 346 735 333 749 b 110 572 256 750 178 711 m 267 940 b 236 954 256 940 243 946 l 92 1110 b 82 1136 86 1117 82 1128 b 124 1178 82 1157 103 1178 b 153 1164 133 1178 146 1172 l 297 1008 b 307 981 303 1001 307 990 b 267 940 307 964 290 940 "},"":{"ha":810,"x_min":0,"x_max":0,"o":"m 135 -140 b -83 133 3 -140 -83 -40 b -64 304 -83 183 -76 240 b 301 832 14 668 174 832 b 426 706 376 829 424 781 b 386 601 426 668 413 631 b 72 485 304 510 121 489 b -1 132 33 386 -1 232 b 135 -60 -1 -42 82 -60 b 178 -54 153 -60 168 -57 b 801 501 424 3 797 497 b 833 517 808 511 822 517 b 874 476 853 517 874 496 b 865 453 874 468 871 458 b 135 -140 851 432 426 -140 m 110 572 b 325 656 164 578 278 601 b 346 707 339 672 346 688 b 307 750 346 735 333 749 b 110 572 256 750 178 711 m 268 931 b 228 971 244 931 228 954 b 238 999 228 981 232 992 l 382 1154 b 411 1168 389 1163 401 1168 b 453 1126 432 1168 453 1147 b 443 1100 453 1118 449 1107 l 299 944 b 268 931 292 936 279 931 "},"":{"ha":810,"x_min":0,"x_max":0,"o":"m 135 -140 b -83 133 3 -140 -83 -40 b -64 304 -83 183 -76 240 b 301 832 14 668 174 832 b 426 706 376 829 424 781 b 386 601 426 668 413 631 b 72 485 304 510 121 489 b -1 132 33 386 -1 232 b 135 -60 -1 -42 82 -60 b 178 -54 153 -60 168 -57 b 801 501 424 3 797 497 b 833 517 808 511 822 517 b 874 476 853 517 874 496 b 865 453 874 468 871 458 b 135 -140 851 432 426 -140 m 110 572 b 325 656 164 578 278 601 b 346 707 339 672 346 688 b 307 750 346 735 333 749 b 110 572 256 750 178 711 m 101 944 b 61 986 82 944 61 967 b 69 1011 61 994 64 1004 l 256 1244 b 290 1260 263 1253 278 1260 b 322 1239 303 1258 317 1251 l 457 1029 b 463 1007 460 1022 463 1014 b 421 967 463 988 442 967 b 386 985 410 967 394 974 l 283 1149 l 133 960 b 101 944 126 951 113 944 "},"":{"ha":810,"x_min":0,"x_max":0,"o":"m 135 -140 b -83 133 3 -140 -83 -40 b -64 304 -83 183 -76 240 b 301 832 14 668 174 832 b 426 706 376 829 424 781 b 386 601 426 668 413 631 b 72 485 304 510 121 489 b -1 132 33 386 -1 232 b 135 -60 -1 -42 82 -60 b 178 -54 153 -60 168 -57 b 801 501 424 3 797 497 b 833 517 808 511 822 517 b 874 476 853 517 874 496 b 865 453 874 468 871 458 b 135 -140 851 432 426 -140 m 110 572 b 325 656 164 578 278 601 b 346 707 339 672 346 688 b 307 750 346 735 333 749 b 110 572 256 750 178 711 m 189 981 b 147 1022 168 981 147 1001 b 189 1065 147 1044 168 1065 b 232 1022 211 1065 232 1044 b 189 981 232 1001 211 981 m 381 982 b 339 1024 358 982 339 1003 b 381 1067 339 1046 358 1067 b 422 1024 403 1067 422 1046 b 381 982 422 1003 403 982 "},"":{"ha":649,"x_min":0,"x_max":0,"o":"m 99 -150 b -61 118 -19 -150 -61 -24 b 35 665 -61 347 31 649 b 76 694 42 682 60 694 b 115 653 97 692 115 678 l 114 643 b 19 114 81 535 19 289 b 100 -69 19 1 42 -69 b 644 504 214 -69 492 278 b 678 522 651 515 667 522 b 718 481 700 522 718 500 b 711 457 718 474 717 465 b 481 151 710 456 606 303 b 99 -150 313 -49 186 -150 m 114 889 b 83 903 103 889 90 894 l -61 1058 b -71 1085 -67 1065 -71 1076 b -29 1126 -71 1106 -50 1126 b 0 1113 -19 1126 -7 1121 l 144 957 b 154 929 150 950 154 939 b 114 889 154 913 138 889 "},"":{"ha":649,"x_min":0,"x_max":0,"o":"m 99 -150 b -61 118 -19 -150 -61 -24 b 35 665 -61 347 31 649 b 76 694 42 682 60 694 b 115 653 97 692 115 678 l 114 643 b 19 114 81 535 19 289 b 100 -69 19 1 42 -69 b 644 504 214 -69 492 278 b 678 522 651 515 667 522 b 718 481 700 522 718 500 b 711 457 718 474 717 465 b 481 151 710 456 606 303 b 99 -150 313 -49 186 -150 m 115 879 b 75 919 92 879 75 903 b 85 947 75 929 79 940 l 229 1103 b 258 1117 236 1111 249 1117 b 300 1075 279 1117 300 1096 b 290 1049 300 1067 296 1056 l 146 893 b 115 879 139 885 126 879 "},"":{"ha":649,"x_min":0,"x_max":0,"o":"m 99 -150 b -61 118 -19 -150 -61 -24 b 35 665 -61 347 31 649 b 76 694 42 682 60 694 b 115 653 97 692 115 678 l 114 643 b 19 114 81 535 19 289 b 100 -69 19 1 42 -69 b 644 504 214 -69 492 278 b 678 522 651 515 667 522 b 718 481 700 522 718 500 b 711 457 718 474 717 465 b 481 151 710 456 606 303 b 99 -150 313 -49 186 -150 m -51 893 b -92 935 -71 893 -92 915 b -83 960 -92 943 -89 953 l 103 1193 b 138 1208 110 1201 125 1208 b 169 1188 150 1207 164 1200 l 304 978 b 310 956 307 971 310 963 b 268 915 310 936 289 915 b 233 933 257 915 242 922 l 131 1097 l -19 908 b -51 893 -26 900 -40 893 "},"":{"ha":649,"x_min":0,"x_max":0,"o":"m 99 -150 b -61 118 -19 -150 -61 -24 b 35 665 -61 347 31 649 b 76 694 42 682 60 694 b 115 653 97 692 115 678 l 114 643 b 19 114 81 535 19 289 b 100 -69 19 1 42 -69 b 644 504 214 -69 492 278 b 678 522 651 515 667 522 b 718 481 700 522 718 500 b 711 457 718 474 717 465 b 481 151 710 456 606 303 b 99 -150 313 -49 186 -150 m 36 929 b -6 971 15 929 -6 950 b 36 1014 -6 993 15 1014 b 79 971 58 1014 79 993 b 36 929 79 950 58 929 m 228 931 b 186 972 206 931 186 951 b 228 1015 186 994 206 1015 b 269 972 250 1015 269 994 b 228 931 269 951 250 931 "},"":{"ha":1068,"x_min":0,"x_max":0,"o":"m -33 -169 b -74 -122 -65 -169 -72 -144 b -24 369 -74 -37 -24 365 b 54 843 14 672 38 793 b 97 886 54 843 64 885 l 99 886 b 139 844 119 886 139 865 b 125 815 139 832 133 819 b 43 242 110 765 81 561 b 106 396 43 242 81 335 b 413 785 211 654 313 785 l 424 785 b 633 108 636 764 468 128 b 1056 489 728 108 939 336 b 1089 506 1063 500 1076 506 b 1129 465 1108 506 1129 485 b 1121 440 1129 458 1126 449 b 933 225 1117 436 1036 329 b 631 26 806 93 706 26 b 414 704 376 26 521 700 b 15 -117 374 704 238 643 l 8 -139 b -33 -169 -1 -167 -28 -169 m 90 1479 b 50 1519 71 1479 50 1501 b 56 1540 50 1528 51 1535 b 164 1667 65 1574 97 1667 b 272 1608 203 1665 226 1644 b 333 1564 293 1592 326 1564 b 374 1647 342 1567 364 1608 b 414 1678 379 1665 397 1678 b 454 1636 436 1675 454 1660 l 453 1626 b 335 1483 442 1593 404 1483 b 161 1586 272 1483 193 1581 b 132 1514 164 1586 156 1585 b 90 1479 125 1496 114 1479 "},"":{"ha":890,"x_min":0,"x_max":0,"o":"m 94 -118 b -79 156 -19 -118 -79 -3 b 101 664 -79 338 -4 565 l 101 661 b 208 756 113 721 151 751 b 301 701 236 756 272 743 b 365 407 346 642 365 528 l 365 390 b 517 357 407 369 460 357 b 889 504 708 357 886 501 b 915 514 897 510 907 514 b 956 474 935 514 956 493 b 942 442 956 463 950 450 b 515 275 933 435 738 275 b 360 304 458 275 397 288 b 97 -118 342 79 246 -115 m 96 -36 b 283 344 201 -36 269 150 b 114 553 193 401 128 497 b 3 153 53 472 3 296 b 92 -36 3 39 31 -36 l 96 -36 m 285 443 b 236 656 283 522 267 611 b 208 674 224 671 217 674 l 204 674 b 181 633 196 672 181 669 b 285 443 181 574 225 489 m 201 885 b 171 899 190 885 178 890 l 26 1054 b 17 1081 21 1061 17 1072 b 58 1122 17 1101 38 1122 b 88 1108 68 1122 81 1117 l 232 953 b 242 925 238 946 242 935 b 201 885 242 908 225 885 "},"":{"ha":890,"x_min":0,"x_max":0,"o":"m 94 -118 b -79 156 -19 -118 -79 -3 b 101 664 -79 338 -4 565 l 101 661 b 208 756 113 721 151 751 b 301 701 236 756 272 743 b 365 407 346 642 365 528 l 365 390 b 517 357 407 369 460 357 b 889 504 708 357 886 501 b 915 514 897 510 907 514 b 956 474 935 514 956 493 b 942 442 956 463 950 450 b 515 275 933 435 738 275 b 360 304 458 275 397 288 b 97 -118 342 79 246 -115 m 96 -36 b 283 344 201 -36 269 150 b 114 553 193 401 128 497 b 3 153 53 472 3 296 b 92 -36 3 39 31 -36 l 96 -36 m 285 443 b 236 656 283 522 267 611 b 208 674 224 671 217 674 l 204 674 b 181 633 196 672 181 669 b 285 443 181 574 225 489 m 203 875 b 163 915 179 875 163 899 b 172 943 163 925 167 936 l 317 1099 b 346 1113 324 1107 336 1113 b 388 1071 367 1113 388 1092 b 378 1044 388 1063 383 1051 l 233 889 b 203 875 226 881 214 875 "},"":{"ha":890,"x_min":0,"x_max":0,"o":"m 94 -118 b -79 156 -19 -118 -79 -3 b 101 664 -79 338 -4 565 l 101 661 b 208 756 113 721 151 751 b 301 701 236 756 272 743 b 365 407 346 642 365 528 l 365 390 b 517 357 407 369 460 357 b 889 504 708 357 886 501 b 915 514 897 510 907 514 b 956 474 935 514 956 493 b 942 442 956 463 950 450 b 515 275 933 435 738 275 b 360 304 458 275 397 288 b 97 -118 342 79 246 -115 m 96 -36 b 283 344 201 -36 269 150 b 114 553 193 401 128 497 b 3 153 53 472 3 296 b 92 -36 3 39 31 -36 l 96 -36 m 285 443 b 236 656 283 522 267 611 b 208 674 224 671 217 674 l 204 674 b 181 633 196 672 181 669 b 285 443 181 574 225 489 m 36 889 b -4 931 17 889 -4 911 b 4 956 -4 939 -1 949 l 190 1189 b 225 1204 197 1197 213 1204 b 257 1183 238 1203 251 1196 l 392 974 b 397 951 394 967 397 958 b 356 911 397 932 376 911 b 321 929 344 911 329 918 l 218 1093 l 68 904 b 36 889 61 896 47 889 "},"":{"ha":890,"x_min":0,"x_max":0,"o":"m 94 -118 b -79 156 -19 -118 -79 -3 b 101 664 -79 338 -4 565 l 101 661 b 208 756 113 721 151 751 b 301 701 236 756 272 743 b 365 407 346 642 365 528 l 365 390 b 517 357 407 369 460 357 b 889 504 708 357 886 501 b 915 514 897 510 907 514 b 956 474 935 514 956 493 b 942 442 956 463 950 450 b 515 275 933 435 738 275 b 360 304 458 275 397 288 b 97 -118 342 79 246 -115 m 96 -36 b 283 344 201 -36 269 150 b 114 553 193 401 128 497 b 3 153 53 472 3 296 b 92 -36 3 39 31 -36 l 96 -36 m 285 443 b 236 656 283 522 267 611 b 208 674 224 671 217 674 l 204 674 b 181 633 196 672 181 669 b 285 443 181 574 225 489 m 90 1479 b 50 1519 71 1479 50 1501 b 56 1540 50 1528 51 1535 b 164 1667 65 1574 97 1667 b 272 1608 203 1665 226 1644 b 333 1564 293 1592 326 1564 b 374 1647 342 1567 364 1608 b 414 1678 379 1665 397 1678 b 454 1636 436 1675 454 1660 l 453 1626 b 335 1483 442 1593 404 1483 b 161 1586 272 1483 193 1581 b 132 1514 164 1586 156 1585 b 90 1479 125 1496 114 1479 "},"":{"ha":890,"x_min":0,"x_max":0,"o":"m 94 -118 b -79 156 -19 -118 -79 -3 b 101 664 -79 338 -4 565 l 101 661 b 208 756 113 721 151 751 b 301 701 236 756 272 743 b 365 407 346 642 365 528 l 365 390 b 517 357 407 369 460 357 b 889 504 708 357 886 501 b 915 514 897 510 907 514 b 956 474 935 514 956 493 b 942 442 956 463 950 450 b 515 275 933 435 738 275 b 360 304 458 275 397 288 b 97 -118 342 79 246 -115 m 96 -36 b 283 344 201 -36 269 150 b 114 553 193 401 128 497 b 3 153 53 472 3 296 b 92 -36 3 39 31 -36 l 96 -36 m 285 443 b 236 656 283 522 267 611 b 208 674 224 671 217 674 l 204 674 b 181 633 196 672 181 669 b 285 443 181 574 225 489 m 124 925 b 82 967 103 925 82 946 b 124 1010 82 989 103 1010 b 167 967 146 1010 167 989 b 124 925 167 946 146 925 m 315 926 b 274 968 293 926 274 947 b 315 1011 274 990 293 1011 b 357 968 338 1011 357 990 b 315 926 357 947 338 926 "},"":{"ha":1065,"x_min":0,"x_max":0,"o":"m 246 422 b 206 463 225 422 206 442 b 246 503 206 483 225 503 l 778 503 b 818 463 799 503 818 483 b 778 422 818 442 799 422 m 517 611 b 475 653 496 611 475 632 b 517 696 475 675 496 696 b 560 653 539 696 560 675 b 517 611 560 632 539 611 m 472 246 b 431 289 451 246 431 267 b 472 331 431 310 451 331 b 515 289 494 331 515 310 b 472 246 515 267 494 246 "},"":{"ha":890,"x_min":0,"x_max":0,"o":"m 265 586 b 219 669 254 626 236 661 b 208 674 215 672 211 674 l 203 674 b 181 636 199 674 183 669 b 224 515 181 592 196 551 m 94 -36 b 283 346 201 -35 274 163 b 238 379 264 358 249 369 l 25 14 l 25 18 b 94 -36 40 -18 64 -36 m 1 136 l 179 439 b 114 551 144 479 122 517 b 3 153 49 460 3 285 b 1 133 3 139 3 133 m 285 458 l 279 450 l 285 446 m 96 -118 b -79 160 -26 -114 -79 6 b 101 664 -79 332 -10 549 l 101 661 b 208 756 113 718 149 750 b 365 414 307 756 365 621 l 365 390 b 515 357 407 368 456 357 b 889 504 707 357 885 500 b 915 513 899 510 907 513 b 947 499 926 513 936 508 b 956 472 953 489 956 481 b 942 443 956 463 951 451 b 604 283 929 429 751 304 b 515 275 568 278 539 275 b 360 304 456 275 404 285 b 96 -118 343 83 250 -114 "},"":{"ha":1143,"x_min":0,"x_max":0,"o":"m 592 -392 b 453 -53 499 -383 453 -304 b 497 485 453 119 479 372 l 453 386 b 79 -104 310 60 185 -104 b -62 135 -21 -94 -62 -11 b 31 644 -62 336 18 604 b 71 672 38 667 54 674 b 108 621 121 668 108 621 b 18 129 76 519 18 289 b 81 -22 18 38 33 -19 b 379 419 115 -22 206 26 b 567 910 485 658 565 908 b 606 935 571 924 590 935 b 644 893 628 933 644 917 l 644 888 b 535 -57 606 685 535 235 b 572 -299 535 -174 546 -261 b 586 -310 579 -308 583 -308 b 1138 508 735 -310 986 149 b 1175 533 1143 524 1160 533 b 1215 494 1194 533 1215 515 b 1213 479 1215 489 1214 482 b 997 40 1213 478 1118 254 b 592 -392 836 -246 703 -392 m 290 825 b 260 839 279 825 267 831 l 115 994 b 106 1021 110 1001 106 1013 b 147 1063 106 1042 126 1063 b 176 1049 157 1063 169 1057 l 321 893 b 331 865 326 886 331 875 b 290 825 331 849 314 825 "},"":{"ha":1143,"x_min":0,"x_max":0,"o":"m 592 -392 b 453 -53 499 -383 453 -304 b 497 485 453 119 479 372 l 453 386 b 79 -104 310 60 185 -104 b -62 135 -21 -94 -62 -11 b 31 644 -62 336 18 604 b 71 672 38 667 54 674 b 108 621 121 668 108 621 b 18 129 76 519 18 289 b 81 -22 18 38 33 -19 b 379 419 115 -22 206 26 b 567 910 485 658 565 908 b 606 935 571 924 590 935 b 644 893 628 933 644 917 l 644 888 b 535 -57 606 685 535 235 b 572 -299 535 -174 546 -261 b 586 -310 579 -308 583 -308 b 1138 508 735 -310 986 149 b 1175 533 1143 524 1160 533 b 1215 494 1194 533 1215 515 b 1213 479 1215 489 1214 482 b 997 40 1213 478 1118 254 b 592 -392 836 -246 703 -392 m 292 815 b 251 856 268 815 251 839 b 261 883 251 865 256 876 l 406 1039 b 435 1053 413 1047 425 1053 b 476 1011 456 1053 476 1032 b 467 985 476 1003 472 992 l 322 829 b 292 815 315 821 303 815 "},"":{"ha":1143,"x_min":0,"x_max":0,"o":"m 592 -392 b 453 -53 499 -383 453 -304 b 497 485 453 119 479 372 l 453 386 b 79 -104 310 60 185 -104 b -62 135 -21 -94 -62 -11 b 31 644 -62 336 18 604 b 71 672 38 667 54 674 b 108 621 121 668 108 621 b 18 129 76 519 18 289 b 81 -22 18 38 33 -19 b 379 419 115 -22 206 26 b 567 910 485 658 565 908 b 606 935 571 924 590 935 b 644 893 628 933 644 917 l 644 888 b 535 -57 606 685 535 235 b 572 -299 535 -174 546 -261 b 586 -310 579 -308 583 -308 b 1138 508 735 -310 986 149 b 1175 533 1143 524 1160 533 b 1215 494 1194 533 1215 515 b 1213 479 1215 489 1214 482 b 997 40 1213 478 1118 254 b 592 -392 836 -246 703 -392 m 125 829 b 85 871 106 829 85 851 b 93 896 85 879 88 889 l 279 1129 b 314 1144 286 1138 301 1144 b 346 1124 326 1143 340 1136 l 481 914 b 486 892 483 907 486 899 b 444 851 486 872 465 851 b 410 869 433 851 418 858 l 307 1033 l 157 844 b 125 829 150 836 136 829 "},"":{"ha":1143,"x_min":0,"x_max":0,"o":"m 592 -392 b 453 -53 499 -383 453 -304 b 497 485 453 119 479 372 l 453 386 b 79 -104 310 60 185 -104 b -62 135 -21 -94 -62 -11 b 31 644 -62 336 18 604 b 71 672 38 667 54 674 b 108 621 121 668 108 621 b 18 129 76 519 18 289 b 81 -22 18 38 33 -19 b 379 419 115 -22 206 26 b 567 910 485 658 565 908 b 606 935 571 924 590 935 b 644 893 628 933 644 917 l 644 888 b 535 -57 606 685 535 235 b 572 -299 535 -174 546 -261 b 586 -310 579 -308 583 -308 b 1138 508 735 -310 986 149 b 1175 533 1143 524 1160 533 b 1215 494 1194 533 1215 515 b 1213 479 1215 489 1214 482 b 997 40 1213 478 1118 254 b 592 -392 836 -246 703 -392 m 213 865 b 171 907 192 865 171 886 b 213 950 171 929 192 950 b 256 907 235 950 256 929 b 213 865 256 886 235 865 m 404 867 b 363 908 382 867 363 888 b 404 951 363 931 382 951 b 446 908 426 951 446 931 b 404 867 446 888 426 867 "},"":{"ha":1115,"x_min":0,"x_max":0,"o":"m 133 -1596 b -12 -1360 51 -1596 -12 -1507 b 24 -1114 -12 -1289 0 -1206 b 651 28 147 -656 431 -242 b 749 953 704 431 739 819 b 81 -15 558 535 276 -15 b -44 210 -7 -15 -44 83 b -3 529 -44 335 -14 476 b 167 903 10 582 78 856 b 186 907 172 906 181 907 b 225 867 207 907 225 886 b 204 832 225 854 217 839 b 78 511 176 817 121 693 b 38 207 51 396 38 289 b 78 65 38 104 57 65 b 714 1071 276 99 593 807 l 753 1156 b 806 1210 767 1185 779 1210 b 846 1168 824 1207 846 1197 b 749 142 844 1128 813 654 b 1140 539 947 372 1139 538 b 1167 549 1149 544 1158 549 b 1208 507 1188 549 1208 528 b 1193 475 1208 497 1203 483 b 736 4 1190 474 976 293 b 729 -7 733 0 731 -6 b 478 -1189 671 -451 588 -924 b 133 -1596 375 -1443 246 -1596 m 133 -1514 b 403 -1160 186 -1514 293 -1428 b 631 -129 501 -917 579 -500 b 103 -1135 451 -357 211 -729 b 68 -1360 78 -1225 68 -1300 b 133 -1514 68 -1475 90 -1507 m 415 1074 b 375 1114 392 1074 375 1097 b 385 1142 375 1124 379 1135 l 529 1297 b 558 1311 536 1306 549 1311 b 600 1269 579 1311 600 1290 b 590 1243 600 1261 596 1250 l 446 1088 b 415 1074 439 1079 426 1074 "},"":{"ha":1115,"x_min":0,"x_max":0,"o":"m 133 -1596 b -12 -1360 51 -1596 -12 -1507 b 24 -1114 -12 -1289 0 -1206 b 651 28 147 -656 431 -242 b 749 953 704 431 739 819 b 81 -15 558 535 276 -15 b -44 210 -7 -15 -44 83 b -3 529 -44 335 -14 476 b 167 903 10 582 78 856 b 186 907 172 906 181 907 b 225 867 207 907 225 886 b 204 832 225 854 217 839 b 78 511 176 817 121 693 b 38 207 51 396 38 289 b 78 65 38 104 57 65 b 714 1071 276 99 593 807 l 753 1156 b 806 1210 767 1185 779 1210 b 846 1168 824 1207 846 1197 b 749 142 844 1128 813 654 b 1140 539 947 372 1139 538 b 1167 549 1149 544 1158 549 b 1208 507 1188 549 1208 528 b 1193 475 1208 497 1203 483 b 736 4 1190 474 976 293 b 729 -7 733 0 731 -6 b 478 -1189 671 -451 588 -924 b 133 -1596 375 -1443 246 -1596 m 133 -1514 b 403 -1160 186 -1514 293 -1428 b 631 -129 501 -917 579 -500 b 103 -1135 451 -357 211 -729 b 68 -1360 78 -1225 68 -1300 b 133 -1514 68 -1475 90 -1507 m 336 1124 b 294 1165 315 1124 294 1144 b 336 1208 294 1188 315 1208 b 379 1165 358 1208 379 1188 b 336 1124 379 1144 358 1124 m 528 1125 b 486 1167 506 1125 486 1146 b 528 1210 486 1189 506 1210 b 569 1167 550 1210 569 1189 b 528 1125 569 1146 550 1125 "},"":{"ha":325,"x_min":0,"x_max":0,"o":"m 235 1450 b 204 1464 224 1450 211 1456 l 60 1619 b 50 1646 54 1626 50 1638 b 92 1688 50 1667 71 1688 b 121 1674 101 1688 114 1682 l 265 1518 b 275 1490 271 1511 275 1500 b 235 1450 275 1474 258 1450 "},"":{"ha":325,"x_min":0,"x_max":0,"o":"m 90 1450 b 50 1490 67 1450 50 1474 b 60 1518 50 1500 54 1511 l 204 1674 b 233 1688 211 1682 224 1688 b 275 1646 254 1688 275 1667 b 265 1619 275 1638 271 1626 l 121 1464 b 90 1450 114 1456 101 1450 "},"":{"ha":501,"x_min":0,"x_max":0,"o":"m 90 1425 b 50 1467 71 1425 50 1447 b 58 1492 50 1475 53 1485 l 244 1725 b 279 1740 251 1733 267 1740 b 311 1719 292 1739 306 1732 l 446 1510 b 451 1488 449 1503 451 1494 b 410 1447 451 1468 431 1447 b 375 1465 399 1447 383 1454 l 272 1629 l 122 1440 b 90 1425 115 1432 101 1425 "},"":{"ha":503,"x_min":0,"x_max":0,"o":"m 90 1479 b 50 1519 71 1479 50 1501 b 56 1540 50 1528 51 1535 b 164 1667 65 1574 97 1667 b 272 1608 203 1665 226 1644 b 333 1564 293 1592 326 1564 b 374 1647 342 1567 364 1608 b 414 1678 379 1665 397 1678 b 454 1636 436 1675 454 1660 l 453 1626 b 335 1483 442 1593 404 1483 b 161 1586 272 1483 193 1581 b 132 1514 164 1586 156 1585 b 90 1479 125 1496 114 1479 "},"":{"ha":375,"x_min":0,"x_max":0,"o":"m 92 1508 b 50 1550 71 1508 50 1529 b 92 1593 50 1572 71 1593 b 135 1550 114 1593 135 1572 b 92 1508 135 1529 114 1508 m 283 1510 b 242 1551 261 1510 242 1531 b 283 1594 242 1574 261 1594 b 325 1551 306 1594 325 1574 b 283 1510 325 1531 306 1510 "},"":{"ha":401,"x_min":0,"x_max":0,"o":"m 196 1392 b 50 1538 118 1392 50 1456 b 211 1704 50 1638 114 1697 b 303 1672 244 1704 278 1692 b 351 1565 339 1644 349 1613 b 196 1392 351 1489 294 1392 m 206 1475 b 269 1567 258 1483 269 1531 b 211 1624 268 1604 250 1624 l 201 1622 b 131 1538 178 1619 131 1606 b 194 1474 131 1499 158 1474 "},"":{"ha":501,"x_min":0,"x_max":0,"o":"m 224 1425 b 190 1443 210 1425 196 1435 l 56 1656 b 50 1678 53 1661 50 1671 b 90 1718 50 1699 71 1718 b 125 1699 103 1718 118 1710 l 229 1535 l 379 1725 b 411 1739 388 1733 400 1739 b 451 1699 431 1739 451 1719 b 442 1674 451 1690 447 1681 l 257 1439 b 225 1425 249 1432 236 1425 "},"":{"ha":563,"x_min":0,"x_max":0,"o":"m 158 -1406 b 86 -1403 119 -1406 92 -1403 b 50 -1361 67 -1399 50 -1379 b 90 -1321 51 -1339 69 -1321 l 93 -1321 b 160 -1324 94 -1321 122 -1324 b 429 -1203 254 -1324 414 -1308 b 431 -1183 431 -1196 431 -1189 b 306 -1114 431 -1128 376 -1114 b 206 -1124 260 -1114 231 -1122 b 163 -1083 185 -1124 163 -1106 l 164 -1074 b 235 -821 192 -967 229 -835 b 271 -799 242 -807 257 -799 b 313 -840 290 -799 313 -819 b 258 -1035 307 -864 289 -924 b 307 -1032 258 -1033 282 -1032 b 469 -1081 361 -1032 428 -1042 b 513 -1183 497 -1106 513 -1142 l 510 -1214 b 158 -1406 486 -1382 269 -1406 "},"":{"ha":229,"x_min":0,"x_max":0,"o":"m 138 1050 b 99 1078 122 1050 104 1061 l 51 1221 l 50 1232 b 89 1274 50 1256 67 1269 b 129 1246 106 1274 124 1263 l 178 1101 l 179 1092 b 138 1050 179 1074 164 1050 "},"":{"ha":229,"x_min":0,"x_max":0,"o":"m 90 1050 b 50 1092 71 1050 50 1071 l 51 1101 l 99 1246 b 139 1274 106 1263 122 1274 b 179 1231 163 1271 179 1256 l 178 1221 l 129 1079 b 90 1050 125 1061 107 1050 "},"":{"ha":375,"x_min":0,"x_max":0,"o":"m 138 1050 b 99 1078 122 1050 104 1061 l 51 1221 l 50 1232 b 89 1274 50 1256 67 1269 b 129 1246 106 1274 124 1263 l 178 1101 l 179 1092 b 138 1050 179 1074 164 1050 m 285 1050 b 246 1078 269 1050 251 1061 l 200 1219 b 197 1233 197 1224 197 1229 b 236 1274 197 1256 214 1269 b 276 1246 253 1274 271 1263 l 322 1103 b 325 1089 325 1099 325 1093 b 285 1050 325 1065 299 1050 "},"":{"ha":375,"x_min":0,"x_max":0,"o":"m 90 1050 b 50 1092 71 1050 50 1071 l 51 1101 l 99 1246 b 139 1274 106 1263 122 1274 b 179 1231 163 1271 179 1256 l 178 1221 l 129 1079 b 90 1050 125 1061 107 1050 m 238 1050 b 197 1090 218 1050 197 1069 l 199 1101 l 246 1246 b 286 1274 251 1263 269 1274 b 325 1233 308 1271 325 1257 b 322 1219 325 1229 325 1224 l 276 1078 b 238 1050 271 1061 253 1050 "},"":{"ha":1418,"x_min":0,"x_max":0,"o":"m 531 -200 b 300 110 372 -182 300 -57 b 342 381 300 204 321 308 b 247 358 313 375 271 367 b 232 356 242 356 235 356 b 192 394 210 356 196 371 b 368 465 192 444 283 454 b 419 599 393 533 401 560 b 306 582 363 593 332 586 b 265 621 283 582 267 599 b 458 683 265 649 269 667 b 749 1118 542 863 653 1031 b 922 1201 818 1181 878 1201 b 1000 1181 953 1201 979 1192 b 1135 826 1097 1119 1135 944 b 1085 704 1135 768 1129 704 b 1044 746 1064 708 1044 724 b 1054 826 1049 772 1054 790 b 922 1119 1054 956 1010 1119 b 553 692 828 1119 675 944 b 671 696 576 693 624 696 b 951 644 781 696 890 683 b 969 610 963 636 969 622 b 929 569 969 590 949 569 b 908 575 922 569 915 572 b 669 614 863 604 771 614 b 513 607 614 614 557 611 b 458 476 492 567 469 506 b 611 485 494 481 554 485 b 882 428 721 485 826 471 b 897 397 890 421 897 408 b 856 356 897 376 876 356 b 832 364 847 356 838 358 b 610 403 794 392 708 403 b 431 393 549 403 482 399 b 381 113 399 290 381 193 b 540 -119 381 -28 426 -106 b 1139 424 825 -118 1135 418 b 1174 443 1146 435 1161 443 b 1214 401 1194 443 1214 422 b 1210 383 1214 396 1213 389 b 535 -201 1196 358 869 -201 "},"":{"ha":1238,"x_min":0,"x_max":0,"o":"m 217 -935 b -8 -869 126 -935 43 -914 b -62 -744 -35 -846 -62 -804 b 581 43 -62 -533 254 -210 b 111 506 440 183 250 347 b -11 794 31 594 -11 693 b 15 936 -11 840 -3 889 b 865 1572 133 1275 639 1535 b 946 1579 893 1576 921 1579 b 1132 1508 1025 1579 1089 1554 b 1188 1329 1175 1457 1188 1389 b 1167 1182 1188 1253 1168 1188 b 1126 1153 1161 1165 1143 1153 b 1088 1193 1104 1156 1088 1171 b 1089 1206 1088 1197 1088 1203 b 1107 1329 1089 1206 1107 1265 b 1069 1454 1107 1375 1099 1422 b 949 1499 1044 1485 1006 1499 b 71 796 700 1499 71 1154 b 172 560 71 713 104 635 b 646 93 319 393 508 233 b 1222 481 926 304 1200 468 b 1244 486 1229 483 1238 486 b 1285 446 1265 486 1285 465 b 1265 410 1285 432 1276 418 b 703 33 1258 407 983 244 b 958 -443 844 -115 958 -276 b 597 -850 956 -604 833 -749 b 217 -935 481 -901 338 -935 m 217 -854 b 564 -776 318 -854 443 -828 b 878 -444 767 -689 876 -569 b 639 -17 878 -303 775 -160 b 19 -744 368 -225 19 -554 b 217 -854 19 -821 93 -854 m 619 1721 b 586 1739 606 1721 592 1731 l 451 1951 b 446 1974 449 1957 446 1967 b 486 2014 446 1994 467 2014 b 521 1994 499 2014 514 2006 l 625 1831 l 775 2021 b 807 2035 783 2029 796 2035 b 847 1994 826 2035 847 2015 b 838 1969 847 1986 843 1976 l 653 1735 b 621 1721 644 1728 632 1721 "},"":{"ha":1550,"x_min":0,"x_max":0,"o":"m 581 -1021 b 542 -1012 565 -1021 551 -1018 b 429 -761 471 -987 429 -890 b 1010 176 429 -469 604 -128 b 1225 1407 1114 672 1197 1211 b 944 863 1188 1328 1074 1093 b 272 97 657 350 436 97 b 50 532 128 97 53 258 b 189 1342 50 785 115 1144 b 283 1468 231 1457 257 1465 b 338 1417 301 1468 338 1449 b 297 1376 338 1396 315 1376 l 289 1376 l 290 1375 b 176 971 269 1344 218 1193 b 132 540 146 813 132 664 b 274 179 132 303 174 189 b 872 900 353 179 528 285 b 1267 1689 1089 1288 1265 1685 b 1306 1714 1272 1704 1290 1714 b 1344 1672 1328 1713 1344 1694 l 1344 1668 b 1107 247 1338 1619 1242 894 b 1544 493 1324 399 1542 492 b 1560 496 1550 496 1556 496 b 1601 456 1581 496 1601 475 b 1574 417 1601 440 1590 425 b 1115 154 1572 417 1353 324 b 1083 128 1104 146 1085 129 b 771 -871 993 -296 885 -683 b 581 -1021 697 -990 628 -1021 m 581 -939 b 701 -828 614 -939 657 -901 b 982 51 804 -660 903 -306 b 519 -657 796 -97 565 -347 b 511 -764 514 -696 511 -732 b 581 -939 511 -876 542 -939 m 635 1697 b 593 1739 614 1697 593 1718 b 635 1782 593 1761 614 1782 b 678 1739 657 1782 678 1761 b 635 1697 678 1718 657 1697 m 826 1699 b 785 1740 804 1699 785 1719 b 826 1783 785 1763 804 1783 b 868 1740 849 1783 868 1763 b 826 1699 868 1719 849 1699 "},"":{"ha":1193,"x_min":0,"x_max":0,"o":"m 104 -722 b 13 -604 78 -719 13 -699 b 731 208 17 -326 415 -3 l 731 217 b 518 421 731 372 646 421 b 204 350 372 421 207 353 l 190 347 b 147 389 167 347 147 369 b 164 421 147 400 154 414 b 1210 1592 176 429 1185 1194 b 990 1746 1210 1692 1110 1746 b 272 1458 817 1746 556 1644 b -128 1117 47 1313 -103 1174 b -164 1093 -135 1103 -150 1093 b -203 1150 -187 1088 -221 1122 b 992 1826 -121 1324 576 1826 b 1292 1592 1144 1826 1292 1742 l 1289 1557 b 379 489 1250 1228 610 675 b 517 501 382 489 450 501 b 810 261 672 501 806 428 b 1200 486 1036 408 1175 486 b 1239 444 1221 486 1239 464 b 1219 410 1239 432 1231 417 b 810 163 1215 407 1026 306 b 485 -487 789 -35 671 -285 b 118 -722 351 -632 210 -722 m 119 -642 b 717 100 249 -642 629 -310 l 719 113 l 718 100 b 94 -604 438 -92 97 -374 b 113 -642 94 -639 103 -640 l 119 -642 m 590 1908 b 557 1926 576 1908 563 1918 l 422 2139 b 417 2161 419 2144 417 2154 b 457 2201 417 2182 438 2201 b 492 2182 469 2201 485 2193 l 596 2018 l 746 2208 b 778 2222 754 2217 767 2222 b 818 2182 797 2222 818 2203 b 808 2157 818 2174 814 2164 l 624 1922 b 592 1908 615 1915 603 1908 "},"":{"ha":753,"x_min":0,"x_max":0,"o":"m 233 -319 b 158 -289 204 -319 176 -308 b 131 -217 147 -278 131 -253 b 208 -43 131 -176 149 -119 b 347 115 242 0 294 58 b 181 243 313 161 246 201 b -14 472 67 315 -7 363 b 406 850 -14 649 269 850 b 492 819 438 850 468 839 b 563 607 553 767 563 663 l 561 571 b 521 533 560 550 539 533 b 479 575 499 535 479 553 l 481 611 b 404 768 481 681 467 768 b 375 764 396 768 386 767 b 67 474 247 728 67 588 l 68 460 b 404 174 82 360 303 300 b 757 521 556 329 746 510 b 785 533 764 529 775 533 b 826 492 804 533 826 513 b 813 463 826 482 821 469 b 451 104 810 460 608 268 b 479 -10 465 76 479 35 b 233 -319 479 -168 331 -319 m 233 -237 b 278 -222 246 -237 261 -233 b 397 -11 314 -196 397 -111 b 389 40 397 17 393 29 b 271 -94 349 -3 301 -56 b 213 -215 228 -149 213 -189 b 233 -237 213 -233 215 -237 m 294 936 b 261 954 281 936 267 946 l 126 1167 b 121 1189 124 1172 121 1182 b 161 1229 121 1210 142 1229 b 196 1210 174 1229 189 1221 l 300 1046 l 450 1236 b 482 1250 458 1244 471 1250 b 522 1210 501 1250 522 1231 b 513 1185 522 1201 518 1192 l 328 950 b 296 936 319 943 307 936 "},"":{"ha":1225,"x_min":0,"x_max":0,"o":"m 119 -1289 b 7 -1128 47 -1289 7 -1228 b 64 -844 7 -1056 26 -960 b 793 172 210 -415 528 -64 b 571 350 769 325 660 350 b 396 335 506 350 443 335 b 306 397 356 335 306 353 b 429 536 307 438 336 463 b 654 786 522 608 644 706 l 656 806 b 557 906 656 871 621 906 b 438 872 522 906 482 894 b 92 514 303 807 165 617 l 58 468 b 26 451 53 458 38 451 b -14 492 7 451 -14 472 b -6 517 -14 500 -11 510 l 26 560 b 401 946 104 668 249 871 b 557 986 457 972 511 986 b 736 807 658 986 736 915 l 735 778 b 407 415 718 614 456 472 l 389 417 b 569 431 433 417 500 431 b 839 290 663 431 768 406 b 864 236 851 268 863 243 b 1225 511 1057 403 1224 510 b 1249 518 1233 515 1242 518 b 1289 478 1268 518 1289 497 b 1271 443 1289 465 1282 451 b 878 140 1267 442 1089 328 l 878 119 b 776 -340 878 -22 828 -199 b 414 -1047 688 -583 550 -854 b 119 -1289 308 -1201 200 -1289 m 119 -1207 b 349 -1001 158 -1207 239 -1158 b 796 67 582 -667 788 -167 b 143 -871 576 -136 274 -479 b 88 -1128 101 -992 88 -1074 b 119 -1207 88 -1190 99 -1207 m 460 1117 b 426 1135 446 1117 432 1126 l 292 1347 b 286 1369 289 1353 286 1363 b 326 1410 286 1390 307 1410 b 361 1390 339 1410 354 1401 l 465 1226 l 615 1417 b 647 1431 624 1425 636 1431 b 688 1390 667 1431 688 1411 b 678 1365 688 1382 683 1372 l 493 1131 b 461 1117 485 1124 472 1117 "},"":{"ha":649,"x_min":0,"x_max":0,"o":"m 99 -150 b -61 118 -19 -150 -61 -24 b 35 665 -61 347 31 649 b 76 694 42 682 60 694 b 115 653 97 692 115 678 l 114 643 b 19 114 81 535 19 289 b 100 -69 19 1 42 -69 b 644 504 214 -69 492 278 b 678 522 651 515 667 522 b 718 481 700 522 718 500 b 711 457 718 474 717 465 b 481 151 710 456 606 303 b 99 -150 313 -49 186 -150 "},"":{"ha":1221,"x_min":0,"x_max":0,"o":"m 843 -1199 b 688 -732 742 -1199 688 -1056 b 783 340 690 -372 729 -26 l 790 392 b 296 -310 707 239 469 -144 b 119 -408 228 -374 168 -408 b -3 -304 83 -408 31 -389 b -42 4 -31 -232 -42 -121 b 49 882 -42 301 17 688 b 135 1319 75 1033 106 1192 b -340 1275 -42 1304 -212 1288 b -383 1315 -361 1275 -382 1290 b -349 1356 -383 1333 -367 1354 b 154 1401 -344 1357 -132 1378 b 342 1871 222 1701 278 1871 b 385 1829 363 1871 385 1851 b 354 1789 385 1811 367 1789 b 239 1410 335 1765 288 1621 b 992 1465 514 1433 664 1443 b 1113 1894 1032 1635 1074 1788 b 1243 2083 1169 2054 1210 2082 b 1307 1968 1279 2083 1307 2040 b 1207 1478 1307 1843 1249 1618 b 1701 1493 1394 1488 1567 1493 b 2068 1458 1894 1493 2018 1482 b 2092 1421 2082 1453 2092 1436 b 2049 1381 2088 1397 2076 1381 l 2035 1383 b 1713 1413 1992 1404 1876 1413 b 1183 1394 1563 1413 1376 1406 b 915 658 1103 1126 1006 865 b 769 -726 821 122 769 -433 b 843 -1118 769 -997 810 -1118 b 874 -1110 850 -1118 853 -1114 b 915 -1150 901 -1110 910 -1128 b 843 -1199 915 -1187 868 -1199 m 1121 1474 b 1226 1971 1194 1725 1226 1903 l 1226 1983 l 1229 1971 b 1100 1564 1225 1965 1176 1871 l 1078 1471 m 119 -326 b 753 504 239 -326 549 110 b 836 683 779 557 808 618 b 974 1382 879 938 928 1186 b 218 1326 729 1367 454 1346 b 40 7 129 922 40 347 b 71 -272 40 -119 50 -214 b 119 -326 92 -326 111 -326 m 986 1058 b 1096 1389 996 1082 1053 1247 l 1057 1388 b 986 1058 1026 1251 993 1092 "},"":{"ha":1324,"x_min":0,"x_max":0,"o":"m 858 -1199 b 703 -732 757 -1199 703 -1057 b 794 329 706 -425 742 0 l 799 369 l 536 -181 b 39 -851 231 -779 104 -851 b -71 -758 7 -851 -43 -835 b -108 -458 -97 -690 -108 -583 b 18 663 -108 -104 -26 410 b 322 1854 111 1197 251 1790 b 358 1871 332 1864 346 1871 b 401 1829 379 1871 401 1851 b 372 1790 401 1811 385 1792 b 97 644 333 1739 210 1279 b -26 -458 15 179 -26 -206 b 39 -771 -26 -657 -1 -771 b 464 -144 63 -771 165 -728 b 768 501 626 175 767 497 l 861 733 b 1128 1893 943 1215 1044 1663 b 1258 2083 1186 2054 1225 2082 b 1328 1963 1301 2083 1328 2040 b 1129 1218 1328 1854 1279 1643 b 940 713 1064 1033 993 850 b 785 -729 833 90 785 -393 b 858 -1118 785 -1000 826 -1118 b 889 -1110 865 -1118 868 -1114 b 932 -1150 914 -1110 926 -1126 b 858 -1199 932 -1186 886 -1199 m 1024 1164 b 1246 1985 1213 1671 1244 1881 l 1249 1978 b 1115 1564 1244 1971 1196 1882 b 1024 1164 1075 1403 1033 1213 "}}}
